<?xml version="1.0" encoding="UTF-8" ?>
<svg version="1.1" width="210" height="50" xmlns="http://www.w3.org/2000/svg" shape-rendering="crispEdges">
<rect x="138" y="7" width="1" height="1" fill="#181425" />
<rect x="139" y="7" width="1" height="1" fill="#181425" />
<rect x="140" y="7" width="1" height="1" fill="#181425" />
<rect x="141" y="7" width="1" height="1" fill="#181425" />
<rect x="142" y="7" width="1" height="1" fill="#181425" />
<rect x="143" y="7" width="1" height="1" fill="#181425" />
<rect x="144" y="7" width="1" height="1" fill="#181425" />
<rect x="145" y="7" width="1" height="1" fill="#181425" />
<rect x="96" y="8" width="1" height="1" fill="#181425" />
<rect x="97" y="8" width="1" height="1" fill="#181425" />
<rect x="98" y="8" width="1" height="1" fill="#181425" />
<rect x="99" y="8" width="1" height="1" fill="#181425" />
<rect x="100" y="8" width="1" height="1" fill="#181425" />
<rect x="101" y="8" width="1" height="1" fill="#181425" />
<rect x="102" y="8" width="1" height="1" fill="#181425" />
<rect x="103" y="8" width="1" height="1" fill="#181425" />
<rect x="104" y="8" width="1" height="1" fill="#181425" />
<rect x="114" y="8" width="1" height="1" fill="#181425" />
<rect x="115" y="8" width="1" height="1" fill="#181425" />
<rect x="116" y="8" width="1" height="1" fill="#181425" />
<rect x="117" y="8" width="1" height="1" fill="#181425" />
<rect x="118" y="8" width="1" height="1" fill="#181425" />
<rect x="119" y="8" width="1" height="1" fill="#181425" />
<rect x="130" y="8" width="1" height="1" fill="#181425" />
<rect x="131" y="8" width="1" height="1" fill="#181425" />
<rect x="132" y="8" width="1" height="1" fill="#181425" />
<rect x="133" y="8" width="1" height="1" fill="#181425" />
<rect x="134" y="8" width="1" height="1" fill="#181425" />
<rect x="135" y="8" width="1" height="1" fill="#181425" />
<rect x="136" y="8" width="1" height="1" fill="#181425" />
<rect x="137" y="8" width="1" height="1" fill="#181425" />
<rect x="138" y="8" width="1" height="1" fill="#181425" />
<rect x="145" y="8" width="1" height="1" fill="#181425" />
<rect x="146" y="8" width="1" height="1" fill="#181425" />
<rect x="147" y="8" width="1" height="1" fill="#181425" />
<rect x="148" y="8" width="1" height="1" fill="#181425" />
<rect x="149" y="8" width="1" height="1" fill="#181425" />
<rect x="150" y="8" width="1" height="1" fill="#181425" />
<rect x="151" y="8" width="1" height="1" fill="#181425" />
<rect x="152" y="8" width="1" height="1" fill="#181425" />
<rect x="95" y="9" width="1" height="1" fill="#181425" />
<rect x="96" y="9" width="1" height="1" fill="#181425" />
<rect x="104" y="9" width="1" height="1" fill="#181425" />
<rect x="105" y="9" width="1" height="1" fill="#181425" />
<rect x="106" y="9" width="1" height="1" fill="#181425" />
<rect x="112" y="9" width="1" height="1" fill="#181425" />
<rect x="113" y="9" width="1" height="1" fill="#181425" />
<rect x="114" y="9" width="1" height="1" fill="#181425" />
<rect x="119" y="9" width="1" height="1" fill="#181425" />
<rect x="120" y="9" width="1" height="1" fill="#181425" />
<rect x="121" y="9" width="1" height="1" fill="#181425" />
<rect x="128" y="9" width="1" height="1" fill="#181425" />
<rect x="129" y="9" width="1" height="1" fill="#181425" />
<rect x="130" y="9" width="1" height="1" fill="#181425" />
<rect x="133" y="9" width="1" height="1" fill="#181425" />
<rect x="134" y="9" width="1" height="1" fill="#181425" />
<rect x="152" y="9" width="1" height="1" fill="#181425" />
<rect x="153" y="9" width="1" height="1" fill="#181425" />
<rect x="154" y="9" width="1" height="1" fill="#181425" />
<rect x="155" y="9" width="1" height="1" fill="#181425" />
<rect x="77" y="10" width="1" height="1" fill="#000000" />
<rect x="78" y="10" width="1" height="1" fill="#000000" />
<rect x="79" y="10" width="1" height="1" fill="#000000" />
<rect x="80" y="10" width="1" height="1" fill="#000000" />
<rect x="81" y="10" width="1" height="1" fill="#000000" />
<rect x="82" y="10" width="1" height="1" fill="#000000" />
<rect x="83" y="10" width="1" height="1" fill="#000000" />
<rect x="84" y="10" width="1" height="1" fill="#000000" />
<rect x="85" y="10" width="1" height="1" fill="#000000" />
<rect x="86" y="10" width="1" height="1" fill="#000000" />
<rect x="87" y="10" width="1" height="1" fill="#000000" />
<rect x="88" y="10" width="1" height="1" fill="#000000" />
<rect x="89" y="10" width="1" height="1" fill="#000000" />
<rect x="93" y="10" width="1" height="1" fill="#181425" />
<rect x="94" y="10" width="1" height="1" fill="#181425" />
<rect x="107" y="10" width="1" height="1" fill="#181425" />
<rect x="108" y="10" width="1" height="1" fill="#181425" />
<rect x="111" y="10" width="1" height="1" fill="#181425" />
<rect x="112" y="10" width="1" height="1" fill="#181425" />
<rect x="121" y="10" width="1" height="1" fill="#181425" />
<rect x="122" y="10" width="1" height="1" fill="#181425" />
<rect x="126" y="10" width="1" height="1" fill="#181425" />
<rect x="127" y="10" width="1" height="1" fill="#181425" />
<rect x="128" y="10" width="1" height="1" fill="#181425" />
<rect x="135" y="10" width="1" height="1" fill="#181425" />
<rect x="155" y="10" width="1" height="1" fill="#181425" />
<rect x="156" y="10" width="1" height="1" fill="#181425" />
<rect x="157" y="10" width="1" height="1" fill="#181425" />
<rect x="65" y="11" width="1" height="1" fill="#000000" />
<rect x="66" y="11" width="1" height="1" fill="#000000" />
<rect x="67" y="11" width="1" height="1" fill="#000000" />
<rect x="68" y="11" width="1" height="1" fill="#000000" />
<rect x="69" y="11" width="1" height="1" fill="#000000" />
<rect x="70" y="11" width="1" height="1" fill="#000000" />
<rect x="71" y="11" width="1" height="1" fill="#000000" />
<rect x="72" y="11" width="1" height="1" fill="#000000" />
<rect x="74" y="11" width="1" height="1" fill="#000000" />
<rect x="75" y="11" width="1" height="1" fill="#000000" />
<rect x="76" y="11" width="1" height="1" fill="#000000" />
<rect x="77" y="11" width="1" height="1" fill="#000000" />
<rect x="89" y="11" width="1" height="1" fill="#000000" />
<rect x="90" y="11" width="1" height="1" fill="#000000" />
<rect x="91" y="11" width="1" height="1" fill="#000000" />
<rect x="92" y="11" width="1" height="1" fill="#181425" />
<rect x="93" y="11" width="1" height="1" fill="#181425" />
<rect x="108" y="11" width="1" height="1" fill="#181425" />
<rect x="109" y="11" width="1" height="1" fill="#181425" />
<rect x="110" y="11" width="1" height="1" fill="#181425" />
<rect x="111" y="11" width="1" height="1" fill="#181425" />
<rect x="122" y="11" width="1" height="1" fill="#181425" />
<rect x="123" y="11" width="1" height="1" fill="#181425" />
<rect x="125" y="11" width="1" height="1" fill="#181425" />
<rect x="126" y="11" width="1" height="1" fill="#181425" />
<rect x="127" y="11" width="1" height="1" fill="#181425" />
<rect x="136" y="11" width="1" height="1" fill="#181425" />
<rect x="157" y="11" width="1" height="1" fill="#181425" />
<rect x="158" y="11" width="1" height="1" fill="#181425" />
<rect x="159" y="11" width="1" height="1" fill="#181425" />
<rect x="63" y="12" width="1" height="1" fill="#000000" />
<rect x="64" y="12" width="1" height="1" fill="#000000" />
<rect x="65" y="12" width="1" height="1" fill="#000000" />
<rect x="72" y="12" width="1" height="1" fill="#000000" />
<rect x="73" y="12" width="1" height="1" fill="#000000" />
<rect x="74" y="12" width="1" height="1" fill="#000000" />
<rect x="92" y="12" width="1" height="1" fill="#181425" />
<rect x="93" y="12" width="1" height="1" fill="#000000" />
<rect x="109" y="12" width="1" height="1" fill="#181425" />
<rect x="110" y="12" width="1" height="1" fill="#181425" />
<rect x="123" y="12" width="1" height="1" fill="#181425" />
<rect x="124" y="12" width="1" height="1" fill="#181425" />
<rect x="125" y="12" width="1" height="1" fill="#181425" />
<rect x="136" y="12" width="1" height="1" fill="#181425" />
<rect x="137" y="12" width="1" height="1" fill="#181425" />
<rect x="159" y="12" width="1" height="1" fill="#181425" />
<rect x="62" y="13" width="1" height="1" fill="#000000" />
<rect x="63" y="13" width="1" height="1" fill="#000000" />
<rect x="75" y="13" width="1" height="1" fill="#000000" />
<rect x="93" y="13" width="1" height="1" fill="#000000" />
<rect x="109" y="13" width="1" height="1" fill="#181425" />
<rect x="110" y="13" width="1" height="1" fill="#181425" />
<rect x="123" y="13" width="1" height="1" fill="#181425" />
<rect x="124" y="13" width="1" height="1" fill="#181425" />
<rect x="137" y="13" width="1" height="1" fill="#181425" />
<rect x="159" y="13" width="1" height="1" fill="#181425" />
<rect x="60" y="14" width="1" height="1" fill="#000000" />
<rect x="61" y="14" width="1" height="1" fill="#000000" />
<rect x="75" y="14" width="1" height="1" fill="#000000" />
<rect x="76" y="14" width="1" height="1" fill="#000000" />
<rect x="93" y="14" width="1" height="1" fill="#000000" />
<rect x="94" y="14" width="1" height="1" fill="#000000" />
<rect x="110" y="14" width="1" height="1" fill="#181425" />
<rect x="123" y="14" width="1" height="1" fill="#181425" />
<rect x="137" y="14" width="1" height="1" fill="#181425" />
<rect x="159" y="14" width="1" height="1" fill="#181425" />
<rect x="59" y="15" width="1" height="1" fill="#000000" />
<rect x="60" y="15" width="1" height="1" fill="#000000" />
<rect x="76" y="15" width="1" height="1" fill="#000000" />
<rect x="82" y="15" width="1" height="1" fill="#000000" />
<rect x="94" y="15" width="1" height="1" fill="#000000" />
<rect x="110" y="15" width="1" height="1" fill="#181425" />
<rect x="123" y="15" width="1" height="1" fill="#181425" />
<rect x="137" y="15" width="1" height="1" fill="#181425" />
<rect x="159" y="15" width="1" height="1" fill="#181425" />
<rect x="58" y="16" width="1" height="1" fill="#000000" />
<rect x="59" y="16" width="1" height="1" fill="#000000" />
<rect x="76" y="16" width="1" height="1" fill="#000000" />
<rect x="82" y="16" width="1" height="1" fill="#000000" />
<rect x="83" y="16" width="1" height="1" fill="#000000" />
<rect x="94" y="16" width="1" height="1" fill="#000000" />
<rect x="102" y="16" width="1" height="1" fill="#181425" />
<rect x="103" y="16" width="1" height="1" fill="#181425" />
<rect x="110" y="16" width="1" height="1" fill="#181425" />
<rect x="111" y="16" width="1" height="1" fill="#181425" />
<rect x="123" y="16" width="1" height="1" fill="#181425" />
<rect x="137" y="16" width="1" height="1" fill="#181425" />
<rect x="141" y="16" width="1" height="1" fill="#181425" />
<rect x="142" y="16" width="1" height="1" fill="#181425" />
<rect x="159" y="16" width="1" height="1" fill="#181425" />
<rect x="57" y="17" width="1" height="1" fill="#000000" />
<rect x="58" y="17" width="1" height="1" fill="#000000" />
<rect x="76" y="17" width="1" height="1" fill="#000000" />
<rect x="83" y="17" width="1" height="1" fill="#000000" />
<rect x="94" y="17" width="1" height="1" fill="#000000" />
<rect x="103" y="17" width="1" height="1" fill="#181425" />
<rect x="104" y="17" width="1" height="1" fill="#181425" />
<rect x="111" y="17" width="1" height="1" fill="#181425" />
<rect x="123" y="17" width="1" height="1" fill="#181425" />
<rect x="137" y="17" width="1" height="1" fill="#181425" />
<rect x="138" y="17" width="1" height="1" fill="#181425" />
<rect x="139" y="17" width="1" height="1" fill="#181425" />
<rect x="140" y="17" width="1" height="1" fill="#181425" />
<rect x="141" y="17" width="1" height="1" fill="#181425" />
<rect x="148" y="17" width="1" height="1" fill="#181425" />
<rect x="158" y="17" width="1" height="1" fill="#181425" />
<rect x="159" y="17" width="1" height="1" fill="#181425" />
<rect x="57" y="18" width="1" height="1" fill="#000000" />
<rect x="70" y="18" width="1" height="1" fill="#000000" />
<rect x="76" y="18" width="1" height="1" fill="#000000" />
<rect x="77" y="18" width="1" height="1" fill="#000000" />
<rect x="83" y="18" width="1" height="1" fill="#000000" />
<rect x="93" y="18" width="1" height="1" fill="#000000" />
<rect x="94" y="18" width="1" height="1" fill="#000000" />
<rect x="104" y="18" width="1" height="1" fill="#181425" />
<rect x="111" y="18" width="1" height="1" fill="#181425" />
<rect x="123" y="18" width="1" height="1" fill="#181425" />
<rect x="137" y="18" width="1" height="1" fill="#181425" />
<rect x="139" y="18" width="1" height="1" fill="#181425" />
<rect x="148" y="18" width="1" height="1" fill="#181425" />
<rect x="149" y="18" width="1" height="1" fill="#181425" />
<rect x="157" y="18" width="1" height="1" fill="#181425" />
<rect x="158" y="18" width="1" height="1" fill="#181425" />
<rect x="56" y="19" width="1" height="1" fill="#000000" />
<rect x="70" y="19" width="1" height="1" fill="#000000" />
<rect x="77" y="19" width="1" height="1" fill="#000000" />
<rect x="92" y="19" width="1" height="1" fill="#000000" />
<rect x="93" y="19" width="1" height="1" fill="#000000" />
<rect x="104" y="19" width="1" height="1" fill="#181425" />
<rect x="105" y="19" width="1" height="1" fill="#181425" />
<rect x="111" y="19" width="1" height="1" fill="#181425" />
<rect x="123" y="19" width="1" height="1" fill="#181425" />
<rect x="137" y="19" width="1" height="1" fill="#181425" />
<rect x="139" y="19" width="1" height="1" fill="#181425" />
<rect x="148" y="19" width="1" height="1" fill="#181425" />
<rect x="150" y="19" width="1" height="1" fill="#181425" />
<rect x="151" y="19" width="1" height="1" fill="#181425" />
<rect x="152" y="19" width="1" height="1" fill="#181425" />
<rect x="153" y="19" width="1" height="1" fill="#181425" />
<rect x="154" y="19" width="1" height="1" fill="#181425" />
<rect x="155" y="19" width="1" height="1" fill="#181425" />
<rect x="156" y="19" width="1" height="1" fill="#181425" />
<rect x="157" y="19" width="1" height="1" fill="#181425" />
<rect x="55" y="20" width="1" height="1" fill="#000000" />
<rect x="56" y="20" width="1" height="1" fill="#000000" />
<rect x="69" y="20" width="1" height="1" fill="#000000" />
<rect x="77" y="20" width="1" height="1" fill="#000000" />
<rect x="91" y="20" width="1" height="1" fill="#000000" />
<rect x="92" y="20" width="1" height="1" fill="#000000" />
<rect x="105" y="20" width="1" height="1" fill="#181425" />
<rect x="112" y="20" width="1" height="1" fill="#181425" />
<rect x="123" y="20" width="1" height="1" fill="#181425" />
<rect x="137" y="20" width="1" height="1" fill="#181425" />
<rect x="138" y="20" width="1" height="1" fill="#181425" />
<rect x="148" y="20" width="1" height="1" fill="#181425" />
<rect x="55" y="21" width="1" height="1" fill="#000000" />
<rect x="69" y="21" width="1" height="1" fill="#000000" />
<rect x="77" y="21" width="1" height="1" fill="#000000" />
<rect x="90" y="21" width="1" height="1" fill="#000000" />
<rect x="91" y="21" width="1" height="1" fill="#000000" />
<rect x="92" y="21" width="1" height="1" fill="#000000" />
<rect x="93" y="21" width="1" height="1" fill="#000000" />
<rect x="94" y="21" width="1" height="1" fill="#000000" />
<rect x="95" y="21" width="1" height="1" fill="#000000" />
<rect x="96" y="21" width="1" height="1" fill="#000000" />
<rect x="97" y="21" width="1" height="1" fill="#000000" />
<rect x="105" y="21" width="1" height="1" fill="#181425" />
<rect x="112" y="21" width="1" height="1" fill="#181425" />
<rect x="123" y="21" width="1" height="1" fill="#181425" />
<rect x="137" y="21" width="1" height="1" fill="#181425" />
<rect x="138" y="21" width="1" height="1" fill="#181425" />
<rect x="148" y="21" width="1" height="1" fill="#181425" />
<rect x="54" y="22" width="1" height="1" fill="#000000" />
<rect x="55" y="22" width="1" height="1" fill="#000000" />
<rect x="68" y="22" width="1" height="1" fill="#000000" />
<rect x="69" y="22" width="1" height="1" fill="#000000" />
<rect x="77" y="22" width="1" height="1" fill="#000000" />
<rect x="87" y="22" width="1" height="1" fill="#000000" />
<rect x="88" y="22" width="1" height="1" fill="#000000" />
<rect x="89" y="22" width="1" height="1" fill="#000000" />
<rect x="90" y="22" width="1" height="1" fill="#000000" />
<rect x="97" y="22" width="1" height="1" fill="#000000" />
<rect x="98" y="22" width="1" height="1" fill="#000000" />
<rect x="99" y="22" width="1" height="1" fill="#000000" />
<rect x="105" y="22" width="1" height="1" fill="#181425" />
<rect x="106" y="22" width="1" height="1" fill="#181425" />
<rect x="112" y="22" width="1" height="1" fill="#181425" />
<rect x="122" y="22" width="1" height="1" fill="#181425" />
<rect x="123" y="22" width="1" height="1" fill="#181425" />
<rect x="137" y="22" width="1" height="1" fill="#181425" />
<rect x="138" y="22" width="1" height="1" fill="#181425" />
<rect x="148" y="22" width="1" height="1" fill="#181425" />
<rect x="54" y="23" width="1" height="1" fill="#000000" />
<rect x="68" y="23" width="1" height="1" fill="#000000" />
<rect x="77" y="23" width="1" height="1" fill="#000000" />
<rect x="86" y="23" width="1" height="1" fill="#000000" />
<rect x="87" y="23" width="1" height="1" fill="#000000" />
<rect x="99" y="23" width="1" height="1" fill="#000000" />
<rect x="100" y="23" width="1" height="1" fill="#000000" />
<rect x="106" y="23" width="1" height="1" fill="#181425" />
<rect x="112" y="23" width="1" height="1" fill="#181425" />
<rect x="122" y="23" width="1" height="1" fill="#181425" />
<rect x="137" y="23" width="1" height="1" fill="#181425" />
<rect x="148" y="23" width="1" height="1" fill="#181425" />
<rect x="54" y="24" width="1" height="1" fill="#000000" />
<rect x="68" y="24" width="1" height="1" fill="#000000" />
<rect x="77" y="24" width="1" height="1" fill="#000000" />
<rect x="100" y="24" width="1" height="1" fill="#000000" />
<rect x="101" y="24" width="1" height="1" fill="#000000" />
<rect x="106" y="24" width="1" height="1" fill="#181425" />
<rect x="112" y="24" width="1" height="1" fill="#181425" />
<rect x="122" y="24" width="1" height="1" fill="#181425" />
<rect x="137" y="24" width="1" height="1" fill="#181425" />
<rect x="148" y="24" width="1" height="1" fill="#181425" />
<rect x="53" y="25" width="1" height="1" fill="#000000" />
<rect x="54" y="25" width="1" height="1" fill="#000000" />
<rect x="77" y="25" width="1" height="1" fill="#000000" />
<rect x="101" y="25" width="1" height="1" fill="#000000" />
<rect x="106" y="25" width="1" height="1" fill="#181425" />
<rect x="112" y="25" width="1" height="1" fill="#181425" />
<rect x="137" y="25" width="1" height="1" fill="#181425" />
<rect x="148" y="25" width="1" height="1" fill="#181425" />
<rect x="53" y="26" width="1" height="1" fill="#000000" />
<rect x="76" y="26" width="1" height="1" fill="#000000" />
<rect x="77" y="26" width="1" height="1" fill="#000000" />
<rect x="101" y="26" width="1" height="1" fill="#000000" />
<rect x="106" y="26" width="1" height="1" fill="#181425" />
<rect x="112" y="26" width="1" height="1" fill="#181425" />
<rect x="136" y="26" width="1" height="1" fill="#181425" />
<rect x="137" y="26" width="1" height="1" fill="#181425" />
<rect x="148" y="26" width="1" height="1" fill="#181425" />
<rect x="53" y="27" width="1" height="1" fill="#000000" />
<rect x="76" y="27" width="1" height="1" fill="#000000" />
<rect x="77" y="27" width="1" height="1" fill="#000000" />
<rect x="101" y="27" width="1" height="1" fill="#000000" />
<rect x="106" y="27" width="1" height="1" fill="#181425" />
<rect x="112" y="27" width="1" height="1" fill="#181425" />
<rect x="136" y="27" width="1" height="1" fill="#181425" />
<rect x="147" y="27" width="1" height="1" fill="#181425" />
<rect x="148" y="27" width="1" height="1" fill="#181425" />
<rect x="53" y="28" width="1" height="1" fill="#000000" />
<rect x="76" y="28" width="1" height="1" fill="#000000" />
<rect x="88" y="28" width="1" height="1" fill="#000000" />
<rect x="101" y="28" width="1" height="1" fill="#000000" />
<rect x="106" y="28" width="1" height="1" fill="#181425" />
<rect x="112" y="28" width="1" height="1" fill="#181425" />
<rect x="136" y="28" width="1" height="1" fill="#181425" />
<rect x="147" y="28" width="1" height="1" fill="#181425" />
<rect x="53" y="29" width="1" height="1" fill="#000000" />
<rect x="76" y="29" width="1" height="1" fill="#000000" />
<rect x="88" y="29" width="1" height="1" fill="#000000" />
<rect x="89" y="29" width="1" height="1" fill="#000000" />
<rect x="101" y="29" width="1" height="1" fill="#000000" />
<rect x="112" y="29" width="1" height="1" fill="#181425" />
<rect x="135" y="29" width="1" height="1" fill="#181425" />
<rect x="147" y="29" width="1" height="1" fill="#181425" />
<rect x="53" y="30" width="1" height="1" fill="#000000" />
<rect x="75" y="30" width="1" height="1" fill="#000000" />
<rect x="76" y="30" width="1" height="1" fill="#000000" />
<rect x="89" y="30" width="1" height="1" fill="#000000" />
<rect x="101" y="30" width="1" height="1" fill="#000000" />
<rect x="112" y="30" width="1" height="1" fill="#181425" />
<rect x="135" y="30" width="1" height="1" fill="#181425" />
<rect x="146" y="30" width="1" height="1" fill="#181425" />
<rect x="147" y="30" width="1" height="1" fill="#181425" />
<rect x="53" y="31" width="1" height="1" fill="#000000" />
<rect x="75" y="31" width="1" height="1" fill="#000000" />
<rect x="89" y="31" width="1" height="1" fill="#000000" />
<rect x="100" y="31" width="1" height="1" fill="#000000" />
<rect x="112" y="31" width="1" height="1" fill="#181425" />
<rect x="135" y="31" width="1" height="1" fill="#181425" />
<rect x="146" y="31" width="1" height="1" fill="#181425" />
<rect x="53" y="32" width="1" height="1" fill="#000000" />
<rect x="66" y="32" width="1" height="1" fill="#000000" />
<rect x="75" y="32" width="1" height="1" fill="#000000" />
<rect x="89" y="32" width="1" height="1" fill="#000000" />
<rect x="99" y="32" width="1" height="1" fill="#000000" />
<rect x="100" y="32" width="1" height="1" fill="#000000" />
<rect x="112" y="32" width="1" height="1" fill="#181425" />
<rect x="134" y="32" width="1" height="1" fill="#181425" />
<rect x="135" y="32" width="1" height="1" fill="#181425" />
<rect x="145" y="32" width="1" height="1" fill="#181425" />
<rect x="146" y="32" width="1" height="1" fill="#181425" />
<rect x="54" y="33" width="1" height="1" fill="#000000" />
<rect x="65" y="33" width="1" height="1" fill="#000000" />
<rect x="66" y="33" width="1" height="1" fill="#000000" />
<rect x="74" y="33" width="1" height="1" fill="#000000" />
<rect x="75" y="33" width="1" height="1" fill="#000000" />
<rect x="89" y="33" width="1" height="1" fill="#000000" />
<rect x="98" y="33" width="1" height="1" fill="#000000" />
<rect x="99" y="33" width="1" height="1" fill="#000000" />
<rect x="111" y="33" width="1" height="1" fill="#181425" />
<rect x="134" y="33" width="1" height="1" fill="#181425" />
<rect x="145" y="33" width="1" height="1" fill="#181425" />
<rect x="54" y="34" width="1" height="1" fill="#000000" />
<rect x="65" y="34" width="1" height="1" fill="#000000" />
<rect x="74" y="34" width="1" height="1" fill="#000000" />
<rect x="98" y="34" width="1" height="1" fill="#181425" />
<rect x="111" y="34" width="1" height="1" fill="#181425" />
<rect x="134" y="34" width="1" height="1" fill="#181425" />
<rect x="144" y="34" width="1" height="1" fill="#181425" />
<rect x="54" y="35" width="1" height="1" fill="#000000" />
<rect x="65" y="35" width="1" height="1" fill="#000000" />
<rect x="74" y="35" width="1" height="1" fill="#000000" />
<rect x="96" y="35" width="1" height="1" fill="#181425" />
<rect x="97" y="35" width="1" height="1" fill="#000000" />
<rect x="98" y="35" width="1" height="1" fill="#181425" />
<rect x="110" y="35" width="1" height="1" fill="#181425" />
<rect x="111" y="35" width="1" height="1" fill="#181425" />
<rect x="133" y="35" width="1" height="1" fill="#181425" />
<rect x="134" y="35" width="1" height="1" fill="#181425" />
<rect x="144" y="35" width="1" height="1" fill="#181425" />
<rect x="54" y="36" width="1" height="1" fill="#000000" />
<rect x="55" y="36" width="1" height="1" fill="#000000" />
<rect x="64" y="36" width="1" height="1" fill="#000000" />
<rect x="65" y="36" width="1" height="1" fill="#000000" />
<rect x="73" y="36" width="1" height="1" fill="#000000" />
<rect x="95" y="36" width="1" height="1" fill="#000000" />
<rect x="96" y="36" width="1" height="1" fill="#181425" />
<rect x="97" y="36" width="1" height="1" fill="#181425" />
<rect x="108" y="36" width="1" height="1" fill="#181425" />
<rect x="109" y="36" width="1" height="1" fill="#181425" />
<rect x="110" y="36" width="1" height="1" fill="#181425" />
<rect x="111" y="36" width="1" height="1" fill="#181425" />
<rect x="112" y="36" width="1" height="1" fill="#181425" />
<rect x="132" y="36" width="1" height="1" fill="#181425" />
<rect x="134" y="36" width="1" height="1" fill="#181425" />
<rect x="135" y="36" width="1" height="1" fill="#181425" />
<rect x="143" y="36" width="1" height="1" fill="#181425" />
<rect x="55" y="37" width="1" height="1" fill="#000000" />
<rect x="64" y="37" width="1" height="1" fill="#000000" />
<rect x="65" y="37" width="1" height="1" fill="#000000" />
<rect x="72" y="37" width="1" height="1" fill="#000000" />
<rect x="73" y="37" width="1" height="1" fill="#000000" />
<rect x="74" y="37" width="1" height="1" fill="#000000" />
<rect x="94" y="37" width="1" height="1" fill="#000000" />
<rect x="95" y="37" width="1" height="1" fill="#000000" />
<rect x="97" y="37" width="1" height="1" fill="#181425" />
<rect x="98" y="37" width="1" height="1" fill="#181425" />
<rect x="99" y="37" width="1" height="1" fill="#181425" />
<rect x="106" y="37" width="1" height="1" fill="#181425" />
<rect x="107" y="37" width="1" height="1" fill="#181425" />
<rect x="108" y="37" width="1" height="1" fill="#181425" />
<rect x="113" y="37" width="1" height="1" fill="#181425" />
<rect x="114" y="37" width="1" height="1" fill="#181425" />
<rect x="131" y="37" width="1" height="1" fill="#181425" />
<rect x="132" y="37" width="1" height="1" fill="#181425" />
<rect x="135" y="37" width="1" height="1" fill="#181425" />
<rect x="136" y="37" width="1" height="1" fill="#181425" />
<rect x="142" y="37" width="1" height="1" fill="#181425" />
<rect x="143" y="37" width="1" height="1" fill="#181425" />
<rect x="56" y="38" width="1" height="1" fill="#000000" />
<rect x="63" y="38" width="1" height="1" fill="#000000" />
<rect x="64" y="38" width="1" height="1" fill="#000000" />
<rect x="65" y="38" width="1" height="1" fill="#000000" />
<rect x="72" y="38" width="1" height="1" fill="#000000" />
<rect x="74" y="38" width="1" height="1" fill="#000000" />
<rect x="92" y="38" width="1" height="1" fill="#000000" />
<rect x="93" y="38" width="1" height="1" fill="#000000" />
<rect x="99" y="38" width="1" height="1" fill="#181425" />
<rect x="100" y="38" width="1" height="1" fill="#181425" />
<rect x="101" y="38" width="1" height="1" fill="#181425" />
<rect x="102" y="38" width="1" height="1" fill="#181425" />
<rect x="103" y="38" width="1" height="1" fill="#181425" />
<rect x="104" y="38" width="1" height="1" fill="#181425" />
<rect x="105" y="38" width="1" height="1" fill="#181425" />
<rect x="106" y="38" width="1" height="1" fill="#181425" />
<rect x="115" y="38" width="1" height="1" fill="#181425" />
<rect x="116" y="38" width="1" height="1" fill="#181425" />
<rect x="117" y="38" width="1" height="1" fill="#181425" />
<rect x="128" y="38" width="1" height="1" fill="#181425" />
<rect x="129" y="38" width="1" height="1" fill="#181425" />
<rect x="130" y="38" width="1" height="1" fill="#181425" />
<rect x="131" y="38" width="1" height="1" fill="#181425" />
<rect x="136" y="38" width="1" height="1" fill="#181425" />
<rect x="137" y="38" width="1" height="1" fill="#181425" />
<rect x="140" y="38" width="1" height="1" fill="#181425" />
<rect x="141" y="38" width="1" height="1" fill="#181425" />
<rect x="142" y="38" width="1" height="1" fill="#181425" />
<rect x="56" y="39" width="1" height="1" fill="#000000" />
<rect x="57" y="39" width="1" height="1" fill="#000000" />
<rect x="62" y="39" width="1" height="1" fill="#000000" />
<rect x="63" y="39" width="1" height="1" fill="#000000" />
<rect x="65" y="39" width="1" height="1" fill="#000000" />
<rect x="70" y="39" width="1" height="1" fill="#000000" />
<rect x="71" y="39" width="1" height="1" fill="#000000" />
<rect x="75" y="39" width="1" height="1" fill="#000000" />
<rect x="76" y="39" width="1" height="1" fill="#000000" />
<rect x="87" y="39" width="1" height="1" fill="#000000" />
<rect x="88" y="39" width="1" height="1" fill="#000000" />
<rect x="89" y="39" width="1" height="1" fill="#000000" />
<rect x="90" y="39" width="1" height="1" fill="#000000" />
<rect x="91" y="39" width="1" height="1" fill="#000000" />
<rect x="117" y="39" width="1" height="1" fill="#181425" />
<rect x="118" y="39" width="1" height="1" fill="#181425" />
<rect x="119" y="39" width="1" height="1" fill="#181425" />
<rect x="120" y="39" width="1" height="1" fill="#181425" />
<rect x="121" y="39" width="1" height="1" fill="#181425" />
<rect x="122" y="39" width="1" height="1" fill="#181425" />
<rect x="123" y="39" width="1" height="1" fill="#181425" />
<rect x="124" y="39" width="1" height="1" fill="#181425" />
<rect x="125" y="39" width="1" height="1" fill="#181425" />
<rect x="126" y="39" width="1" height="1" fill="#181425" />
<rect x="127" y="39" width="1" height="1" fill="#181425" />
<rect x="128" y="39" width="1" height="1" fill="#181425" />
<rect x="137" y="39" width="1" height="1" fill="#181425" />
<rect x="138" y="39" width="1" height="1" fill="#181425" />
<rect x="139" y="39" width="1" height="1" fill="#181425" />
<rect x="140" y="39" width="1" height="1" fill="#181425" />
<rect x="57" y="40" width="1" height="1" fill="#000000" />
<rect x="58" y="40" width="1" height="1" fill="#000000" />
<rect x="59" y="40" width="1" height="1" fill="#000000" />
<rect x="60" y="40" width="1" height="1" fill="#000000" />
<rect x="61" y="40" width="1" height="1" fill="#000000" />
<rect x="62" y="40" width="1" height="1" fill="#000000" />
<rect x="65" y="40" width="1" height="1" fill="#000000" />
<rect x="66" y="40" width="1" height="1" fill="#000000" />
<rect x="68" y="40" width="1" height="1" fill="#000000" />
<rect x="69" y="40" width="1" height="1" fill="#000000" />
<rect x="70" y="40" width="1" height="1" fill="#000000" />
<rect x="76" y="40" width="1" height="1" fill="#000000" />
<rect x="77" y="40" width="1" height="1" fill="#000000" />
<rect x="78" y="40" width="1" height="1" fill="#000000" />
<rect x="79" y="40" width="1" height="1" fill="#000000" />
<rect x="80" y="40" width="1" height="1" fill="#000000" />
<rect x="81" y="40" width="1" height="1" fill="#000000" />
<rect x="82" y="40" width="1" height="1" fill="#000000" />
<rect x="83" y="40" width="1" height="1" fill="#000000" />
<rect x="84" y="40" width="1" height="1" fill="#000000" />
<rect x="85" y="40" width="1" height="1" fill="#000000" />
<rect x="86" y="40" width="1" height="1" fill="#000000" />
<rect x="66" y="41" width="1" height="1" fill="#000000" />
<rect x="67" y="41" width="1" height="1" fill="#000000" />
<rect x="68" y="41" width="1" height="1" fill="#000000" />
</svg>