<?xml version="1.0" encoding="UTF-8" ?>
<svg version="1.1" width="1000" height="300" xmlns="http://www.w3.org/2000/svg" shape-rendering="crispEdges">
<rect x="590" y="0" width="10" height="10" fill="#000000" />
<rect x="600" y="0" width="10" height="10" fill="#000000" />
<rect x="610" y="0" width="10" height="10" fill="#000000" />
<rect x="620" y="0" width="10" height="10" fill="#000000" />
<rect x="780" y="0" width="10" height="10" fill="#000000" />
<rect x="790" y="0" width="10" height="10" fill="#000000" />
<rect x="800" y="0" width="10" height="10" fill="#000000" />
<rect x="810" y="0" width="10" height="10" fill="#000000" />
<rect x="820" y="0" width="10" height="10" fill="#000000" />
<rect x="830" y="0" width="10" height="10" fill="#000000" />
<rect x="840" y="0" width="10" height="10" fill="#000000" />
<rect x="850" y="0" width="10" height="10" fill="#000000" />
<rect x="860" y="0" width="10" height="10" fill="#000000" />
<rect x="870" y="0" width="10" height="10" fill="#000000" />
<rect x="880" y="0" width="10" height="10" fill="#000000" />
<rect x="890" y="0" width="10" height="10" fill="#000000" />
<rect x="900" y="0" width="10" height="10" fill="#000000" />
<rect x="910" y="0" width="10" height="10" fill="#000000" />
<rect x="920" y="0" width="10" height="10" fill="#000000" />
<rect x="930" y="0" width="10" height="10" fill="#000000" />
<rect x="430" y="10" width="10" height="10" fill="#000000" />
<rect x="440" y="10" width="10" height="10" fill="#000000" />
<rect x="450" y="10" width="10" height="10" fill="#000000" />
<rect x="460" y="10" width="10" height="10" fill="#000000" />
<rect x="470" y="10" width="10" height="10" fill="#000000" />
<rect x="480" y="10" width="10" height="10" fill="#000000" />
<rect x="490" y="10" width="10" height="10" fill="#000000" />
<rect x="500" y="10" width="10" height="10" fill="#000000" />
<rect x="510" y="10" width="10" height="10" fill="#000000" />
<rect x="520" y="10" width="10" height="10" fill="#000000" />
<rect x="530" y="10" width="10" height="10" fill="#000000" />
<rect x="540" y="10" width="10" height="10" fill="#000000" />
<rect x="580" y="10" width="10" height="10" fill="#000000" />
<rect x="590" y="10" width="10" height="10" fill="#000000" />
<rect x="620" y="10" width="10" height="10" fill="#000000" />
<rect x="630" y="10" width="10" height="10" fill="#000000" />
<rect x="690" y="10" width="10" height="10" fill="#000000" />
<rect x="700" y="10" width="10" height="10" fill="#000000" />
<rect x="710" y="10" width="10" height="10" fill="#000000" />
<rect x="720" y="10" width="10" height="10" fill="#000000" />
<rect x="730" y="10" width="10" height="10" fill="#000000" />
<rect x="740" y="10" width="10" height="10" fill="#000000" />
<rect x="750" y="10" width="10" height="10" fill="#000000" />
<rect x="760" y="10" width="10" height="10" fill="#000000" />
<rect x="770" y="10" width="10" height="10" fill="#000000" />
<rect x="780" y="10" width="10" height="10" fill="#000000" />
<rect x="940" y="10" width="10" height="10" fill="#000000" />
<rect x="950" y="10" width="10" height="10" fill="#000000" />
<rect x="380" y="20" width="10" height="10" fill="#000000" />
<rect x="390" y="20" width="10" height="10" fill="#000000" />
<rect x="400" y="20" width="10" height="10" fill="#000000" />
<rect x="410" y="20" width="10" height="10" fill="#000000" />
<rect x="420" y="20" width="10" height="10" fill="#000000" />
<rect x="550" y="20" width="10" height="10" fill="#000000" />
<rect x="560" y="20" width="10" height="10" fill="#000000" />
<rect x="580" y="20" width="10" height="10" fill="#000000" />
<rect x="630" y="20" width="10" height="10" fill="#000000" />
<rect x="640" y="20" width="10" height="10" fill="#000000" />
<rect x="670" y="20" width="10" height="10" fill="#000000" />
<rect x="680" y="20" width="10" height="10" fill="#000000" />
<rect x="690" y="20" width="10" height="10" fill="#000000" />
<rect x="770" y="20" width="10" height="10" fill="#000000" />
<rect x="950" y="20" width="10" height="10" fill="#000000" />
<rect x="960" y="20" width="10" height="10" fill="#000000" />
<rect x="310" y="30" width="10" height="10" fill="#000000" />
<rect x="320" y="30" width="10" height="10" fill="#000000" />
<rect x="330" y="30" width="10" height="10" fill="#000000" />
<rect x="340" y="30" width="10" height="10" fill="#000000" />
<rect x="370" y="30" width="10" height="10" fill="#000000" />
<rect x="420" y="30" width="10" height="10" fill="#000000" />
<rect x="570" y="30" width="10" height="10" fill="#000000" />
<rect x="640" y="30" width="10" height="10" fill="#000000" />
<rect x="660" y="30" width="10" height="10" fill="#000000" />
<rect x="670" y="30" width="10" height="10" fill="#000000" />
<rect x="780" y="30" width="10" height="10" fill="#000000" />
<rect x="790" y="30" width="10" height="10" fill="#000000" />
<rect x="850" y="30" width="10" height="10" fill="#000000" />
<rect x="880" y="30" width="10" height="10" fill="#000000" />
<rect x="960" y="30" width="10" height="10" fill="#000000" />
<rect x="80" y="40" width="10" height="10" fill="#000000" />
<rect x="90" y="40" width="10" height="10" fill="#000000" />
<rect x="100" y="40" width="10" height="10" fill="#000000" />
<rect x="110" y="40" width="10" height="10" fill="#000000" />
<rect x="120" y="40" width="10" height="10" fill="#000000" />
<rect x="130" y="40" width="10" height="10" fill="#000000" />
<rect x="140" y="40" width="10" height="10" fill="#000000" />
<rect x="190" y="40" width="10" height="10" fill="#000000" />
<rect x="200" y="40" width="10" height="10" fill="#000000" />
<rect x="210" y="40" width="10" height="10" fill="#000000" />
<rect x="220" y="40" width="10" height="10" fill="#000000" />
<rect x="230" y="40" width="10" height="10" fill="#000000" />
<rect x="240" y="40" width="10" height="10" fill="#000000" />
<rect x="250" y="40" width="10" height="10" fill="#000000" />
<rect x="260" y="40" width="10" height="10" fill="#000000" />
<rect x="270" y="40" width="10" height="10" fill="#000000" />
<rect x="300" y="40" width="10" height="10" fill="#000000" />
<rect x="310" y="40" width="10" height="10" fill="#000000" />
<rect x="340" y="40" width="10" height="10" fill="#000000" />
<rect x="350" y="40" width="10" height="10" fill="#000000" />
<rect x="370" y="40" width="10" height="10" fill="#000000" />
<rect x="430" y="40" width="10" height="10" fill="#000000" />
<rect x="580" y="40" width="10" height="10" fill="#000000" />
<rect x="640" y="40" width="10" height="10" fill="#000000" />
<rect x="650" y="40" width="10" height="10" fill="#000000" />
<rect x="660" y="40" width="10" height="10" fill="#000000" />
<rect x="790" y="40" width="10" height="10" fill="#000000" />
<rect x="800" y="40" width="10" height="10" fill="#000000" />
<rect x="840" y="40" width="10" height="10" fill="#000000" />
<rect x="890" y="40" width="10" height="10" fill="#000000" />
<rect x="960" y="40" width="10" height="10" fill="#000000" />
<rect x="70" y="50" width="10" height="10" fill="#000000" />
<rect x="80" y="50" width="10" height="10" fill="#000000" />
<rect x="140" y="50" width="10" height="10" fill="#000000" />
<rect x="150" y="50" width="10" height="10" fill="#000000" />
<rect x="170" y="50" width="10" height="10" fill="#000000" />
<rect x="180" y="50" width="10" height="10" fill="#000000" />
<rect x="190" y="50" width="10" height="10" fill="#000000" />
<rect x="270" y="50" width="10" height="10" fill="#000000" />
<rect x="280" y="50" width="10" height="10" fill="#000000" />
<rect x="300" y="50" width="10" height="10" fill="#000000" />
<rect x="350" y="50" width="10" height="10" fill="#000000" />
<rect x="360" y="50" width="10" height="10" fill="#000000" />
<rect x="370" y="50" width="10" height="10" fill="#000000" />
<rect x="440" y="50" width="10" height="10" fill="#000000" />
<rect x="580" y="50" width="10" height="10" fill="#000000" />
<rect x="610" y="50" width="10" height="10" fill="#000000" />
<rect x="650" y="50" width="10" height="10" fill="#000000" />
<rect x="660" y="50" width="10" height="10" fill="#000000" />
<rect x="800" y="50" width="10" height="10" fill="#000000" />
<rect x="830" y="50" width="10" height="10" fill="#000000" />
<rect x="840" y="50" width="10" height="10" fill="#000000" />
<rect x="890" y="50" width="10" height="10" fill="#000000" />
<rect x="940" y="50" width="10" height="10" fill="#000000" />
<rect x="950" y="50" width="10" height="10" fill="#000000" />
<rect x="960" y="50" width="10" height="10" fill="#000000" />
<rect x="60" y="60" width="10" height="10" fill="#000000" />
<rect x="150" y="60" width="10" height="10" fill="#000000" />
<rect x="160" y="60" width="10" height="10" fill="#000000" />
<rect x="170" y="60" width="10" height="10" fill="#000000" />
<rect x="280" y="60" width="10" height="10" fill="#000000" />
<rect x="290" y="60" width="10" height="10" fill="#000000" />
<rect x="300" y="60" width="10" height="10" fill="#000000" />
<rect x="360" y="60" width="10" height="10" fill="#000000" />
<rect x="440" y="60" width="10" height="10" fill="#000000" />
<rect x="470" y="60" width="10" height="10" fill="#000000" />
<rect x="510" y="60" width="10" height="10" fill="#000000" />
<rect x="580" y="60" width="10" height="10" fill="#000000" />
<rect x="610" y="60" width="10" height="10" fill="#000000" />
<rect x="660" y="60" width="10" height="10" fill="#000000" />
<rect x="800" y="60" width="10" height="10" fill="#000000" />
<rect x="810" y="60" width="10" height="10" fill="#000000" />
<rect x="820" y="60" width="10" height="10" fill="#000000" />
<rect x="830" y="60" width="10" height="10" fill="#000000" />
<rect x="890" y="60" width="10" height="10" fill="#000000" />
<rect x="900" y="60" width="10" height="10" fill="#000000" />
<rect x="910" y="60" width="10" height="10" fill="#000000" />
<rect x="920" y="60" width="10" height="10" fill="#000000" />
<rect x="930" y="60" width="10" height="10" fill="#000000" />
<rect x="940" y="60" width="10" height="10" fill="#000000" />
<rect x="50" y="70" width="10" height="10" fill="#000000" />
<rect x="160" y="70" width="10" height="10" fill="#000000" />
<rect x="290" y="70" width="10" height="10" fill="#000000" />
<rect x="360" y="70" width="10" height="10" fill="#000000" />
<rect x="440" y="70" width="10" height="10" fill="#000000" />
<rect x="470" y="70" width="10" height="10" fill="#000000" />
<rect x="510" y="70" width="10" height="10" fill="#000000" />
<rect x="520" y="70" width="10" height="10" fill="#000000" />
<rect x="540" y="70" width="10" height="10" fill="#000000" />
<rect x="550" y="70" width="10" height="10" fill="#000000" />
<rect x="560" y="70" width="10" height="10" fill="#000000" />
<rect x="570" y="70" width="10" height="10" fill="#000000" />
<rect x="600" y="70" width="10" height="10" fill="#000000" />
<rect x="610" y="70" width="10" height="10" fill="#000000" />
<rect x="660" y="70" width="10" height="10" fill="#000000" />
<rect x="800" y="70" width="10" height="10" fill="#000000" />
<rect x="820" y="70" width="10" height="10" fill="#000000" />
<rect x="900" y="70" width="10" height="10" fill="#000000" />
<rect x="40" y="80" width="10" height="10" fill="#000000" />
<rect x="160" y="80" width="10" height="10" fill="#000000" />
<rect x="170" y="80" width="10" height="10" fill="#000000" />
<rect x="290" y="80" width="10" height="10" fill="#000000" />
<rect x="360" y="80" width="10" height="10" fill="#000000" />
<rect x="440" y="80" width="10" height="10" fill="#000000" />
<rect x="450" y="80" width="10" height="10" fill="#000000" />
<rect x="460" y="80" width="10" height="10" fill="#000000" />
<rect x="470" y="80" width="10" height="10" fill="#000000" />
<rect x="520" y="80" width="10" height="10" fill="#000000" />
<rect x="530" y="80" width="10" height="10" fill="#000000" />
<rect x="560" y="80" width="10" height="10" fill="#000000" />
<rect x="600" y="80" width="10" height="10" fill="#000000" />
<rect x="660" y="80" width="10" height="10" fill="#000000" />
<rect x="670" y="80" width="10" height="10" fill="#000000" />
<rect x="800" y="80" width="10" height="10" fill="#000000" />
<rect x="820" y="80" width="10" height="10" fill="#000000" />
<rect x="900" y="80" width="10" height="10" fill="#000000" />
<rect x="40" y="90" width="10" height="10" fill="#000000" />
<rect x="170" y="90" width="10" height="10" fill="#000000" />
<rect x="290" y="90" width="10" height="10" fill="#000000" />
<rect x="300" y="90" width="10" height="10" fill="#000000" />
<rect x="360" y="90" width="10" height="10" fill="#000000" />
<rect x="370" y="90" width="10" height="10" fill="#000000" />
<rect x="440" y="90" width="10" height="10" fill="#000000" />
<rect x="460" y="90" width="10" height="10" fill="#000000" />
<rect x="520" y="90" width="10" height="10" fill="#000000" />
<rect x="550" y="90" width="10" height="10" fill="#000000" />
<rect x="560" y="90" width="10" height="10" fill="#000000" />
<rect x="600" y="90" width="10" height="10" fill="#000000" />
<rect x="670" y="90" width="10" height="10" fill="#000000" />
<rect x="800" y="90" width="10" height="10" fill="#000000" />
<rect x="820" y="90" width="10" height="10" fill="#000000" />
<rect x="900" y="90" width="10" height="10" fill="#000000" />
<rect x="30" y="100" width="10" height="10" fill="#000000" />
<rect x="170" y="100" width="10" height="10" fill="#000000" />
<rect x="300" y="100" width="10" height="10" fill="#000000" />
<rect x="370" y="100" width="10" height="10" fill="#000000" />
<rect x="440" y="100" width="10" height="10" fill="#000000" />
<rect x="460" y="100" width="10" height="10" fill="#000000" />
<rect x="520" y="100" width="10" height="10" fill="#000000" />
<rect x="530" y="100" width="10" height="10" fill="#000000" />
<rect x="550" y="100" width="10" height="10" fill="#000000" />
<rect x="670" y="100" width="10" height="10" fill="#000000" />
<rect x="720" y="100" width="10" height="10" fill="#000000" />
<rect x="800" y="100" width="10" height="10" fill="#000000" />
<rect x="820" y="100" width="10" height="10" fill="#000000" />
<rect x="900" y="100" width="10" height="10" fill="#000000" />
<rect x="30" y="110" width="10" height="10" fill="#000000" />
<rect x="170" y="110" width="10" height="10" fill="#000000" />
<rect x="220" y="110" width="10" height="10" fill="#000000" />
<rect x="230" y="110" width="10" height="10" fill="#000000" />
<rect x="300" y="110" width="10" height="10" fill="#000000" />
<rect x="370" y="110" width="10" height="10" fill="#000000" />
<rect x="440" y="110" width="10" height="10" fill="#000000" />
<rect x="460" y="110" width="10" height="10" fill="#000000" />
<rect x="530" y="110" width="10" height="10" fill="#000000" />
<rect x="550" y="110" width="10" height="10" fill="#000000" />
<rect x="670" y="110" width="10" height="10" fill="#000000" />
<rect x="720" y="110" width="10" height="10" fill="#000000" />
<rect x="790" y="110" width="10" height="10" fill="#000000" />
<rect x="800" y="110" width="10" height="10" fill="#000000" />
<rect x="810" y="110" width="10" height="10" fill="#000000" />
<rect x="820" y="110" width="10" height="10" fill="#000000" />
<rect x="830" y="110" width="10" height="10" fill="#000000" />
<rect x="900" y="110" width="10" height="10" fill="#000000" />
<rect x="20" y="120" width="10" height="10" fill="#000000" />
<rect x="170" y="120" width="10" height="10" fill="#000000" />
<rect x="230" y="120" width="10" height="10" fill="#000000" />
<rect x="300" y="120" width="10" height="10" fill="#000000" />
<rect x="370" y="120" width="10" height="10" fill="#000000" />
<rect x="440" y="120" width="10" height="10" fill="#000000" />
<rect x="460" y="120" width="10" height="10" fill="#000000" />
<rect x="530" y="120" width="10" height="10" fill="#000000" />
<rect x="550" y="120" width="10" height="10" fill="#000000" />
<rect x="670" y="120" width="10" height="10" fill="#000000" />
<rect x="720" y="120" width="10" height="10" fill="#000000" />
<rect x="780" y="120" width="10" height="10" fill="#000000" />
<rect x="790" y="120" width="10" height="10" fill="#000000" />
<rect x="830" y="120" width="10" height="10" fill="#000000" />
<rect x="840" y="120" width="10" height="10" fill="#000000" />
<rect x="900" y="120" width="10" height="10" fill="#000000" />
<rect x="20" y="130" width="10" height="10" fill="#000000" />
<rect x="100" y="130" width="10" height="10" fill="#000000" />
<rect x="170" y="130" width="10" height="10" fill="#000000" />
<rect x="240" y="130" width="10" height="10" fill="#000000" />
<rect x="300" y="130" width="10" height="10" fill="#000000" />
<rect x="370" y="130" width="10" height="10" fill="#000000" />
<rect x="440" y="130" width="10" height="10" fill="#000000" />
<rect x="460" y="130" width="10" height="10" fill="#000000" />
<rect x="530" y="130" width="10" height="10" fill="#000000" />
<rect x="550" y="130" width="10" height="10" fill="#000000" />
<rect x="600" y="130" width="10" height="10" fill="#000000" />
<rect x="670" y="130" width="10" height="10" fill="#000000" />
<rect x="680" y="130" width="10" height="10" fill="#000000" />
<rect x="730" y="130" width="10" height="10" fill="#000000" />
<rect x="740" y="130" width="10" height="10" fill="#000000" />
<rect x="770" y="130" width="10" height="10" fill="#000000" />
<rect x="780" y="130" width="10" height="10" fill="#000000" />
<rect x="840" y="130" width="10" height="10" fill="#000000" />
<rect x="910" y="130" width="10" height="10" fill="#000000" />
<rect x="20" y="140" width="10" height="10" fill="#000000" />
<rect x="100" y="140" width="10" height="10" fill="#000000" />
<rect x="160" y="140" width="10" height="10" fill="#000000" />
<rect x="170" y="140" width="10" height="10" fill="#000000" />
<rect x="180" y="140" width="10" height="10" fill="#000000" />
<rect x="240" y="140" width="10" height="10" fill="#000000" />
<rect x="300" y="140" width="10" height="10" fill="#000000" />
<rect x="440" y="140" width="10" height="10" fill="#000000" />
<rect x="460" y="140" width="10" height="10" fill="#000000" />
<rect x="530" y="140" width="10" height="10" fill="#000000" />
<rect x="550" y="140" width="10" height="10" fill="#000000" />
<rect x="600" y="140" width="10" height="10" fill="#000000" />
<rect x="610" y="140" width="10" height="10" fill="#000000" />
<rect x="680" y="140" width="10" height="10" fill="#000000" />
<rect x="740" y="140" width="10" height="10" fill="#000000" />
<rect x="750" y="140" width="10" height="10" fill="#000000" />
<rect x="760" y="140" width="10" height="10" fill="#000000" />
<rect x="770" y="140" width="10" height="10" fill="#000000" />
<rect x="840" y="140" width="10" height="10" fill="#000000" />
<rect x="910" y="140" width="10" height="10" fill="#000000" />
<rect x="20" y="150" width="10" height="10" fill="#000000" />
<rect x="100" y="150" width="10" height="10" fill="#000000" />
<rect x="110" y="150" width="10" height="10" fill="#000000" />
<rect x="150" y="150" width="10" height="10" fill="#000000" />
<rect x="160" y="150" width="10" height="10" fill="#000000" />
<rect x="190" y="150" width="10" height="10" fill="#000000" />
<rect x="240" y="150" width="10" height="10" fill="#000000" />
<rect x="300" y="150" width="10" height="10" fill="#000000" />
<rect x="440" y="150" width="10" height="10" fill="#000000" />
<rect x="460" y="150" width="10" height="10" fill="#000000" />
<rect x="530" y="150" width="10" height="10" fill="#000000" />
<rect x="550" y="150" width="10" height="10" fill="#000000" />
<rect x="610" y="150" width="10" height="10" fill="#000000" />
<rect x="680" y="150" width="10" height="10" fill="#000000" />
<rect x="840" y="150" width="10" height="10" fill="#000000" />
<rect x="910" y="150" width="10" height="10" fill="#000000" />
<rect x="20" y="160" width="10" height="10" fill="#000000" />
<rect x="110" y="160" width="10" height="10" fill="#000000" />
<rect x="120" y="160" width="10" height="10" fill="#000000" />
<rect x="130" y="160" width="10" height="10" fill="#000000" />
<rect x="140" y="160" width="10" height="10" fill="#000000" />
<rect x="150" y="160" width="10" height="10" fill="#000000" />
<rect x="200" y="160" width="10" height="10" fill="#000000" />
<rect x="240" y="160" width="10" height="10" fill="#000000" />
<rect x="300" y="160" width="10" height="10" fill="#000000" />
<rect x="440" y="160" width="10" height="10" fill="#000000" />
<rect x="460" y="160" width="10" height="10" fill="#000000" />
<rect x="540" y="160" width="10" height="10" fill="#000000" />
<rect x="610" y="160" width="10" height="10" fill="#000000" />
<rect x="680" y="160" width="10" height="10" fill="#000000" />
<rect x="840" y="160" width="10" height="10" fill="#000000" />
<rect x="910" y="160" width="10" height="10" fill="#000000" />
<rect x="20" y="170" width="10" height="10" fill="#000000" />
<rect x="200" y="170" width="10" height="10" fill="#000000" />
<rect x="240" y="170" width="10" height="10" fill="#000000" />
<rect x="300" y="170" width="10" height="10" fill="#000000" />
<rect x="330" y="170" width="10" height="10" fill="#000000" />
<rect x="440" y="170" width="10" height="10" fill="#000000" />
<rect x="460" y="170" width="10" height="10" fill="#000000" />
<rect x="540" y="170" width="10" height="10" fill="#000000" />
<rect x="610" y="170" width="10" height="10" fill="#000000" />
<rect x="670" y="170" width="10" height="10" fill="#000000" />
<rect x="680" y="170" width="10" height="10" fill="#000000" />
<rect x="840" y="170" width="10" height="10" fill="#000000" />
<rect x="910" y="170" width="10" height="10" fill="#000000" />
<rect x="20" y="180" width="10" height="10" fill="#000000" />
<rect x="30" y="180" width="10" height="10" fill="#000000" />
<rect x="200" y="180" width="10" height="10" fill="#000000" />
<rect x="290" y="180" width="10" height="10" fill="#000000" />
<rect x="300" y="180" width="10" height="10" fill="#000000" />
<rect x="340" y="180" width="10" height="10" fill="#000000" />
<rect x="440" y="180" width="10" height="10" fill="#000000" />
<rect x="460" y="180" width="10" height="10" fill="#000000" />
<rect x="550" y="180" width="10" height="10" fill="#000000" />
<rect x="610" y="180" width="10" height="10" fill="#000000" />
<rect x="670" y="180" width="10" height="10" fill="#000000" />
<rect x="830" y="180" width="10" height="10" fill="#000000" />
<rect x="840" y="180" width="10" height="10" fill="#000000" />
<rect x="900" y="180" width="10" height="10" fill="#000000" />
<rect x="910" y="180" width="10" height="10" fill="#000000" />
<rect x="30" y="190" width="10" height="10" fill="#000000" />
<rect x="200" y="190" width="10" height="10" fill="#000000" />
<rect x="290" y="190" width="10" height="10" fill="#000000" />
<rect x="340" y="190" width="10" height="10" fill="#000000" />
<rect x="440" y="190" width="10" height="10" fill="#000000" />
<rect x="460" y="190" width="10" height="10" fill="#000000" />
<rect x="550" y="190" width="10" height="10" fill="#000000" />
<rect x="610" y="190" width="10" height="10" fill="#000000" />
<rect x="670" y="190" width="10" height="10" fill="#000000" />
<rect x="830" y="190" width="10" height="10" fill="#000000" />
<rect x="900" y="190" width="10" height="10" fill="#000000" />
<rect x="30" y="200" width="10" height="10" fill="#000000" />
<rect x="40" y="200" width="10" height="10" fill="#000000" />
<rect x="190" y="200" width="10" height="10" fill="#000000" />
<rect x="290" y="200" width="10" height="10" fill="#000000" />
<rect x="350" y="200" width="10" height="10" fill="#000000" />
<rect x="430" y="200" width="10" height="10" fill="#000000" />
<rect x="440" y="200" width="10" height="10" fill="#000000" />
<rect x="460" y="200" width="10" height="10" fill="#000000" />
<rect x="470" y="200" width="10" height="10" fill="#000000" />
<rect x="550" y="200" width="10" height="10" fill="#000000" />
<rect x="610" y="200" width="10" height="10" fill="#000000" />
<rect x="670" y="200" width="10" height="10" fill="#000000" />
<rect x="820" y="200" width="10" height="10" fill="#000000" />
<rect x="830" y="200" width="10" height="10" fill="#000000" />
<rect x="900" y="200" width="10" height="10" fill="#000000" />
<rect x="40" y="210" width="10" height="10" fill="#000000" />
<rect x="50" y="210" width="10" height="10" fill="#000000" />
<rect x="180" y="210" width="10" height="10" fill="#000000" />
<rect x="190" y="210" width="10" height="10" fill="#000000" />
<rect x="280" y="210" width="10" height="10" fill="#000000" />
<rect x="290" y="210" width="10" height="10" fill="#000000" />
<rect x="360" y="210" width="10" height="10" fill="#000000" />
<rect x="430" y="210" width="10" height="10" fill="#000000" />
<rect x="470" y="210" width="10" height="10" fill="#000000" />
<rect x="550" y="210" width="10" height="10" fill="#000000" />
<rect x="610" y="210" width="10" height="10" fill="#000000" />
<rect x="670" y="210" width="10" height="10" fill="#000000" />
<rect x="680" y="210" width="10" height="10" fill="#000000" />
<rect x="690" y="210" width="10" height="10" fill="#000000" />
<rect x="800" y="210" width="10" height="10" fill="#000000" />
<rect x="810" y="210" width="10" height="10" fill="#000000" />
<rect x="820" y="210" width="10" height="10" fill="#000000" />
<rect x="890" y="210" width="10" height="10" fill="#000000" />
<rect x="50" y="220" width="10" height="10" fill="#000000" />
<rect x="60" y="220" width="10" height="10" fill="#000000" />
<rect x="170" y="220" width="10" height="10" fill="#000000" />
<rect x="180" y="220" width="10" height="10" fill="#000000" />
<rect x="280" y="220" width="10" height="10" fill="#000000" />
<rect x="290" y="220" width="10" height="10" fill="#000000" />
<rect x="300" y="220" width="10" height="10" fill="#000000" />
<rect x="350" y="220" width="10" height="10" fill="#000000" />
<rect x="360" y="220" width="10" height="10" fill="#000000" />
<rect x="420" y="220" width="10" height="10" fill="#000000" />
<rect x="430" y="220" width="10" height="10" fill="#000000" />
<rect x="470" y="220" width="10" height="10" fill="#000000" />
<rect x="480" y="220" width="10" height="10" fill="#000000" />
<rect x="550" y="220" width="10" height="10" fill="#000000" />
<rect x="610" y="220" width="10" height="10" fill="#000000" />
<rect x="670" y="220" width="10" height="10" fill="#000000" />
<rect x="690" y="220" width="10" height="10" fill="#000000" />
<rect x="700" y="220" width="10" height="10" fill="#000000" />
<rect x="710" y="220" width="10" height="10" fill="#000000" />
<rect x="780" y="220" width="10" height="10" fill="#000000" />
<rect x="790" y="220" width="10" height="10" fill="#000000" />
<rect x="800" y="220" width="10" height="10" fill="#000000" />
<rect x="820" y="220" width="10" height="10" fill="#000000" />
<rect x="890" y="220" width="10" height="10" fill="#000000" />
<rect x="60" y="230" width="10" height="10" fill="#000000" />
<rect x="70" y="230" width="10" height="10" fill="#000000" />
<rect x="80" y="230" width="10" height="10" fill="#000000" />
<rect x="150" y="230" width="10" height="10" fill="#000000" />
<rect x="160" y="230" width="10" height="10" fill="#000000" />
<rect x="180" y="230" width="10" height="10" fill="#000000" />
<rect x="190" y="230" width="10" height="10" fill="#000000" />
<rect x="270" y="230" width="10" height="10" fill="#000000" />
<rect x="280" y="230" width="10" height="10" fill="#000000" />
<rect x="300" y="230" width="10" height="10" fill="#000000" />
<rect x="310" y="230" width="10" height="10" fill="#000000" />
<rect x="340" y="230" width="10" height="10" fill="#000000" />
<rect x="350" y="230" width="10" height="10" fill="#000000" />
<rect x="370" y="230" width="10" height="10" fill="#000000" />
<rect x="410" y="230" width="10" height="10" fill="#000000" />
<rect x="480" y="230" width="10" height="10" fill="#000000" />
<rect x="550" y="230" width="10" height="10" fill="#000000" />
<rect x="600" y="230" width="10" height="10" fill="#000000" />
<rect x="620" y="230" width="10" height="10" fill="#000000" />
<rect x="660" y="230" width="10" height="10" fill="#000000" />
<rect x="710" y="230" width="10" height="10" fill="#000000" />
<rect x="720" y="230" width="10" height="10" fill="#000000" />
<rect x="730" y="230" width="10" height="10" fill="#000000" />
<rect x="740" y="230" width="10" height="10" fill="#000000" />
<rect x="750" y="230" width="10" height="10" fill="#000000" />
<rect x="760" y="230" width="10" height="10" fill="#000000" />
<rect x="770" y="230" width="10" height="10" fill="#000000" />
<rect x="830" y="230" width="10" height="10" fill="#000000" />
<rect x="840" y="230" width="10" height="10" fill="#000000" />
<rect x="870" y="230" width="10" height="10" fill="#000000" />
<rect x="880" y="230" width="10" height="10" fill="#000000" />
<rect x="80" y="240" width="10" height="10" fill="#000000" />
<rect x="90" y="240" width="10" height="10" fill="#000000" />
<rect x="100" y="240" width="10" height="10" fill="#000000" />
<rect x="130" y="240" width="10" height="10" fill="#000000" />
<rect x="140" y="240" width="10" height="10" fill="#000000" />
<rect x="200" y="240" width="10" height="10" fill="#000000" />
<rect x="210" y="240" width="10" height="10" fill="#000000" />
<rect x="220" y="240" width="10" height="10" fill="#000000" />
<rect x="230" y="240" width="10" height="10" fill="#000000" />
<rect x="240" y="240" width="10" height="10" fill="#000000" />
<rect x="250" y="240" width="10" height="10" fill="#000000" />
<rect x="260" y="240" width="10" height="10" fill="#000000" />
<rect x="270" y="240" width="10" height="10" fill="#000000" />
<rect x="310" y="240" width="10" height="10" fill="#000000" />
<rect x="320" y="240" width="10" height="10" fill="#000000" />
<rect x="330" y="240" width="10" height="10" fill="#000000" />
<rect x="340" y="240" width="10" height="10" fill="#000000" />
<rect x="380" y="240" width="10" height="10" fill="#000000" />
<rect x="390" y="240" width="10" height="10" fill="#000000" />
<rect x="400" y="240" width="10" height="10" fill="#000000" />
<rect x="410" y="240" width="10" height="10" fill="#000000" />
<rect x="480" y="240" width="10" height="10" fill="#000000" />
<rect x="490" y="240" width="10" height="10" fill="#000000" />
<rect x="540" y="240" width="10" height="10" fill="#000000" />
<rect x="550" y="240" width="10" height="10" fill="#000000" />
<rect x="560" y="240" width="10" height="10" fill="#000000" />
<rect x="570" y="240" width="10" height="10" fill="#000000" />
<rect x="580" y="240" width="10" height="10" fill="#000000" />
<rect x="590" y="240" width="10" height="10" fill="#000000" />
<rect x="630" y="240" width="10" height="10" fill="#000000" />
<rect x="640" y="240" width="10" height="10" fill="#000000" />
<rect x="650" y="240" width="10" height="10" fill="#000000" />
<rect x="850" y="240" width="10" height="10" fill="#000000" />
<rect x="860" y="240" width="10" height="10" fill="#000000" />
<rect x="100" y="250" width="10" height="10" fill="#000000" />
<rect x="110" y="250" width="10" height="10" fill="#000000" />
<rect x="120" y="250" width="10" height="10" fill="#000000" />
<rect x="490" y="250" width="10" height="10" fill="#000000" />
<rect x="500" y="250" width="10" height="10" fill="#000000" />
<rect x="510" y="250" width="10" height="10" fill="#000000" />
<rect x="520" y="250" width="10" height="10" fill="#000000" />
<rect x="530" y="250" width="10" height="10" fill="#000000" />
<rect x="890" y="260" width="10" height="10" fill="#000000" />
<rect x="900" y="260" width="10" height="10" fill="#000000" />
<rect x="910" y="260" width="10" height="10" fill="#000000" />
<rect x="920" y="260" width="10" height="10" fill="#000000" />
<rect x="930" y="260" width="10" height="10" fill="#000000" />
<rect x="940" y="260" width="10" height="10" fill="#000000" />
<rect x="950" y="260" width="10" height="10" fill="#000000" />
<rect x="960" y="260" width="10" height="10" fill="#000000" />
<rect x="30" y="270" width="10" height="10" fill="#000000" />
<rect x="40" y="270" width="10" height="10" fill="#000000" />
<rect x="50" y="270" width="10" height="10" fill="#000000" />
<rect x="60" y="270" width="10" height="10" fill="#000000" />
<rect x="70" y="270" width="10" height="10" fill="#000000" />
<rect x="80" y="270" width="10" height="10" fill="#000000" />
<rect x="90" y="270" width="10" height="10" fill="#000000" />
<rect x="100" y="270" width="10" height="10" fill="#000000" />
<rect x="750" y="270" width="10" height="10" fill="#000000" />
<rect x="760" y="270" width="10" height="10" fill="#000000" />
<rect x="770" y="270" width="10" height="10" fill="#000000" />
<rect x="780" y="270" width="10" height="10" fill="#000000" />
<rect x="790" y="270" width="10" height="10" fill="#000000" />
<rect x="800" y="270" width="10" height="10" fill="#000000" />
<rect x="810" y="270" width="10" height="10" fill="#000000" />
<rect x="820" y="270" width="10" height="10" fill="#000000" />
<rect x="830" y="270" width="10" height="10" fill="#000000" />
<rect x="840" y="270" width="10" height="10" fill="#000000" />
<rect x="850" y="270" width="10" height="10" fill="#000000" />
<rect x="860" y="270" width="10" height="10" fill="#000000" />
<rect x="870" y="270" width="10" height="10" fill="#000000" />
<rect x="880" y="270" width="10" height="10" fill="#000000" />
<rect x="110" y="280" width="10" height="10" fill="#000000" />
<rect x="120" y="280" width="10" height="10" fill="#000000" />
<rect x="130" y="280" width="10" height="10" fill="#000000" />
<rect x="140" y="280" width="10" height="10" fill="#000000" />
<rect x="150" y="280" width="10" height="10" fill="#000000" />
<rect x="160" y="280" width="10" height="10" fill="#000000" />
<rect x="170" y="280" width="10" height="10" fill="#000000" />
<rect x="180" y="280" width="10" height="10" fill="#000000" />
<rect x="190" y="280" width="10" height="10" fill="#000000" />
<rect x="200" y="280" width="10" height="10" fill="#000000" />
<rect x="210" y="280" width="10" height="10" fill="#000000" />
<rect x="220" y="280" width="10" height="10" fill="#000000" />
<rect x="230" y="280" width="10" height="10" fill="#000000" />
<rect x="240" y="280" width="10" height="10" fill="#000000" />
<rect x="250" y="280" width="10" height="10" fill="#000000" />
<rect x="260" y="280" width="10" height="10" fill="#000000" />
<rect x="270" y="280" width="10" height="10" fill="#000000" />
<rect x="280" y="280" width="10" height="10" fill="#000000" />
<rect x="290" y="280" width="10" height="10" fill="#000000" />
<rect x="300" y="280" width="10" height="10" fill="#000000" />
<rect x="310" y="280" width="10" height="10" fill="#000000" />
<rect x="320" y="280" width="10" height="10" fill="#000000" />
<rect x="330" y="280" width="10" height="10" fill="#000000" />
<rect x="340" y="280" width="10" height="10" fill="#000000" />
<rect x="350" y="280" width="10" height="10" fill="#000000" />
<rect x="360" y="280" width="10" height="10" fill="#000000" />
<rect x="370" y="280" width="10" height="10" fill="#000000" />
<rect x="380" y="280" width="10" height="10" fill="#000000" />
<rect x="390" y="280" width="10" height="10" fill="#000000" />
<rect x="400" y="280" width="10" height="10" fill="#000000" />
<rect x="410" y="280" width="10" height="10" fill="#000000" />
<rect x="420" y="280" width="10" height="10" fill="#000000" />
<rect x="430" y="280" width="10" height="10" fill="#000000" />
<rect x="440" y="280" width="10" height="10" fill="#000000" />
<rect x="590" y="280" width="10" height="10" fill="#000000" />
<rect x="600" y="280" width="10" height="10" fill="#000000" />
<rect x="610" y="280" width="10" height="10" fill="#000000" />
<rect x="620" y="280" width="10" height="10" fill="#000000" />
<rect x="630" y="280" width="10" height="10" fill="#000000" />
<rect x="640" y="280" width="10" height="10" fill="#000000" />
<rect x="650" y="280" width="10" height="10" fill="#000000" />
<rect x="660" y="280" width="10" height="10" fill="#000000" />
<rect x="670" y="280" width="10" height="10" fill="#000000" />
<rect x="680" y="280" width="10" height="10" fill="#000000" />
<rect x="690" y="280" width="10" height="10" fill="#000000" />
<rect x="700" y="280" width="10" height="10" fill="#000000" />
<rect x="710" y="280" width="10" height="10" fill="#000000" />
<rect x="720" y="280" width="10" height="10" fill="#000000" />
<rect x="730" y="280" width="10" height="10" fill="#000000" />
<rect x="740" y="280" width="10" height="10" fill="#000000" />
<rect x="450" y="290" width="10" height="10" fill="#000000" />
<rect x="460" y="290" width="10" height="10" fill="#000000" />
<rect x="470" y="290" width="10" height="10" fill="#000000" />
<rect x="480" y="290" width="10" height="10" fill="#000000" />
<rect x="490" y="290" width="10" height="10" fill="#000000" />
<rect x="500" y="290" width="10" height="10" fill="#000000" />
<rect x="510" y="290" width="10" height="10" fill="#000000" />
<rect x="520" y="290" width="10" height="10" fill="#000000" />
<rect x="530" y="290" width="10" height="10" fill="#000000" />
<rect x="540" y="290" width="10" height="10" fill="#000000" />
<rect x="550" y="290" width="10" height="10" fill="#000000" />
<rect x="560" y="290" width="10" height="10" fill="#000000" />
<rect x="570" y="290" width="10" height="10" fill="#000000" />
<rect x="580" y="290" width="10" height="10" fill="#000000" />
</svg>