<?xml version="1.0" encoding="UTF-8" ?>
<svg version="1.1" width="1000" height="300" xmlns="http://www.w3.org/2000/svg" shape-rendering="crispEdges">
<rect x="590" y="30" width="10" height="10" fill="#000000" />
<rect x="600" y="30" width="10" height="10" fill="#000000" />
<rect x="610" y="30" width="10" height="10" fill="#000000" />
<rect x="620" y="30" width="10" height="10" fill="#000000" />
<rect x="780" y="30" width="10" height="10" fill="#000000" />
<rect x="790" y="30" width="10" height="10" fill="#000000" />
<rect x="800" y="30" width="10" height="10" fill="#000000" />
<rect x="810" y="30" width="10" height="10" fill="#000000" />
<rect x="820" y="30" width="10" height="10" fill="#000000" />
<rect x="830" y="30" width="10" height="10" fill="#000000" />
<rect x="840" y="30" width="10" height="10" fill="#000000" />
<rect x="850" y="30" width="10" height="10" fill="#000000" />
<rect x="860" y="30" width="10" height="10" fill="#000000" />
<rect x="870" y="30" width="10" height="10" fill="#000000" />
<rect x="880" y="30" width="10" height="10" fill="#000000" />
<rect x="890" y="30" width="10" height="10" fill="#000000" />
<rect x="900" y="30" width="10" height="10" fill="#000000" />
<rect x="910" y="30" width="10" height="10" fill="#000000" />
<rect x="920" y="30" width="10" height="10" fill="#000000" />
<rect x="930" y="30" width="10" height="10" fill="#000000" />
<rect x="430" y="40" width="10" height="10" fill="#000000" />
<rect x="440" y="40" width="10" height="10" fill="#000000" />
<rect x="450" y="40" width="10" height="10" fill="#000000" />
<rect x="460" y="40" width="10" height="10" fill="#000000" />
<rect x="470" y="40" width="10" height="10" fill="#000000" />
<rect x="480" y="40" width="10" height="10" fill="#000000" />
<rect x="490" y="40" width="10" height="10" fill="#000000" />
<rect x="500" y="40" width="10" height="10" fill="#000000" />
<rect x="510" y="40" width="10" height="10" fill="#000000" />
<rect x="520" y="40" width="10" height="10" fill="#000000" />
<rect x="530" y="40" width="10" height="10" fill="#000000" />
<rect x="540" y="40" width="10" height="10" fill="#000000" />
<rect x="580" y="40" width="10" height="10" fill="#000000" />
<rect x="590" y="40" width="10" height="10" fill="#000000" />
<rect x="620" y="40" width="10" height="10" fill="#000000" />
<rect x="630" y="40" width="10" height="10" fill="#000000" />
<rect x="690" y="40" width="10" height="10" fill="#000000" />
<rect x="700" y="40" width="10" height="10" fill="#000000" />
<rect x="710" y="40" width="10" height="10" fill="#000000" />
<rect x="720" y="40" width="10" height="10" fill="#000000" />
<rect x="730" y="40" width="10" height="10" fill="#000000" />
<rect x="740" y="40" width="10" height="10" fill="#000000" />
<rect x="750" y="40" width="10" height="10" fill="#000000" />
<rect x="760" y="40" width="10" height="10" fill="#000000" />
<rect x="770" y="40" width="10" height="10" fill="#000000" />
<rect x="780" y="40" width="10" height="10" fill="#000000" />
<rect x="940" y="40" width="10" height="10" fill="#000000" />
<rect x="950" y="40" width="10" height="10" fill="#000000" />
<rect x="380" y="50" width="10" height="10" fill="#000000" />
<rect x="390" y="50" width="10" height="10" fill="#000000" />
<rect x="400" y="50" width="10" height="10" fill="#000000" />
<rect x="410" y="50" width="10" height="10" fill="#000000" />
<rect x="420" y="50" width="10" height="10" fill="#000000" />
<rect x="550" y="50" width="10" height="10" fill="#000000" />
<rect x="560" y="50" width="10" height="10" fill="#000000" />
<rect x="580" y="50" width="10" height="10" fill="#000000" />
<rect x="630" y="50" width="10" height="10" fill="#000000" />
<rect x="640" y="50" width="10" height="10" fill="#000000" />
<rect x="670" y="50" width="10" height="10" fill="#000000" />
<rect x="680" y="50" width="10" height="10" fill="#000000" />
<rect x="690" y="50" width="10" height="10" fill="#000000" />
<rect x="770" y="50" width="10" height="10" fill="#000000" />
<rect x="950" y="50" width="10" height="10" fill="#000000" />
<rect x="960" y="50" width="10" height="10" fill="#000000" />
<rect x="310" y="60" width="10" height="10" fill="#000000" />
<rect x="320" y="60" width="10" height="10" fill="#000000" />
<rect x="330" y="60" width="10" height="10" fill="#000000" />
<rect x="340" y="60" width="10" height="10" fill="#000000" />
<rect x="370" y="60" width="10" height="10" fill="#000000" />
<rect x="420" y="60" width="10" height="10" fill="#000000" />
<rect x="570" y="60" width="10" height="10" fill="#000000" />
<rect x="640" y="60" width="10" height="10" fill="#000000" />
<rect x="660" y="60" width="10" height="10" fill="#000000" />
<rect x="670" y="60" width="10" height="10" fill="#000000" />
<rect x="780" y="60" width="10" height="10" fill="#000000" />
<rect x="790" y="60" width="10" height="10" fill="#000000" />
<rect x="850" y="60" width="10" height="10" fill="#000000" />
<rect x="880" y="60" width="10" height="10" fill="#000000" />
<rect x="960" y="60" width="10" height="10" fill="#000000" />
<rect x="80" y="70" width="10" height="10" fill="#000000" />
<rect x="90" y="70" width="10" height="10" fill="#000000" />
<rect x="100" y="70" width="10" height="10" fill="#000000" />
<rect x="110" y="70" width="10" height="10" fill="#000000" />
<rect x="120" y="70" width="10" height="10" fill="#000000" />
<rect x="130" y="70" width="10" height="10" fill="#000000" />
<rect x="140" y="70" width="10" height="10" fill="#000000" />
<rect x="190" y="70" width="10" height="10" fill="#000000" />
<rect x="200" y="70" width="10" height="10" fill="#000000" />
<rect x="210" y="70" width="10" height="10" fill="#000000" />
<rect x="220" y="70" width="10" height="10" fill="#000000" />
<rect x="230" y="70" width="10" height="10" fill="#000000" />
<rect x="240" y="70" width="10" height="10" fill="#000000" />
<rect x="250" y="70" width="10" height="10" fill="#000000" />
<rect x="260" y="70" width="10" height="10" fill="#000000" />
<rect x="270" y="70" width="10" height="10" fill="#000000" />
<rect x="300" y="70" width="10" height="10" fill="#000000" />
<rect x="310" y="70" width="10" height="10" fill="#000000" />
<rect x="340" y="70" width="10" height="10" fill="#000000" />
<rect x="350" y="70" width="10" height="10" fill="#000000" />
<rect x="370" y="70" width="10" height="10" fill="#000000" />
<rect x="430" y="70" width="10" height="10" fill="#000000" />
<rect x="580" y="70" width="10" height="10" fill="#000000" />
<rect x="640" y="70" width="10" height="10" fill="#000000" />
<rect x="650" y="70" width="10" height="10" fill="#000000" />
<rect x="660" y="70" width="10" height="10" fill="#000000" />
<rect x="790" y="70" width="10" height="10" fill="#000000" />
<rect x="800" y="70" width="10" height="10" fill="#000000" />
<rect x="840" y="70" width="10" height="10" fill="#000000" />
<rect x="890" y="70" width="10" height="10" fill="#000000" />
<rect x="960" y="70" width="10" height="10" fill="#000000" />
<rect x="70" y="80" width="10" height="10" fill="#000000" />
<rect x="80" y="80" width="10" height="10" fill="#000000" />
<rect x="140" y="80" width="10" height="10" fill="#000000" />
<rect x="150" y="80" width="10" height="10" fill="#000000" />
<rect x="170" y="80" width="10" height="10" fill="#000000" />
<rect x="180" y="80" width="10" height="10" fill="#000000" />
<rect x="190" y="80" width="10" height="10" fill="#000000" />
<rect x="270" y="80" width="10" height="10" fill="#000000" />
<rect x="280" y="80" width="10" height="10" fill="#000000" />
<rect x="300" y="80" width="10" height="10" fill="#000000" />
<rect x="350" y="80" width="10" height="10" fill="#000000" />
<rect x="360" y="80" width="10" height="10" fill="#000000" />
<rect x="370" y="80" width="10" height="10" fill="#000000" />
<rect x="440" y="80" width="10" height="10" fill="#000000" />
<rect x="580" y="80" width="10" height="10" fill="#000000" />
<rect x="610" y="80" width="10" height="10" fill="#000000" />
<rect x="650" y="80" width="10" height="10" fill="#000000" />
<rect x="660" y="80" width="10" height="10" fill="#000000" />
<rect x="800" y="80" width="10" height="10" fill="#000000" />
<rect x="830" y="80" width="10" height="10" fill="#000000" />
<rect x="840" y="80" width="10" height="10" fill="#000000" />
<rect x="890" y="80" width="10" height="10" fill="#000000" />
<rect x="940" y="80" width="10" height="10" fill="#000000" />
<rect x="950" y="80" width="10" height="10" fill="#000000" />
<rect x="960" y="80" width="10" height="10" fill="#000000" />
<rect x="60" y="90" width="10" height="10" fill="#000000" />
<rect x="150" y="90" width="10" height="10" fill="#000000" />
<rect x="160" y="90" width="10" height="10" fill="#000000" />
<rect x="170" y="90" width="10" height="10" fill="#000000" />
<rect x="280" y="90" width="10" height="10" fill="#000000" />
<rect x="290" y="90" width="10" height="10" fill="#000000" />
<rect x="300" y="90" width="10" height="10" fill="#000000" />
<rect x="360" y="90" width="10" height="10" fill="#000000" />
<rect x="440" y="90" width="10" height="10" fill="#000000" />
<rect x="470" y="90" width="10" height="10" fill="#000000" />
<rect x="510" y="90" width="10" height="10" fill="#000000" />
<rect x="580" y="90" width="10" height="10" fill="#000000" />
<rect x="610" y="90" width="10" height="10" fill="#000000" />
<rect x="660" y="90" width="10" height="10" fill="#000000" />
<rect x="800" y="90" width="10" height="10" fill="#000000" />
<rect x="810" y="90" width="10" height="10" fill="#000000" />
<rect x="820" y="90" width="10" height="10" fill="#000000" />
<rect x="830" y="90" width="10" height="10" fill="#000000" />
<rect x="890" y="90" width="10" height="10" fill="#000000" />
<rect x="900" y="90" width="10" height="10" fill="#000000" />
<rect x="910" y="90" width="10" height="10" fill="#000000" />
<rect x="920" y="90" width="10" height="10" fill="#000000" />
<rect x="930" y="90" width="10" height="10" fill="#000000" />
<rect x="940" y="90" width="10" height="10" fill="#000000" />
<rect x="50" y="100" width="10" height="10" fill="#000000" />
<rect x="160" y="100" width="10" height="10" fill="#000000" />
<rect x="290" y="100" width="10" height="10" fill="#000000" />
<rect x="360" y="100" width="10" height="10" fill="#000000" />
<rect x="440" y="100" width="10" height="10" fill="#000000" />
<rect x="470" y="100" width="10" height="10" fill="#000000" />
<rect x="510" y="100" width="10" height="10" fill="#000000" />
<rect x="520" y="100" width="10" height="10" fill="#000000" />
<rect x="540" y="100" width="10" height="10" fill="#000000" />
<rect x="550" y="100" width="10" height="10" fill="#000000" />
<rect x="560" y="100" width="10" height="10" fill="#000000" />
<rect x="570" y="100" width="10" height="10" fill="#000000" />
<rect x="600" y="100" width="10" height="10" fill="#000000" />
<rect x="610" y="100" width="10" height="10" fill="#000000" />
<rect x="660" y="100" width="10" height="10" fill="#000000" />
<rect x="800" y="100" width="10" height="10" fill="#000000" />
<rect x="820" y="100" width="10" height="10" fill="#000000" />
<rect x="900" y="100" width="10" height="10" fill="#000000" />
<rect x="40" y="110" width="10" height="10" fill="#000000" />
<rect x="160" y="110" width="10" height="10" fill="#000000" />
<rect x="170" y="110" width="10" height="10" fill="#000000" />
<rect x="290" y="110" width="10" height="10" fill="#000000" />
<rect x="360" y="110" width="10" height="10" fill="#000000" />
<rect x="440" y="110" width="10" height="10" fill="#000000" />
<rect x="450" y="110" width="10" height="10" fill="#000000" />
<rect x="460" y="110" width="10" height="10" fill="#000000" />
<rect x="470" y="110" width="10" height="10" fill="#000000" />
<rect x="520" y="110" width="10" height="10" fill="#000000" />
<rect x="530" y="110" width="10" height="10" fill="#000000" />
<rect x="560" y="110" width="10" height="10" fill="#000000" />
<rect x="600" y="110" width="10" height="10" fill="#000000" />
<rect x="660" y="110" width="10" height="10" fill="#000000" />
<rect x="670" y="110" width="10" height="10" fill="#000000" />
<rect x="800" y="110" width="10" height="10" fill="#000000" />
<rect x="820" y="110" width="10" height="10" fill="#000000" />
<rect x="900" y="110" width="10" height="10" fill="#000000" />
<rect x="40" y="120" width="10" height="10" fill="#000000" />
<rect x="170" y="120" width="10" height="10" fill="#000000" />
<rect x="290" y="120" width="10" height="10" fill="#000000" />
<rect x="300" y="120" width="10" height="10" fill="#000000" />
<rect x="360" y="120" width="10" height="10" fill="#000000" />
<rect x="370" y="120" width="10" height="10" fill="#000000" />
<rect x="440" y="120" width="10" height="10" fill="#000000" />
<rect x="460" y="120" width="10" height="10" fill="#000000" />
<rect x="520" y="120" width="10" height="10" fill="#000000" />
<rect x="550" y="120" width="10" height="10" fill="#000000" />
<rect x="560" y="120" width="10" height="10" fill="#000000" />
<rect x="600" y="120" width="10" height="10" fill="#000000" />
<rect x="670" y="120" width="10" height="10" fill="#000000" />
<rect x="800" y="120" width="10" height="10" fill="#000000" />
<rect x="820" y="120" width="10" height="10" fill="#000000" />
<rect x="900" y="120" width="10" height="10" fill="#000000" />
<rect x="30" y="130" width="10" height="10" fill="#000000" />
<rect x="170" y="130" width="10" height="10" fill="#000000" />
<rect x="300" y="130" width="10" height="10" fill="#000000" />
<rect x="370" y="130" width="10" height="10" fill="#000000" />
<rect x="440" y="130" width="10" height="10" fill="#000000" />
<rect x="460" y="130" width="10" height="10" fill="#000000" />
<rect x="520" y="130" width="10" height="10" fill="#000000" />
<rect x="530" y="130" width="10" height="10" fill="#000000" />
<rect x="550" y="130" width="10" height="10" fill="#000000" />
<rect x="670" y="130" width="10" height="10" fill="#000000" />
<rect x="720" y="130" width="10" height="10" fill="#000000" />
<rect x="800" y="130" width="10" height="10" fill="#000000" />
<rect x="820" y="130" width="10" height="10" fill="#000000" />
<rect x="900" y="130" width="10" height="10" fill="#000000" />
<rect x="30" y="140" width="10" height="10" fill="#000000" />
<rect x="170" y="140" width="10" height="10" fill="#000000" />
<rect x="220" y="140" width="10" height="10" fill="#000000" />
<rect x="230" y="140" width="10" height="10" fill="#000000" />
<rect x="300" y="140" width="10" height="10" fill="#000000" />
<rect x="370" y="140" width="10" height="10" fill="#000000" />
<rect x="440" y="140" width="10" height="10" fill="#000000" />
<rect x="460" y="140" width="10" height="10" fill="#000000" />
<rect x="530" y="140" width="10" height="10" fill="#000000" />
<rect x="550" y="140" width="10" height="10" fill="#000000" />
<rect x="670" y="140" width="10" height="10" fill="#000000" />
<rect x="720" y="140" width="10" height="10" fill="#000000" />
<rect x="790" y="140" width="10" height="10" fill="#000000" />
<rect x="800" y="140" width="10" height="10" fill="#000000" />
<rect x="810" y="140" width="10" height="10" fill="#000000" />
<rect x="820" y="140" width="10" height="10" fill="#000000" />
<rect x="830" y="140" width="10" height="10" fill="#000000" />
<rect x="900" y="140" width="10" height="10" fill="#000000" />
<rect x="20" y="150" width="10" height="10" fill="#000000" />
<rect x="170" y="150" width="10" height="10" fill="#000000" />
<rect x="230" y="150" width="10" height="10" fill="#000000" />
<rect x="300" y="150" width="10" height="10" fill="#000000" />
<rect x="370" y="150" width="10" height="10" fill="#000000" />
<rect x="440" y="150" width="10" height="10" fill="#000000" />
<rect x="460" y="150" width="10" height="10" fill="#000000" />
<rect x="530" y="150" width="10" height="10" fill="#000000" />
<rect x="550" y="150" width="10" height="10" fill="#000000" />
<rect x="670" y="150" width="10" height="10" fill="#000000" />
<rect x="720" y="150" width="10" height="10" fill="#000000" />
<rect x="780" y="150" width="10" height="10" fill="#000000" />
<rect x="790" y="150" width="10" height="10" fill="#000000" />
<rect x="830" y="150" width="10" height="10" fill="#000000" />
<rect x="840" y="150" width="10" height="10" fill="#000000" />
<rect x="900" y="150" width="10" height="10" fill="#000000" />
<rect x="20" y="160" width="10" height="10" fill="#000000" />
<rect x="100" y="160" width="10" height="10" fill="#000000" />
<rect x="170" y="160" width="10" height="10" fill="#000000" />
<rect x="240" y="160" width="10" height="10" fill="#000000" />
<rect x="300" y="160" width="10" height="10" fill="#000000" />
<rect x="370" y="160" width="10" height="10" fill="#000000" />
<rect x="440" y="160" width="10" height="10" fill="#000000" />
<rect x="460" y="160" width="10" height="10" fill="#000000" />
<rect x="530" y="160" width="10" height="10" fill="#000000" />
<rect x="550" y="160" width="10" height="10" fill="#000000" />
<rect x="600" y="160" width="10" height="10" fill="#000000" />
<rect x="670" y="160" width="10" height="10" fill="#000000" />
<rect x="680" y="160" width="10" height="10" fill="#000000" />
<rect x="730" y="160" width="10" height="10" fill="#000000" />
<rect x="740" y="160" width="10" height="10" fill="#000000" />
<rect x="770" y="160" width="10" height="10" fill="#000000" />
<rect x="780" y="160" width="10" height="10" fill="#000000" />
<rect x="840" y="160" width="10" height="10" fill="#000000" />
<rect x="910" y="160" width="10" height="10" fill="#000000" />
<rect x="20" y="170" width="10" height="10" fill="#000000" />
<rect x="100" y="170" width="10" height="10" fill="#000000" />
<rect x="160" y="170" width="10" height="10" fill="#000000" />
<rect x="170" y="170" width="10" height="10" fill="#000000" />
<rect x="180" y="170" width="10" height="10" fill="#000000" />
<rect x="240" y="170" width="10" height="10" fill="#000000" />
<rect x="300" y="170" width="10" height="10" fill="#000000" />
<rect x="440" y="170" width="10" height="10" fill="#000000" />
<rect x="460" y="170" width="10" height="10" fill="#000000" />
<rect x="530" y="170" width="10" height="10" fill="#000000" />
<rect x="550" y="170" width="10" height="10" fill="#000000" />
<rect x="600" y="170" width="10" height="10" fill="#000000" />
<rect x="610" y="170" width="10" height="10" fill="#000000" />
<rect x="680" y="170" width="10" height="10" fill="#000000" />
<rect x="740" y="170" width="10" height="10" fill="#000000" />
<rect x="750" y="170" width="10" height="10" fill="#000000" />
<rect x="760" y="170" width="10" height="10" fill="#000000" />
<rect x="770" y="170" width="10" height="10" fill="#000000" />
<rect x="840" y="170" width="10" height="10" fill="#000000" />
<rect x="910" y="170" width="10" height="10" fill="#000000" />
<rect x="20" y="180" width="10" height="10" fill="#000000" />
<rect x="100" y="180" width="10" height="10" fill="#000000" />
<rect x="110" y="180" width="10" height="10" fill="#000000" />
<rect x="150" y="180" width="10" height="10" fill="#000000" />
<rect x="160" y="180" width="10" height="10" fill="#000000" />
<rect x="190" y="180" width="10" height="10" fill="#000000" />
<rect x="240" y="180" width="10" height="10" fill="#000000" />
<rect x="300" y="180" width="10" height="10" fill="#000000" />
<rect x="440" y="180" width="10" height="10" fill="#000000" />
<rect x="460" y="180" width="10" height="10" fill="#000000" />
<rect x="530" y="180" width="10" height="10" fill="#000000" />
<rect x="550" y="180" width="10" height="10" fill="#000000" />
<rect x="610" y="180" width="10" height="10" fill="#000000" />
<rect x="680" y="180" width="10" height="10" fill="#000000" />
<rect x="840" y="180" width="10" height="10" fill="#000000" />
<rect x="910" y="180" width="10" height="10" fill="#000000" />
<rect x="20" y="190" width="10" height="10" fill="#000000" />
<rect x="110" y="190" width="10" height="10" fill="#000000" />
<rect x="120" y="190" width="10" height="10" fill="#000000" />
<rect x="130" y="190" width="10" height="10" fill="#000000" />
<rect x="140" y="190" width="10" height="10" fill="#000000" />
<rect x="150" y="190" width="10" height="10" fill="#000000" />
<rect x="200" y="190" width="10" height="10" fill="#000000" />
<rect x="240" y="190" width="10" height="10" fill="#000000" />
<rect x="300" y="190" width="10" height="10" fill="#000000" />
<rect x="440" y="190" width="10" height="10" fill="#000000" />
<rect x="460" y="190" width="10" height="10" fill="#000000" />
<rect x="540" y="190" width="10" height="10" fill="#000000" />
<rect x="610" y="190" width="10" height="10" fill="#000000" />
<rect x="680" y="190" width="10" height="10" fill="#000000" />
<rect x="840" y="190" width="10" height="10" fill="#000000" />
<rect x="910" y="190" width="10" height="10" fill="#000000" />
<rect x="20" y="200" width="10" height="10" fill="#000000" />
<rect x="200" y="200" width="10" height="10" fill="#000000" />
<rect x="240" y="200" width="10" height="10" fill="#000000" />
<rect x="300" y="200" width="10" height="10" fill="#000000" />
<rect x="330" y="200" width="10" height="10" fill="#000000" />
<rect x="440" y="200" width="10" height="10" fill="#000000" />
<rect x="460" y="200" width="10" height="10" fill="#000000" />
<rect x="540" y="200" width="10" height="10" fill="#000000" />
<rect x="610" y="200" width="10" height="10" fill="#000000" />
<rect x="670" y="200" width="10" height="10" fill="#000000" />
<rect x="680" y="200" width="10" height="10" fill="#000000" />
<rect x="840" y="200" width="10" height="10" fill="#000000" />
<rect x="910" y="200" width="10" height="10" fill="#000000" />
<rect x="20" y="210" width="10" height="10" fill="#000000" />
<rect x="30" y="210" width="10" height="10" fill="#000000" />
<rect x="200" y="210" width="10" height="10" fill="#000000" />
<rect x="290" y="210" width="10" height="10" fill="#000000" />
<rect x="300" y="210" width="10" height="10" fill="#000000" />
<rect x="340" y="210" width="10" height="10" fill="#000000" />
<rect x="440" y="210" width="10" height="10" fill="#000000" />
<rect x="460" y="210" width="10" height="10" fill="#000000" />
<rect x="550" y="210" width="10" height="10" fill="#000000" />
<rect x="610" y="210" width="10" height="10" fill="#000000" />
<rect x="670" y="210" width="10" height="10" fill="#000000" />
<rect x="830" y="210" width="10" height="10" fill="#000000" />
<rect x="840" y="210" width="10" height="10" fill="#000000" />
<rect x="900" y="210" width="10" height="10" fill="#000000" />
<rect x="910" y="210" width="10" height="10" fill="#000000" />
<rect x="30" y="220" width="10" height="10" fill="#000000" />
<rect x="200" y="220" width="10" height="10" fill="#000000" />
<rect x="290" y="220" width="10" height="10" fill="#000000" />
<rect x="340" y="220" width="10" height="10" fill="#000000" />
<rect x="440" y="220" width="10" height="10" fill="#000000" />
<rect x="460" y="220" width="10" height="10" fill="#000000" />
<rect x="550" y="220" width="10" height="10" fill="#000000" />
<rect x="610" y="220" width="10" height="10" fill="#000000" />
<rect x="670" y="220" width="10" height="10" fill="#000000" />
<rect x="830" y="220" width="10" height="10" fill="#000000" />
<rect x="900" y="220" width="10" height="10" fill="#000000" />
<rect x="30" y="230" width="10" height="10" fill="#000000" />
<rect x="40" y="230" width="10" height="10" fill="#000000" />
<rect x="190" y="230" width="10" height="10" fill="#000000" />
<rect x="290" y="230" width="10" height="10" fill="#000000" />
<rect x="350" y="230" width="10" height="10" fill="#000000" />
<rect x="430" y="230" width="10" height="10" fill="#000000" />
<rect x="440" y="230" width="10" height="10" fill="#000000" />
<rect x="460" y="230" width="10" height="10" fill="#000000" />
<rect x="470" y="230" width="10" height="10" fill="#000000" />
<rect x="550" y="230" width="10" height="10" fill="#000000" />
<rect x="610" y="230" width="10" height="10" fill="#000000" />
<rect x="670" y="230" width="10" height="10" fill="#000000" />
<rect x="820" y="230" width="10" height="10" fill="#000000" />
<rect x="830" y="230" width="10" height="10" fill="#000000" />
<rect x="900" y="230" width="10" height="10" fill="#000000" />
<rect x="40" y="240" width="10" height="10" fill="#000000" />
<rect x="50" y="240" width="10" height="10" fill="#000000" />
<rect x="180" y="240" width="10" height="10" fill="#000000" />
<rect x="190" y="240" width="10" height="10" fill="#000000" />
<rect x="280" y="240" width="10" height="10" fill="#000000" />
<rect x="290" y="240" width="10" height="10" fill="#000000" />
<rect x="360" y="240" width="10" height="10" fill="#000000" />
<rect x="430" y="240" width="10" height="10" fill="#000000" />
<rect x="470" y="240" width="10" height="10" fill="#000000" />
<rect x="550" y="240" width="10" height="10" fill="#000000" />
<rect x="610" y="240" width="10" height="10" fill="#000000" />
<rect x="670" y="240" width="10" height="10" fill="#000000" />
<rect x="680" y="240" width="10" height="10" fill="#000000" />
<rect x="690" y="240" width="10" height="10" fill="#000000" />
<rect x="800" y="240" width="10" height="10" fill="#000000" />
<rect x="810" y="240" width="10" height="10" fill="#000000" />
<rect x="820" y="240" width="10" height="10" fill="#000000" />
<rect x="890" y="240" width="10" height="10" fill="#000000" />
<rect x="50" y="250" width="10" height="10" fill="#000000" />
<rect x="60" y="250" width="10" height="10" fill="#000000" />
<rect x="170" y="250" width="10" height="10" fill="#000000" />
<rect x="180" y="250" width="10" height="10" fill="#000000" />
<rect x="280" y="250" width="10" height="10" fill="#000000" />
<rect x="290" y="250" width="10" height="10" fill="#000000" />
<rect x="300" y="250" width="10" height="10" fill="#000000" />
<rect x="350" y="250" width="10" height="10" fill="#000000" />
<rect x="360" y="250" width="10" height="10" fill="#000000" />
<rect x="420" y="250" width="10" height="10" fill="#000000" />
<rect x="430" y="250" width="10" height="10" fill="#000000" />
<rect x="470" y="250" width="10" height="10" fill="#000000" />
<rect x="480" y="250" width="10" height="10" fill="#000000" />
<rect x="550" y="250" width="10" height="10" fill="#000000" />
<rect x="610" y="250" width="10" height="10" fill="#000000" />
<rect x="670" y="250" width="10" height="10" fill="#000000" />
<rect x="690" y="250" width="10" height="10" fill="#000000" />
<rect x="700" y="250" width="10" height="10" fill="#000000" />
<rect x="710" y="250" width="10" height="10" fill="#000000" />
<rect x="780" y="250" width="10" height="10" fill="#000000" />
<rect x="790" y="250" width="10" height="10" fill="#000000" />
<rect x="800" y="250" width="10" height="10" fill="#000000" />
<rect x="820" y="250" width="10" height="10" fill="#000000" />
<rect x="890" y="250" width="10" height="10" fill="#000000" />
<rect x="60" y="260" width="10" height="10" fill="#000000" />
<rect x="70" y="260" width="10" height="10" fill="#000000" />
<rect x="80" y="260" width="10" height="10" fill="#000000" />
<rect x="150" y="260" width="10" height="10" fill="#000000" />
<rect x="160" y="260" width="10" height="10" fill="#000000" />
<rect x="180" y="260" width="10" height="10" fill="#000000" />
<rect x="190" y="260" width="10" height="10" fill="#000000" />
<rect x="270" y="260" width="10" height="10" fill="#000000" />
<rect x="280" y="260" width="10" height="10" fill="#000000" />
<rect x="300" y="260" width="10" height="10" fill="#000000" />
<rect x="310" y="260" width="10" height="10" fill="#000000" />
<rect x="340" y="260" width="10" height="10" fill="#000000" />
<rect x="350" y="260" width="10" height="10" fill="#000000" />
<rect x="370" y="260" width="10" height="10" fill="#000000" />
<rect x="410" y="260" width="10" height="10" fill="#000000" />
<rect x="480" y="260" width="10" height="10" fill="#000000" />
<rect x="550" y="260" width="10" height="10" fill="#000000" />
<rect x="600" y="260" width="10" height="10" fill="#000000" />
<rect x="620" y="260" width="10" height="10" fill="#000000" />
<rect x="660" y="260" width="10" height="10" fill="#000000" />
<rect x="710" y="260" width="10" height="10" fill="#000000" />
<rect x="720" y="260" width="10" height="10" fill="#000000" />
<rect x="730" y="260" width="10" height="10" fill="#000000" />
<rect x="740" y="260" width="10" height="10" fill="#000000" />
<rect x="750" y="260" width="10" height="10" fill="#000000" />
<rect x="760" y="260" width="10" height="10" fill="#000000" />
<rect x="770" y="260" width="10" height="10" fill="#000000" />
<rect x="830" y="260" width="10" height="10" fill="#000000" />
<rect x="840" y="260" width="10" height="10" fill="#000000" />
<rect x="870" y="260" width="10" height="10" fill="#000000" />
<rect x="880" y="260" width="10" height="10" fill="#000000" />
<rect x="80" y="270" width="10" height="10" fill="#000000" />
<rect x="90" y="270" width="10" height="10" fill="#000000" />
<rect x="100" y="270" width="10" height="10" fill="#000000" />
<rect x="130" y="270" width="10" height="10" fill="#000000" />
<rect x="140" y="270" width="10" height="10" fill="#000000" />
<rect x="200" y="270" width="10" height="10" fill="#000000" />
<rect x="210" y="270" width="10" height="10" fill="#000000" />
<rect x="220" y="270" width="10" height="10" fill="#000000" />
<rect x="230" y="270" width="10" height="10" fill="#000000" />
<rect x="240" y="270" width="10" height="10" fill="#000000" />
<rect x="250" y="270" width="10" height="10" fill="#000000" />
<rect x="260" y="270" width="10" height="10" fill="#000000" />
<rect x="270" y="270" width="10" height="10" fill="#000000" />
<rect x="310" y="270" width="10" height="10" fill="#000000" />
<rect x="320" y="270" width="10" height="10" fill="#000000" />
<rect x="330" y="270" width="10" height="10" fill="#000000" />
<rect x="340" y="270" width="10" height="10" fill="#000000" />
<rect x="380" y="270" width="10" height="10" fill="#000000" />
<rect x="390" y="270" width="10" height="10" fill="#000000" />
<rect x="400" y="270" width="10" height="10" fill="#000000" />
<rect x="410" y="270" width="10" height="10" fill="#000000" />
<rect x="480" y="270" width="10" height="10" fill="#000000" />
<rect x="490" y="270" width="10" height="10" fill="#000000" />
<rect x="540" y="270" width="10" height="10" fill="#000000" />
<rect x="550" y="270" width="10" height="10" fill="#000000" />
<rect x="560" y="270" width="10" height="10" fill="#000000" />
<rect x="570" y="270" width="10" height="10" fill="#000000" />
<rect x="580" y="270" width="10" height="10" fill="#000000" />
<rect x="590" y="270" width="10" height="10" fill="#000000" />
<rect x="630" y="270" width="10" height="10" fill="#000000" />
<rect x="640" y="270" width="10" height="10" fill="#000000" />
<rect x="650" y="270" width="10" height="10" fill="#000000" />
<rect x="850" y="270" width="10" height="10" fill="#000000" />
<rect x="860" y="270" width="10" height="10" fill="#000000" />
<rect x="100" y="280" width="10" height="10" fill="#000000" />
<rect x="110" y="280" width="10" height="10" fill="#000000" />
<rect x="120" y="280" width="10" height="10" fill="#000000" />
<rect x="490" y="280" width="10" height="10" fill="#000000" />
<rect x="500" y="280" width="10" height="10" fill="#000000" />
<rect x="510" y="280" width="10" height="10" fill="#000000" />
<rect x="520" y="280" width="10" height="10" fill="#000000" />
<rect x="530" y="280" width="10" height="10" fill="#000000" />
</svg>