<?xml version="1.0" encoding="UTF-8" ?>
<svg version="1.1" width="610" height="100" xmlns="http://www.w3.org/2000/svg" shape-rendering="crispEdges">
<rect x="30" y="0" width="10" height="10" fill="#000000" />
<rect x="40" y="0" width="10" height="10" fill="#000000" />
<rect x="220" y="0" width="10" height="10" fill="#000000" />
<rect x="410" y="0" width="10" height="10" fill="#000000" />
<rect x="20" y="10" width="10" height="10" fill="#000000" />
<rect x="220" y="10" width="10" height="10" fill="#000000" />
<rect x="340" y="10" width="10" height="10" fill="#000000" />
<rect x="350" y="10" width="10" height="10" fill="#000000" />
<rect x="390" y="10" width="10" height="10" fill="#000000" />
<rect x="410" y="10" width="10" height="10" fill="#000000" />
<rect x="550" y="10" width="10" height="10" fill="#000000" />
<rect x="560" y="10" width="10" height="10" fill="#000000" />
<rect x="590" y="10" width="10" height="10" fill="#000000" />
<rect x="10" y="20" width="10" height="10" fill="#000000" />
<rect x="80" y="20" width="10" height="10" fill="#000000" />
<rect x="90" y="20" width="10" height="10" fill="#000000" />
<rect x="130" y="20" width="10" height="10" fill="#000000" />
<rect x="150" y="20" width="10" height="10" fill="#000000" />
<rect x="160" y="20" width="10" height="10" fill="#000000" />
<rect x="200" y="20" width="10" height="10" fill="#000000" />
<rect x="210" y="20" width="10" height="10" fill="#000000" />
<rect x="220" y="20" width="10" height="10" fill="#000000" />
<rect x="230" y="20" width="10" height="10" fill="#000000" />
<rect x="240" y="20" width="10" height="10" fill="#000000" />
<rect x="270" y="20" width="10" height="10" fill="#000000" />
<rect x="280" y="20" width="10" height="10" fill="#000000" />
<rect x="330" y="20" width="10" height="10" fill="#000000" />
<rect x="400" y="20" width="10" height="10" fill="#000000" />
<rect x="410" y="20" width="10" height="10" fill="#000000" />
<rect x="420" y="20" width="10" height="10" fill="#000000" />
<rect x="430" y="20" width="10" height="10" fill="#000000" />
<rect x="520" y="20" width="10" height="10" fill="#000000" />
<rect x="540" y="20" width="10" height="10" fill="#000000" />
<rect x="10" y="30" width="10" height="10" fill="#000000" />
<rect x="70" y="30" width="10" height="10" fill="#000000" />
<rect x="100" y="30" width="10" height="10" fill="#000000" />
<rect x="130" y="30" width="10" height="10" fill="#000000" />
<rect x="140" y="30" width="10" height="10" fill="#000000" />
<rect x="170" y="30" width="10" height="10" fill="#000000" />
<rect x="220" y="30" width="10" height="10" fill="#000000" />
<rect x="260" y="30" width="10" height="10" fill="#000000" />
<rect x="290" y="30" width="10" height="10" fill="#000000" />
<rect x="330" y="30" width="10" height="10" fill="#000000" />
<rect x="410" y="30" width="10" height="10" fill="#000000" />
<rect x="480" y="30" width="10" height="10" fill="#000000" />
<rect x="520" y="30" width="10" height="10" fill="#000000" />
<rect x="550" y="30" width="10" height="10" fill="#000000" />
<rect x="560" y="30" width="10" height="10" fill="#000000" />
<rect x="10" y="40" width="10" height="10" fill="#000000" />
<rect x="70" y="40" width="10" height="10" fill="#000000" />
<rect x="110" y="40" width="10" height="10" fill="#000000" />
<rect x="140" y="40" width="10" height="10" fill="#000000" />
<rect x="170" y="40" width="10" height="10" fill="#000000" />
<rect x="220" y="40" width="10" height="10" fill="#000000" />
<rect x="260" y="40" width="10" height="10" fill="#000000" />
<rect x="300" y="40" width="10" height="10" fill="#000000" />
<rect x="340" y="40" width="10" height="10" fill="#000000" />
<rect x="370" y="40" width="10" height="10" fill="#000000" />
<rect x="410" y="40" width="10" height="10" fill="#000000" />
<rect x="480" y="40" width="10" height="10" fill="#000000" />
<rect x="520" y="40" width="10" height="10" fill="#000000" />
<rect x="570" y="40" width="10" height="10" fill="#000000" />
<rect x="600" y="40" width="10" height="10" fill="#000000" />
<rect x="20" y="50" width="10" height="10" fill="#000000" />
<rect x="50" y="50" width="10" height="10" fill="#000000" />
<rect x="80" y="50" width="10" height="10" fill="#000000" />
<rect x="90" y="50" width="10" height="10" fill="#000000" />
<rect x="100" y="50" width="10" height="10" fill="#000000" />
<rect x="140" y="50" width="10" height="10" fill="#000000" />
<rect x="170" y="50" width="10" height="10" fill="#000000" />
<rect x="210" y="50" width="10" height="10" fill="#000000" />
<rect x="260" y="50" width="10" height="10" fill="#000000" />
<rect x="290" y="50" width="10" height="10" fill="#000000" />
<rect x="310" y="50" width="10" height="10" fill="#000000" />
<rect x="350" y="50" width="10" height="10" fill="#000000" />
<rect x="360" y="50" width="10" height="10" fill="#000000" />
<rect x="410" y="50" width="10" height="10" fill="#000000" />
<rect x="480" y="50" width="10" height="10" fill="#000000" />
<rect x="510" y="50" width="10" height="10" fill="#000000" />
<rect x="530" y="50" width="10" height="10" fill="#000000" />
<rect x="550" y="50" width="10" height="10" fill="#000000" />
<rect x="560" y="50" width="10" height="10" fill="#000000" />
<rect x="30" y="60" width="10" height="10" fill="#000000" />
<rect x="40" y="60" width="10" height="10" fill="#000000" />
<rect x="210" y="60" width="10" height="10" fill="#000000" />
<rect x="270" y="60" width="10" height="10" fill="#000000" />
<rect x="280" y="60" width="10" height="10" fill="#000000" />
<rect x="400" y="60" width="10" height="10" fill="#000000" />
<rect x="490" y="60" width="10" height="10" fill="#000000" />
<rect x="500" y="60" width="10" height="10" fill="#000000" />
<rect x="0" y="70" width="10" height="10" fill="#000000" />
<rect x="80" y="70" width="10" height="10" fill="#000000" />
<rect x="90" y="70" width="10" height="10" fill="#000000" />
<rect x="100" y="70" width="10" height="10" fill="#000000" />
<rect x="110" y="70" width="10" height="10" fill="#000000" />
<rect x="120" y="70" width="10" height="10" fill="#000000" />
<rect x="130" y="70" width="10" height="10" fill="#000000" />
<rect x="140" y="70" width="10" height="10" fill="#000000" />
<rect x="150" y="70" width="10" height="10" fill="#000000" />
<rect x="160" y="70" width="10" height="10" fill="#000000" />
<rect x="320" y="70" width="10" height="10" fill="#000000" />
<rect x="330" y="70" width="10" height="10" fill="#000000" />
<rect x="340" y="70" width="10" height="10" fill="#000000" />
<rect x="350" y="70" width="10" height="10" fill="#000000" />
<rect x="360" y="70" width="10" height="10" fill="#000000" />
<rect x="580" y="70" width="10" height="10" fill="#000000" />
<rect x="590" y="70" width="10" height="10" fill="#000000" />
<rect x="600" y="70" width="10" height="10" fill="#000000" />
<rect x="10" y="80" width="10" height="10" fill="#000000" />
<rect x="50" y="80" width="10" height="10" fill="#000000" />
<rect x="60" y="80" width="10" height="10" fill="#000000" />
<rect x="70" y="80" width="10" height="10" fill="#000000" />
<rect x="170" y="80" width="10" height="10" fill="#000000" />
<rect x="180" y="80" width="10" height="10" fill="#000000" />
<rect x="190" y="80" width="10" height="10" fill="#000000" />
<rect x="200" y="80" width="10" height="10" fill="#000000" />
<rect x="210" y="80" width="10" height="10" fill="#000000" />
<rect x="220" y="80" width="10" height="10" fill="#000000" />
<rect x="230" y="80" width="10" height="10" fill="#000000" />
<rect x="240" y="80" width="10" height="10" fill="#000000" />
<rect x="250" y="80" width="10" height="10" fill="#000000" />
<rect x="260" y="80" width="10" height="10" fill="#000000" />
<rect x="270" y="80" width="10" height="10" fill="#000000" />
<rect x="280" y="80" width="10" height="10" fill="#000000" />
<rect x="290" y="80" width="10" height="10" fill="#000000" />
<rect x="300" y="80" width="10" height="10" fill="#000000" />
<rect x="310" y="80" width="10" height="10" fill="#000000" />
<rect x="370" y="80" width="10" height="10" fill="#000000" />
<rect x="380" y="80" width="10" height="10" fill="#000000" />
<rect x="390" y="80" width="10" height="10" fill="#000000" />
<rect x="400" y="80" width="10" height="10" fill="#000000" />
<rect x="410" y="80" width="10" height="10" fill="#000000" />
<rect x="420" y="80" width="10" height="10" fill="#000000" />
<rect x="430" y="80" width="10" height="10" fill="#000000" />
<rect x="440" y="80" width="10" height="10" fill="#000000" />
<rect x="450" y="80" width="10" height="10" fill="#000000" />
<rect x="460" y="80" width="10" height="10" fill="#000000" />
<rect x="470" y="80" width="10" height="10" fill="#000000" />
<rect x="480" y="80" width="10" height="10" fill="#000000" />
<rect x="490" y="80" width="10" height="10" fill="#000000" />
<rect x="500" y="80" width="10" height="10" fill="#000000" />
<rect x="510" y="80" width="10" height="10" fill="#000000" />
<rect x="520" y="80" width="10" height="10" fill="#000000" />
<rect x="530" y="80" width="10" height="10" fill="#000000" />
<rect x="540" y="80" width="10" height="10" fill="#000000" />
<rect x="550" y="80" width="10" height="10" fill="#000000" />
<rect x="560" y="80" width="10" height="10" fill="#000000" />
<rect x="570" y="80" width="10" height="10" fill="#000000" />
<rect x="20" y="90" width="10" height="10" fill="#000000" />
<rect x="30" y="90" width="10" height="10" fill="#000000" />
<rect x="40" y="90" width="10" height="10" fill="#000000" />
</svg>