<?xml version="1.0" encoding="UTF-8" ?>
<svg version="1.1" width="1680" height="240" xmlns="http://www.w3.org/2000/svg" shape-rendering="crispEdges">
<rect x="1640" y="0" width="10" height="10" fill="#000000" />
<rect x="1650" y="0" width="10" height="10" fill="#000000" />
<rect x="1660" y="0" width="10" height="10" fill="#000000" />
<rect x="1670" y="0" width="10" height="10" fill="#000000" />
<rect x="1620" y="10" width="10" height="10" fill="#000000" />
<rect x="1630" y="10" width="10" height="10" fill="#000000" />
<rect x="1650" y="10" width="10" height="10" fill="#000000" />
<rect x="1660" y="10" width="10" height="10" fill="#000000" />
<rect x="1670" y="10" width="10" height="10" fill="#000000" />
<rect x="1610" y="20" width="10" height="10" fill="#000000" />
<rect x="1640" y="20" width="10" height="10" fill="#000000" />
<rect x="1650" y="20" width="10" height="10" fill="#000000" />
<rect x="1670" y="20" width="10" height="10" fill="#000000" />
<rect x="1510" y="30" width="10" height="10" fill="#000000" />
<rect x="1520" y="30" width="10" height="10" fill="#000000" />
<rect x="1530" y="30" width="10" height="10" fill="#000000" />
<rect x="1640" y="30" width="10" height="10" fill="#000000" />
<rect x="1670" y="30" width="10" height="10" fill="#000000" />
<rect x="1300" y="40" width="10" height="10" fill="#000000" />
<rect x="1310" y="40" width="10" height="10" fill="#000000" />
<rect x="1320" y="40" width="10" height="10" fill="#000000" />
<rect x="1370" y="40" width="10" height="10" fill="#000000" />
<rect x="1380" y="40" width="10" height="10" fill="#000000" />
<rect x="1390" y="40" width="10" height="10" fill="#000000" />
<rect x="1470" y="40" width="10" height="10" fill="#000000" />
<rect x="1480" y="40" width="10" height="10" fill="#000000" />
<rect x="1490" y="40" width="10" height="10" fill="#000000" />
<rect x="1500" y="40" width="10" height="10" fill="#000000" />
<rect x="1510" y="40" width="10" height="10" fill="#000000" />
<rect x="1630" y="40" width="10" height="10" fill="#000000" />
<rect x="1640" y="40" width="10" height="10" fill="#000000" />
<rect x="1660" y="40" width="10" height="10" fill="#000000" />
<rect x="1060" y="50" width="10" height="10" fill="#000000" />
<rect x="1070" y="50" width="10" height="10" fill="#000000" />
<rect x="1080" y="50" width="10" height="10" fill="#000000" />
<rect x="1090" y="50" width="10" height="10" fill="#000000" />
<rect x="1120" y="50" width="10" height="10" fill="#000000" />
<rect x="1130" y="50" width="10" height="10" fill="#000000" />
<rect x="1260" y="50" width="10" height="10" fill="#000000" />
<rect x="1270" y="50" width="10" height="10" fill="#000000" />
<rect x="1280" y="50" width="10" height="10" fill="#000000" />
<rect x="1290" y="50" width="10" height="10" fill="#000000" />
<rect x="1300" y="50" width="10" height="10" fill="#000000" />
<rect x="1310" y="50" width="10" height="10" fill="#000000" />
<rect x="1320" y="50" width="10" height="10" fill="#000000" />
<rect x="1370" y="50" width="10" height="10" fill="#000000" />
<rect x="1380" y="50" width="10" height="10" fill="#000000" />
<rect x="1390" y="50" width="10" height="10" fill="#000000" />
<rect x="1400" y="50" width="10" height="10" fill="#000000" />
<rect x="1410" y="50" width="10" height="10" fill="#000000" />
<rect x="1420" y="50" width="10" height="10" fill="#000000" />
<rect x="1430" y="50" width="10" height="10" fill="#000000" />
<rect x="1460" y="50" width="10" height="10" fill="#000000" />
<rect x="1470" y="50" width="10" height="10" fill="#000000" />
<rect x="1630" y="50" width="10" height="10" fill="#000000" />
<rect x="1660" y="50" width="10" height="10" fill="#000000" />
<rect x="50" y="60" width="10" height="10" fill="#000000" />
<rect x="60" y="60" width="10" height="10" fill="#000000" />
<rect x="70" y="60" width="10" height="10" fill="#000000" />
<rect x="1070" y="60" width="10" height="10" fill="#000000" />
<rect x="1090" y="60" width="10" height="10" fill="#000000" />
<rect x="1100" y="60" width="10" height="10" fill="#000000" />
<rect x="1110" y="60" width="10" height="10" fill="#000000" />
<rect x="1120" y="60" width="10" height="10" fill="#000000" />
<rect x="1130" y="60" width="10" height="10" fill="#000000" />
<rect x="1190" y="60" width="10" height="10" fill="#000000" />
<rect x="1240" y="60" width="10" height="10" fill="#000000" />
<rect x="1250" y="60" width="10" height="10" fill="#000000" />
<rect x="1300" y="60" width="10" height="10" fill="#000000" />
<rect x="1310" y="60" width="10" height="10" fill="#000000" />
<rect x="1380" y="60" width="10" height="10" fill="#000000" />
<rect x="1440" y="60" width="10" height="10" fill="#000000" />
<rect x="1450" y="60" width="10" height="10" fill="#000000" />
<rect x="1470" y="60" width="10" height="10" fill="#000000" />
<rect x="1480" y="60" width="10" height="10" fill="#000000" />
<rect x="1490" y="60" width="10" height="10" fill="#000000" />
<rect x="1560" y="60" width="10" height="10" fill="#000000" />
<rect x="1570" y="60" width="10" height="10" fill="#000000" />
<rect x="1630" y="60" width="10" height="10" fill="#000000" />
<rect x="1660" y="60" width="10" height="10" fill="#000000" />
<rect x="40" y="70" width="10" height="10" fill="#000000" />
<rect x="70" y="70" width="10" height="10" fill="#000000" />
<rect x="80" y="70" width="10" height="10" fill="#000000" />
<rect x="950" y="70" width="10" height="10" fill="#000000" />
<rect x="960" y="70" width="10" height="10" fill="#000000" />
<rect x="1070" y="70" width="10" height="10" fill="#000000" />
<rect x="1190" y="70" width="10" height="10" fill="#000000" />
<rect x="1240" y="70" width="10" height="10" fill="#000000" />
<rect x="1250" y="70" width="10" height="10" fill="#000000" />
<rect x="1290" y="70" width="10" height="10" fill="#000000" />
<rect x="1300" y="70" width="10" height="10" fill="#000000" />
<rect x="1380" y="70" width="10" height="10" fill="#000000" />
<rect x="1450" y="70" width="10" height="10" fill="#000000" />
<rect x="1490" y="70" width="10" height="10" fill="#000000" />
<rect x="1500" y="70" width="10" height="10" fill="#000000" />
<rect x="1510" y="70" width="10" height="10" fill="#000000" />
<rect x="1520" y="70" width="10" height="10" fill="#000000" />
<rect x="1570" y="70" width="10" height="10" fill="#000000" />
<rect x="1620" y="70" width="10" height="10" fill="#000000" />
<rect x="30" y="80" width="10" height="10" fill="#000000" />
<rect x="40" y="80" width="10" height="10" fill="#000000" />
<rect x="80" y="80" width="10" height="10" fill="#000000" />
<rect x="440" y="80" width="10" height="10" fill="#000000" />
<rect x="450" y="80" width="10" height="10" fill="#000000" />
<rect x="470" y="80" width="10" height="10" fill="#000000" />
<rect x="480" y="80" width="10" height="10" fill="#000000" />
<rect x="490" y="80" width="10" height="10" fill="#000000" />
<rect x="500" y="80" width="10" height="10" fill="#000000" />
<rect x="510" y="80" width="10" height="10" fill="#000000" />
<rect x="520" y="80" width="10" height="10" fill="#000000" />
<rect x="530" y="80" width="10" height="10" fill="#000000" />
<rect x="590" y="80" width="10" height="10" fill="#000000" />
<rect x="600" y="80" width="10" height="10" fill="#000000" />
<rect x="610" y="80" width="10" height="10" fill="#000000" />
<rect x="620" y="80" width="10" height="10" fill="#000000" />
<rect x="740" y="80" width="10" height="10" fill="#000000" />
<rect x="750" y="80" width="10" height="10" fill="#000000" />
<rect x="760" y="80" width="10" height="10" fill="#000000" />
<rect x="770" y="80" width="10" height="10" fill="#000000" />
<rect x="780" y="80" width="10" height="10" fill="#000000" />
<rect x="790" y="80" width="10" height="10" fill="#000000" />
<rect x="800" y="80" width="10" height="10" fill="#000000" />
<rect x="930" y="80" width="10" height="10" fill="#000000" />
<rect x="960" y="80" width="10" height="10" fill="#000000" />
<rect x="1070" y="80" width="10" height="10" fill="#000000" />
<rect x="1190" y="80" width="10" height="10" fill="#000000" />
<rect x="1250" y="80" width="10" height="10" fill="#000000" />
<rect x="1290" y="80" width="10" height="10" fill="#000000" />
<rect x="1310" y="80" width="10" height="10" fill="#000000" />
<rect x="1320" y="80" width="10" height="10" fill="#000000" />
<rect x="1380" y="80" width="10" height="10" fill="#000000" />
<rect x="1440" y="80" width="10" height="10" fill="#000000" />
<rect x="1450" y="80" width="10" height="10" fill="#000000" />
<rect x="1500" y="80" width="10" height="10" fill="#000000" />
<rect x="1510" y="80" width="10" height="10" fill="#000000" />
<rect x="1520" y="80" width="10" height="10" fill="#000000" />
<rect x="1570" y="80" width="10" height="10" fill="#000000" />
<rect x="1580" y="80" width="10" height="10" fill="#000000" />
<rect x="1620" y="80" width="10" height="10" fill="#000000" />
<rect x="30" y="90" width="10" height="10" fill="#000000" />
<rect x="80" y="90" width="10" height="10" fill="#000000" />
<rect x="420" y="90" width="10" height="10" fill="#000000" />
<rect x="430" y="90" width="10" height="10" fill="#000000" />
<rect x="440" y="90" width="10" height="10" fill="#000000" />
<rect x="500" y="90" width="10" height="10" fill="#000000" />
<rect x="510" y="90" width="10" height="10" fill="#000000" />
<rect x="570" y="90" width="10" height="10" fill="#000000" />
<rect x="580" y="90" width="10" height="10" fill="#000000" />
<rect x="630" y="90" width="10" height="10" fill="#000000" />
<rect x="690" y="90" width="10" height="10" fill="#000000" />
<rect x="700" y="90" width="10" height="10" fill="#000000" />
<rect x="710" y="90" width="10" height="10" fill="#000000" />
<rect x="720" y="90" width="10" height="10" fill="#000000" />
<rect x="730" y="90" width="10" height="10" fill="#000000" />
<rect x="740" y="90" width="10" height="10" fill="#000000" />
<rect x="780" y="90" width="10" height="10" fill="#000000" />
<rect x="790" y="90" width="10" height="10" fill="#000000" />
<rect x="830" y="90" width="10" height="10" fill="#000000" />
<rect x="880" y="90" width="10" height="10" fill="#000000" />
<rect x="890" y="90" width="10" height="10" fill="#000000" />
<rect x="920" y="90" width="10" height="10" fill="#000000" />
<rect x="930" y="90" width="10" height="10" fill="#000000" />
<rect x="960" y="90" width="10" height="10" fill="#000000" />
<rect x="1080" y="90" width="10" height="10" fill="#000000" />
<rect x="1190" y="90" width="10" height="10" fill="#000000" />
<rect x="1200" y="90" width="10" height="10" fill="#000000" />
<rect x="1250" y="90" width="10" height="10" fill="#000000" />
<rect x="1260" y="90" width="10" height="10" fill="#000000" />
<rect x="1280" y="90" width="10" height="10" fill="#000000" />
<rect x="1290" y="90" width="10" height="10" fill="#000000" />
<rect x="1300" y="90" width="10" height="10" fill="#000000" />
<rect x="1310" y="90" width="10" height="10" fill="#000000" />
<rect x="1320" y="90" width="10" height="10" fill="#000000" />
<rect x="1330" y="90" width="10" height="10" fill="#000000" />
<rect x="1380" y="90" width="10" height="10" fill="#000000" />
<rect x="1430" y="90" width="10" height="10" fill="#000000" />
<rect x="1440" y="90" width="10" height="10" fill="#000000" />
<rect x="1480" y="90" width="10" height="10" fill="#000000" />
<rect x="1490" y="90" width="10" height="10" fill="#000000" />
<rect x="1500" y="90" width="10" height="10" fill="#000000" />
<rect x="1570" y="90" width="10" height="10" fill="#000000" />
<rect x="1580" y="90" width="10" height="10" fill="#000000" />
<rect x="1620" y="90" width="10" height="10" fill="#000000" />
<rect x="20" y="100" width="10" height="10" fill="#000000" />
<rect x="30" y="100" width="10" height="10" fill="#000000" />
<rect x="80" y="100" width="10" height="10" fill="#000000" />
<rect x="240" y="100" width="10" height="10" fill="#000000" />
<rect x="250" y="100" width="10" height="10" fill="#000000" />
<rect x="300" y="100" width="10" height="10" fill="#000000" />
<rect x="310" y="100" width="10" height="10" fill="#000000" />
<rect x="320" y="100" width="10" height="10" fill="#000000" />
<rect x="350" y="100" width="10" height="10" fill="#000000" />
<rect x="360" y="100" width="10" height="10" fill="#000000" />
<rect x="410" y="100" width="10" height="10" fill="#000000" />
<rect x="420" y="100" width="10" height="10" fill="#000000" />
<rect x="440" y="100" width="10" height="10" fill="#000000" />
<rect x="500" y="100" width="10" height="10" fill="#000000" />
<rect x="560" y="100" width="10" height="10" fill="#000000" />
<rect x="570" y="100" width="10" height="10" fill="#000000" />
<rect x="630" y="100" width="10" height="10" fill="#000000" />
<rect x="640" y="100" width="10" height="10" fill="#000000" />
<rect x="710" y="100" width="10" height="10" fill="#000000" />
<rect x="770" y="100" width="10" height="10" fill="#000000" />
<rect x="780" y="100" width="10" height="10" fill="#000000" />
<rect x="830" y="100" width="10" height="10" fill="#000000" />
<rect x="890" y="100" width="10" height="10" fill="#000000" />
<rect x="900" y="100" width="10" height="10" fill="#000000" />
<rect x="920" y="100" width="10" height="10" fill="#000000" />
<rect x="960" y="100" width="10" height="10" fill="#000000" />
<rect x="1080" y="100" width="10" height="10" fill="#000000" />
<rect x="1190" y="100" width="10" height="10" fill="#000000" />
<rect x="1200" y="100" width="10" height="10" fill="#000000" />
<rect x="1260" y="100" width="10" height="10" fill="#000000" />
<rect x="1270" y="100" width="10" height="10" fill="#000000" />
<rect x="1280" y="100" width="10" height="10" fill="#000000" />
<rect x="1290" y="100" width="10" height="10" fill="#000000" />
<rect x="1330" y="100" width="10" height="10" fill="#000000" />
<rect x="1370" y="100" width="10" height="10" fill="#000000" />
<rect x="1420" y="100" width="10" height="10" fill="#000000" />
<rect x="1430" y="100" width="10" height="10" fill="#000000" />
<rect x="1480" y="100" width="10" height="10" fill="#000000" />
<rect x="1570" y="100" width="10" height="10" fill="#000000" />
<rect x="1580" y="100" width="10" height="10" fill="#000000" />
<rect x="1590" y="100" width="10" height="10" fill="#000000" />
<rect x="1620" y="100" width="10" height="10" fill="#000000" />
<rect x="20" y="110" width="10" height="10" fill="#000000" />
<rect x="80" y="110" width="10" height="10" fill="#000000" />
<rect x="190" y="110" width="10" height="10" fill="#000000" />
<rect x="200" y="110" width="10" height="10" fill="#000000" />
<rect x="240" y="110" width="10" height="10" fill="#000000" />
<rect x="260" y="110" width="10" height="10" fill="#000000" />
<rect x="270" y="110" width="10" height="10" fill="#000000" />
<rect x="280" y="110" width="10" height="10" fill="#000000" />
<rect x="290" y="110" width="10" height="10" fill="#000000" />
<rect x="300" y="110" width="10" height="10" fill="#000000" />
<rect x="350" y="110" width="10" height="10" fill="#000000" />
<rect x="360" y="110" width="10" height="10" fill="#000000" />
<rect x="400" y="110" width="10" height="10" fill="#000000" />
<rect x="410" y="110" width="10" height="10" fill="#000000" />
<rect x="500" y="110" width="10" height="10" fill="#000000" />
<rect x="550" y="110" width="10" height="10" fill="#000000" />
<rect x="590" y="110" width="10" height="10" fill="#000000" />
<rect x="600" y="110" width="10" height="10" fill="#000000" />
<rect x="640" y="110" width="10" height="10" fill="#000000" />
<rect x="710" y="110" width="10" height="10" fill="#000000" />
<rect x="760" y="110" width="10" height="10" fill="#000000" />
<rect x="770" y="110" width="10" height="10" fill="#000000" />
<rect x="830" y="110" width="10" height="10" fill="#000000" />
<rect x="840" y="110" width="10" height="10" fill="#000000" />
<rect x="900" y="110" width="10" height="10" fill="#000000" />
<rect x="910" y="110" width="10" height="10" fill="#000000" />
<rect x="960" y="110" width="10" height="10" fill="#000000" />
<rect x="990" y="110" width="10" height="10" fill="#000000" />
<rect x="1080" y="110" width="10" height="10" fill="#000000" />
<rect x="1110" y="110" width="10" height="10" fill="#000000" />
<rect x="1120" y="110" width="10" height="10" fill="#000000" />
<rect x="1130" y="110" width="10" height="10" fill="#000000" />
<rect x="1140" y="110" width="10" height="10" fill="#000000" />
<rect x="1150" y="110" width="10" height="10" fill="#000000" />
<rect x="1160" y="110" width="10" height="10" fill="#000000" />
<rect x="1190" y="110" width="10" height="10" fill="#000000" />
<rect x="1200" y="110" width="10" height="10" fill="#000000" />
<rect x="1210" y="110" width="10" height="10" fill="#000000" />
<rect x="1260" y="110" width="10" height="10" fill="#000000" />
<rect x="1270" y="110" width="10" height="10" fill="#000000" />
<rect x="1280" y="110" width="10" height="10" fill="#000000" />
<rect x="1330" y="110" width="10" height="10" fill="#000000" />
<rect x="1370" y="110" width="10" height="10" fill="#000000" />
<rect x="1400" y="110" width="10" height="10" fill="#000000" />
<rect x="1410" y="110" width="10" height="10" fill="#000000" />
<rect x="1470" y="110" width="10" height="10" fill="#000000" />
<rect x="1530" y="110" width="10" height="10" fill="#000000" />
<rect x="1540" y="110" width="10" height="10" fill="#000000" />
<rect x="1570" y="110" width="10" height="10" fill="#000000" />
<rect x="1590" y="110" width="10" height="10" fill="#000000" />
<rect x="1620" y="110" width="10" height="10" fill="#000000" />
<rect x="20" y="120" width="10" height="10" fill="#000000" />
<rect x="140" y="120" width="10" height="10" fill="#000000" />
<rect x="190" y="120" width="10" height="10" fill="#000000" />
<rect x="200" y="120" width="10" height="10" fill="#000000" />
<rect x="240" y="120" width="10" height="10" fill="#000000" />
<rect x="280" y="120" width="10" height="10" fill="#000000" />
<rect x="290" y="120" width="10" height="10" fill="#000000" />
<rect x="350" y="120" width="10" height="10" fill="#000000" />
<rect x="360" y="120" width="10" height="10" fill="#000000" />
<rect x="400" y="120" width="10" height="10" fill="#000000" />
<rect x="500" y="120" width="10" height="10" fill="#000000" />
<rect x="550" y="120" width="10" height="10" fill="#000000" />
<rect x="580" y="120" width="10" height="10" fill="#000000" />
<rect x="590" y="120" width="10" height="10" fill="#000000" />
<rect x="600" y="120" width="10" height="10" fill="#000000" />
<rect x="610" y="120" width="10" height="10" fill="#000000" />
<rect x="640" y="120" width="10" height="10" fill="#000000" />
<rect x="710" y="120" width="10" height="10" fill="#000000" />
<rect x="740" y="120" width="10" height="10" fill="#000000" />
<rect x="750" y="120" width="10" height="10" fill="#000000" />
<rect x="840" y="120" width="10" height="10" fill="#000000" />
<rect x="900" y="120" width="10" height="10" fill="#000000" />
<rect x="910" y="120" width="10" height="10" fill="#000000" />
<rect x="920" y="120" width="10" height="10" fill="#000000" />
<rect x="960" y="120" width="10" height="10" fill="#000000" />
<rect x="990" y="120" width="10" height="10" fill="#000000" />
<rect x="1080" y="120" width="10" height="10" fill="#000000" />
<rect x="1090" y="120" width="10" height="10" fill="#000000" />
<rect x="1150" y="120" width="10" height="10" fill="#000000" />
<rect x="1160" y="120" width="10" height="10" fill="#000000" />
<rect x="1190" y="120" width="10" height="10" fill="#000000" />
<rect x="1210" y="120" width="10" height="10" fill="#000000" />
<rect x="1220" y="120" width="10" height="10" fill="#000000" />
<rect x="1270" y="120" width="10" height="10" fill="#000000" />
<rect x="1330" y="120" width="10" height="10" fill="#000000" />
<rect x="1370" y="120" width="10" height="10" fill="#000000" />
<rect x="1380" y="120" width="10" height="10" fill="#000000" />
<rect x="1390" y="120" width="10" height="10" fill="#000000" />
<rect x="1400" y="120" width="10" height="10" fill="#000000" />
<rect x="1460" y="120" width="10" height="10" fill="#000000" />
<rect x="1540" y="120" width="10" height="10" fill="#000000" />
<rect x="1570" y="120" width="10" height="10" fill="#000000" />
<rect x="1590" y="120" width="10" height="10" fill="#000000" />
<rect x="1620" y="120" width="10" height="10" fill="#000000" />
<rect x="20" y="130" width="10" height="10" fill="#000000" />
<rect x="120" y="130" width="10" height="10" fill="#000000" />
<rect x="130" y="130" width="10" height="10" fill="#000000" />
<rect x="140" y="130" width="10" height="10" fill="#000000" />
<rect x="150" y="130" width="10" height="10" fill="#000000" />
<rect x="160" y="130" width="10" height="10" fill="#000000" />
<rect x="200" y="130" width="10" height="10" fill="#000000" />
<rect x="230" y="130" width="10" height="10" fill="#000000" />
<rect x="240" y="130" width="10" height="10" fill="#000000" />
<rect x="280" y="130" width="10" height="10" fill="#000000" />
<rect x="350" y="130" width="10" height="10" fill="#000000" />
<rect x="360" y="130" width="10" height="10" fill="#000000" />
<rect x="370" y="130" width="10" height="10" fill="#000000" />
<rect x="400" y="130" width="10" height="10" fill="#000000" />
<rect x="490" y="130" width="10" height="10" fill="#000000" />
<rect x="500" y="130" width="10" height="10" fill="#000000" />
<rect x="540" y="130" width="10" height="10" fill="#000000" />
<rect x="580" y="130" width="10" height="10" fill="#000000" />
<rect x="590" y="130" width="10" height="10" fill="#000000" />
<rect x="600" y="130" width="10" height="10" fill="#000000" />
<rect x="610" y="130" width="10" height="10" fill="#000000" />
<rect x="630" y="130" width="10" height="10" fill="#000000" />
<rect x="640" y="130" width="10" height="10" fill="#000000" />
<rect x="710" y="130" width="10" height="10" fill="#000000" />
<rect x="730" y="130" width="10" height="10" fill="#000000" />
<rect x="740" y="130" width="10" height="10" fill="#000000" />
<rect x="840" y="130" width="10" height="10" fill="#000000" />
<rect x="900" y="130" width="10" height="10" fill="#000000" />
<rect x="930" y="130" width="10" height="10" fill="#000000" />
<rect x="940" y="130" width="10" height="10" fill="#000000" />
<rect x="960" y="130" width="10" height="10" fill="#000000" />
<rect x="990" y="130" width="10" height="10" fill="#000000" />
<rect x="1000" y="130" width="10" height="10" fill="#000000" />
<rect x="1090" y="130" width="10" height="10" fill="#000000" />
<rect x="1140" y="130" width="10" height="10" fill="#000000" />
<rect x="1150" y="130" width="10" height="10" fill="#000000" />
<rect x="1190" y="130" width="10" height="10" fill="#000000" />
<rect x="1200" y="130" width="10" height="10" fill="#000000" />
<rect x="1210" y="130" width="10" height="10" fill="#000000" />
<rect x="1220" y="130" width="10" height="10" fill="#000000" />
<rect x="1230" y="130" width="10" height="10" fill="#000000" />
<rect x="1270" y="130" width="10" height="10" fill="#000000" />
<rect x="1330" y="130" width="10" height="10" fill="#000000" />
<rect x="1370" y="130" width="10" height="10" fill="#000000" />
<rect x="1380" y="130" width="10" height="10" fill="#000000" />
<rect x="1450" y="130" width="10" height="10" fill="#000000" />
<rect x="1460" y="130" width="10" height="10" fill="#000000" />
<rect x="1520" y="130" width="10" height="10" fill="#000000" />
<rect x="1530" y="130" width="10" height="10" fill="#000000" />
<rect x="1540" y="130" width="10" height="10" fill="#000000" />
<rect x="1560" y="130" width="10" height="10" fill="#000000" />
<rect x="1570" y="130" width="10" height="10" fill="#000000" />
<rect x="1600" y="130" width="10" height="10" fill="#000000" />
<rect x="1620" y="130" width="10" height="10" fill="#000000" />
<rect x="20" y="140" width="10" height="10" fill="#000000" />
<rect x="120" y="140" width="10" height="10" fill="#000000" />
<rect x="160" y="140" width="10" height="10" fill="#000000" />
<rect x="200" y="140" width="10" height="10" fill="#000000" />
<rect x="230" y="140" width="10" height="10" fill="#000000" />
<rect x="280" y="140" width="10" height="10" fill="#000000" />
<rect x="290" y="140" width="10" height="10" fill="#000000" />
<rect x="350" y="140" width="10" height="10" fill="#000000" />
<rect x="370" y="140" width="10" height="10" fill="#000000" />
<rect x="400" y="140" width="10" height="10" fill="#000000" />
<rect x="490" y="140" width="10" height="10" fill="#000000" />
<rect x="540" y="140" width="10" height="10" fill="#000000" />
<rect x="580" y="140" width="10" height="10" fill="#000000" />
<rect x="590" y="140" width="10" height="10" fill="#000000" />
<rect x="610" y="140" width="10" height="10" fill="#000000" />
<rect x="630" y="140" width="10" height="10" fill="#000000" />
<rect x="710" y="140" width="10" height="10" fill="#000000" />
<rect x="720" y="140" width="10" height="10" fill="#000000" />
<rect x="730" y="140" width="10" height="10" fill="#000000" />
<rect x="840" y="140" width="10" height="10" fill="#000000" />
<rect x="850" y="140" width="10" height="10" fill="#000000" />
<rect x="890" y="140" width="10" height="10" fill="#000000" />
<rect x="960" y="140" width="10" height="10" fill="#000000" />
<rect x="1000" y="140" width="10" height="10" fill="#000000" />
<rect x="1040" y="140" width="10" height="10" fill="#000000" />
<rect x="1090" y="140" width="10" height="10" fill="#000000" />
<rect x="1120" y="140" width="10" height="10" fill="#000000" />
<rect x="1130" y="140" width="10" height="10" fill="#000000" />
<rect x="1190" y="140" width="10" height="10" fill="#000000" />
<rect x="1230" y="140" width="10" height="10" fill="#000000" />
<rect x="1240" y="140" width="10" height="10" fill="#000000" />
<rect x="1270" y="140" width="10" height="10" fill="#000000" />
<rect x="1330" y="140" width="10" height="10" fill="#000000" />
<rect x="1370" y="140" width="10" height="10" fill="#000000" />
<rect x="1450" y="140" width="10" height="10" fill="#000000" />
<rect x="1510" y="140" width="10" height="10" fill="#000000" />
<rect x="1520" y="140" width="10" height="10" fill="#000000" />
<rect x="1560" y="140" width="10" height="10" fill="#000000" />
<rect x="1600" y="140" width="10" height="10" fill="#000000" />
<rect x="1610" y="140" width="10" height="10" fill="#000000" />
<rect x="1620" y="140" width="10" height="10" fill="#000000" />
<rect x="10" y="150" width="10" height="10" fill="#000000" />
<rect x="110" y="150" width="10" height="10" fill="#000000" />
<rect x="120" y="150" width="10" height="10" fill="#000000" />
<rect x="150" y="150" width="10" height="10" fill="#000000" />
<rect x="160" y="150" width="10" height="10" fill="#000000" />
<rect x="190" y="150" width="10" height="10" fill="#000000" />
<rect x="200" y="150" width="10" height="10" fill="#000000" />
<rect x="210" y="150" width="10" height="10" fill="#000000" />
<rect x="230" y="150" width="10" height="10" fill="#000000" />
<rect x="290" y="150" width="10" height="10" fill="#000000" />
<rect x="350" y="150" width="10" height="10" fill="#000000" />
<rect x="360" y="150" width="10" height="10" fill="#000000" />
<rect x="370" y="150" width="10" height="10" fill="#000000" />
<rect x="380" y="150" width="10" height="10" fill="#000000" />
<rect x="390" y="150" width="10" height="10" fill="#000000" />
<rect x="400" y="150" width="10" height="10" fill="#000000" />
<rect x="410" y="150" width="10" height="10" fill="#000000" />
<rect x="490" y="150" width="10" height="10" fill="#000000" />
<rect x="540" y="150" width="10" height="10" fill="#000000" />
<rect x="620" y="150" width="10" height="10" fill="#000000" />
<rect x="700" y="150" width="10" height="10" fill="#000000" />
<rect x="710" y="150" width="10" height="10" fill="#000000" />
<rect x="720" y="150" width="10" height="10" fill="#000000" />
<rect x="850" y="150" width="10" height="10" fill="#000000" />
<rect x="890" y="150" width="10" height="10" fill="#000000" />
<rect x="960" y="150" width="10" height="10" fill="#000000" />
<rect x="980" y="150" width="10" height="10" fill="#000000" />
<rect x="990" y="150" width="10" height="10" fill="#000000" />
<rect x="1030" y="150" width="10" height="10" fill="#000000" />
<rect x="1040" y="150" width="10" height="10" fill="#000000" />
<rect x="1090" y="150" width="10" height="10" fill="#000000" />
<rect x="1110" y="150" width="10" height="10" fill="#000000" />
<rect x="1120" y="150" width="10" height="10" fill="#000000" />
<rect x="1180" y="150" width="10" height="10" fill="#000000" />
<rect x="1190" y="150" width="10" height="10" fill="#000000" />
<rect x="1280" y="150" width="10" height="10" fill="#000000" />
<rect x="1330" y="150" width="10" height="10" fill="#000000" />
<rect x="1370" y="150" width="10" height="10" fill="#000000" />
<rect x="1450" y="150" width="10" height="10" fill="#000000" />
<rect x="1500" y="150" width="10" height="10" fill="#000000" />
<rect x="1510" y="150" width="10" height="10" fill="#000000" />
<rect x="1560" y="150" width="10" height="10" fill="#000000" />
<rect x="1610" y="150" width="10" height="10" fill="#000000" />
<rect x="10" y="160" width="10" height="10" fill="#000000" />
<rect x="110" y="160" width="10" height="10" fill="#000000" />
<rect x="140" y="160" width="10" height="10" fill="#000000" />
<rect x="150" y="160" width="10" height="10" fill="#000000" />
<rect x="190" y="160" width="10" height="10" fill="#000000" />
<rect x="210" y="160" width="10" height="10" fill="#000000" />
<rect x="230" y="160" width="10" height="10" fill="#000000" />
<rect x="290" y="160" width="10" height="10" fill="#000000" />
<rect x="340" y="160" width="10" height="10" fill="#000000" />
<rect x="350" y="160" width="10" height="10" fill="#000000" />
<rect x="380" y="160" width="10" height="10" fill="#000000" />
<rect x="410" y="160" width="10" height="10" fill="#000000" />
<rect x="420" y="160" width="10" height="10" fill="#000000" />
<rect x="490" y="160" width="10" height="10" fill="#000000" />
<rect x="550" y="160" width="10" height="10" fill="#000000" />
<rect x="600" y="160" width="10" height="10" fill="#000000" />
<rect x="610" y="160" width="10" height="10" fill="#000000" />
<rect x="680" y="160" width="10" height="10" fill="#000000" />
<rect x="690" y="160" width="10" height="10" fill="#000000" />
<rect x="720" y="160" width="10" height="10" fill="#000000" />
<rect x="850" y="160" width="10" height="10" fill="#000000" />
<rect x="880" y="160" width="10" height="10" fill="#000000" />
<rect x="890" y="160" width="10" height="10" fill="#000000" />
<rect x="960" y="160" width="10" height="10" fill="#000000" />
<rect x="970" y="160" width="10" height="10" fill="#000000" />
<rect x="980" y="160" width="10" height="10" fill="#000000" />
<rect x="1030" y="160" width="10" height="10" fill="#000000" />
<rect x="1090" y="160" width="10" height="10" fill="#000000" />
<rect x="1100" y="160" width="10" height="10" fill="#000000" />
<rect x="1110" y="160" width="10" height="10" fill="#000000" />
<rect x="1280" y="160" width="10" height="10" fill="#000000" />
<rect x="1450" y="160" width="10" height="10" fill="#000000" />
<rect x="1480" y="160" width="10" height="10" fill="#000000" />
<rect x="1490" y="160" width="10" height="10" fill="#000000" />
<rect x="10" y="170" width="10" height="10" fill="#000000" />
<rect x="110" y="170" width="10" height="10" fill="#000000" />
<rect x="130" y="170" width="10" height="10" fill="#000000" />
<rect x="140" y="170" width="10" height="10" fill="#000000" />
<rect x="180" y="170" width="10" height="10" fill="#000000" />
<rect x="190" y="170" width="10" height="10" fill="#000000" />
<rect x="210" y="170" width="10" height="10" fill="#000000" />
<rect x="230" y="170" width="10" height="10" fill="#000000" />
<rect x="290" y="170" width="10" height="10" fill="#000000" />
<rect x="330" y="170" width="10" height="10" fill="#000000" />
<rect x="340" y="170" width="10" height="10" fill="#000000" />
<rect x="380" y="170" width="10" height="10" fill="#000000" />
<rect x="430" y="170" width="10" height="10" fill="#000000" />
<rect x="440" y="170" width="10" height="10" fill="#000000" />
<rect x="450" y="170" width="10" height="10" fill="#000000" />
<rect x="460" y="170" width="10" height="10" fill="#000000" />
<rect x="490" y="170" width="10" height="10" fill="#000000" />
<rect x="550" y="170" width="10" height="10" fill="#000000" />
<rect x="560" y="170" width="10" height="10" fill="#000000" />
<rect x="570" y="170" width="10" height="10" fill="#000000" />
<rect x="580" y="170" width="10" height="10" fill="#000000" />
<rect x="590" y="170" width="10" height="10" fill="#000000" />
<rect x="600" y="170" width="10" height="10" fill="#000000" />
<rect x="680" y="170" width="10" height="10" fill="#000000" />
<rect x="720" y="170" width="10" height="10" fill="#000000" />
<rect x="950" y="170" width="10" height="10" fill="#000000" />
<rect x="960" y="170" width="10" height="10" fill="#000000" />
<rect x="1090" y="170" width="10" height="10" fill="#000000" />
<rect x="1100" y="170" width="10" height="10" fill="#000000" />
<rect x="1280" y="170" width="10" height="10" fill="#000000" />
<rect x="1290" y="170" width="10" height="10" fill="#000000" />
<rect x="1460" y="170" width="10" height="10" fill="#000000" />
<rect x="1470" y="170" width="10" height="10" fill="#000000" />
<rect x="1480" y="170" width="10" height="10" fill="#000000" />
<rect x="10" y="180" width="10" height="10" fill="#000000" />
<rect x="110" y="180" width="10" height="10" fill="#000000" />
<rect x="120" y="180" width="10" height="10" fill="#000000" />
<rect x="130" y="180" width="10" height="10" fill="#000000" />
<rect x="170" y="180" width="10" height="10" fill="#000000" />
<rect x="180" y="180" width="10" height="10" fill="#000000" />
<rect x="210" y="180" width="10" height="10" fill="#000000" />
<rect x="220" y="180" width="10" height="10" fill="#000000" />
<rect x="230" y="180" width="10" height="10" fill="#000000" />
<rect x="290" y="180" width="10" height="10" fill="#000000" />
<rect x="340" y="180" width="10" height="10" fill="#000000" />
<rect x="390" y="180" width="10" height="10" fill="#000000" />
<rect x="720" y="180" width="10" height="10" fill="#000000" />
<rect x="730" y="180" width="10" height="10" fill="#000000" />
<rect x="1090" y="180" width="10" height="10" fill="#000000" />
<rect x="10" y="190" width="10" height="10" fill="#000000" />
<rect x="170" y="190" width="10" height="10" fill="#000000" />
<rect x="220" y="190" width="10" height="10" fill="#000000" />
<rect x="230" y="190" width="10" height="10" fill="#000000" />
<rect x="290" y="190" width="10" height="10" fill="#000000" />
<rect x="390" y="190" width="10" height="10" fill="#000000" />
<rect x="400" y="190" width="10" height="10" fill="#000000" />
<rect x="730" y="190" width="10" height="10" fill="#000000" />
<rect x="10" y="200" width="10" height="10" fill="#000000" />
<rect x="70" y="200" width="10" height="10" fill="#000000" />
<rect x="730" y="200" width="10" height="10" fill="#000000" />
<rect x="10" y="210" width="10" height="10" fill="#000000" />
<rect x="20" y="210" width="10" height="10" fill="#000000" />
<rect x="60" y="210" width="10" height="10" fill="#000000" />
<rect x="70" y="210" width="10" height="10" fill="#000000" />
<rect x="20" y="220" width="10" height="10" fill="#000000" />
<rect x="30" y="220" width="10" height="10" fill="#000000" />
<rect x="40" y="220" width="10" height="10" fill="#000000" />
<rect x="50" y="220" width="10" height="10" fill="#000000" />
<rect x="60" y="220" width="10" height="10" fill="#000000" />
</svg>