<?xml version="1.0" encoding="UTF-8" ?>
<svg version="1.1" width="80" height="16" xmlns="http://www.w3.org/2000/svg" shape-rendering="crispEdges">
<rect x="54" y="2" width="1" height="1" fill="#000000" />
<rect x="6" y="3" width="1" height="1" fill="#000000" />
<rect x="7" y="3" width="1" height="1" fill="#000000" />
<rect x="8" y="3" width="1" height="1" fill="#000000" />
<rect x="43" y="3" width="1" height="1" fill="#000000" />
<rect x="50" y="3" width="1" height="1" fill="#000000" />
<rect x="51" y="3" width="1" height="1" fill="#000000" />
<rect x="52" y="3" width="1" height="1" fill="#000000" />
<rect x="53" y="3" width="1" height="1" fill="#000000" />
<rect x="5" y="4" width="1" height="1" fill="#000000" />
<rect x="9" y="4" width="1" height="1" fill="#000000" />
<rect x="10" y="4" width="1" height="1" fill="#000000" />
<rect x="11" y="4" width="1" height="1" fill="#000000" />
<rect x="43" y="4" width="1" height="1" fill="#000000" />
<rect x="48" y="4" width="1" height="1" fill="#000000" />
<rect x="49" y="4" width="1" height="1" fill="#000000" />
<rect x="51" y="4" width="1" height="1" fill="#000000" />
<rect x="57" y="4" width="1" height="1" fill="#000000" />
<rect x="4" y="5" width="1" height="1" fill="#000000" />
<rect x="44" y="5" width="1" height="1" fill="#000000" />
<rect x="51" y="5" width="1" height="1" fill="#000000" />
<rect x="57" y="5" width="1" height="1" fill="#000000" />
<rect x="74" y="5" width="1" height="1" fill="#000000" />
<rect x="75" y="5" width="1" height="1" fill="#000000" />
<rect x="4" y="6" width="1" height="1" fill="#000000" />
<rect x="5" y="6" width="1" height="1" fill="#000000" />
<rect x="21" y="6" width="1" height="1" fill="#000000" />
<rect x="44" y="6" width="1" height="1" fill="#000000" />
<rect x="51" y="6" width="1" height="1" fill="#000000" />
<rect x="58" y="6" width="1" height="1" fill="#000000" />
<rect x="60" y="6" width="1" height="1" fill="#000000" />
<rect x="61" y="6" width="1" height="1" fill="#000000" />
<rect x="68" y="6" width="1" height="1" fill="#000000" />
<rect x="70" y="6" width="1" height="1" fill="#000000" />
<rect x="71" y="6" width="1" height="1" fill="#000000" />
<rect x="73" y="6" width="1" height="1" fill="#000000" />
<rect x="3" y="7" width="1" height="1" fill="#000000" />
<rect x="6" y="7" width="1" height="1" fill="#000000" />
<rect x="7" y="7" width="1" height="1" fill="#000000" />
<rect x="8" y="7" width="1" height="1" fill="#000000" />
<rect x="11" y="7" width="1" height="1" fill="#000000" />
<rect x="12" y="7" width="1" height="1" fill="#000000" />
<rect x="13" y="7" width="1" height="1" fill="#000000" />
<rect x="22" y="7" width="1" height="1" fill="#000000" />
<rect x="23" y="7" width="1" height="1" fill="#000000" />
<rect x="24" y="7" width="1" height="1" fill="#000000" />
<rect x="29" y="7" width="1" height="1" fill="#000000" />
<rect x="31" y="7" width="1" height="1" fill="#000000" />
<rect x="34" y="7" width="1" height="1" fill="#000000" />
<rect x="44" y="7" width="1" height="1" fill="#000000" />
<rect x="51" y="7" width="1" height="1" fill="#000000" />
<rect x="56" y="7" width="1" height="1" fill="#000000" />
<rect x="57" y="7" width="1" height="1" fill="#000000" />
<rect x="58" y="7" width="1" height="1" fill="#000000" />
<rect x="59" y="7" width="1" height="1" fill="#000000" />
<rect x="63" y="7" width="1" height="1" fill="#000000" />
<rect x="64" y="7" width="1" height="1" fill="#000000" />
<rect x="67" y="7" width="1" height="1" fill="#000000" />
<rect x="69" y="7" width="1" height="1" fill="#000000" />
<rect x="71" y="7" width="1" height="1" fill="#000000" />
<rect x="74" y="7" width="1" height="1" fill="#000000" />
<rect x="75" y="7" width="1" height="1" fill="#000000" />
<rect x="3" y="8" width="1" height="1" fill="#000000" />
<rect x="10" y="8" width="1" height="1" fill="#000000" />
<rect x="13" y="8" width="1" height="1" fill="#000000" />
<rect x="16" y="8" width="1" height="1" fill="#000000" />
<rect x="17" y="8" width="1" height="1" fill="#000000" />
<rect x="20" y="8" width="1" height="1" fill="#000000" />
<rect x="21" y="8" width="1" height="1" fill="#000000" />
<rect x="22" y="8" width="1" height="1" fill="#000000" />
<rect x="26" y="8" width="1" height="1" fill="#000000" />
<rect x="29" y="8" width="1" height="1" fill="#000000" />
<rect x="31" y="8" width="1" height="1" fill="#000000" />
<rect x="32" y="8" width="1" height="1" fill="#000000" />
<rect x="33" y="8" width="1" height="1" fill="#000000" />
<rect x="36" y="8" width="1" height="1" fill="#000000" />
<rect x="37" y="8" width="1" height="1" fill="#000000" />
<rect x="38" y="8" width="1" height="1" fill="#000000" />
<rect x="41" y="8" width="1" height="1" fill="#000000" />
<rect x="42" y="8" width="1" height="1" fill="#000000" />
<rect x="43" y="8" width="1" height="1" fill="#000000" />
<rect x="44" y="8" width="1" height="1" fill="#000000" />
<rect x="51" y="8" width="1" height="1" fill="#000000" />
<rect x="58" y="8" width="1" height="1" fill="#000000" />
<rect x="62" y="8" width="1" height="1" fill="#000000" />
<rect x="65" y="8" width="1" height="1" fill="#000000" />
<rect x="67" y="8" width="1" height="1" fill="#000000" />
<rect x="69" y="8" width="1" height="1" fill="#000000" />
<rect x="72" y="8" width="1" height="1" fill="#000000" />
<rect x="76" y="8" width="1" height="1" fill="#000000" />
<rect x="3" y="9" width="1" height="1" fill="#000000" />
<rect x="10" y="9" width="1" height="1" fill="#000000" />
<rect x="11" y="9" width="1" height="1" fill="#000000" />
<rect x="12" y="9" width="1" height="1" fill="#000000" />
<rect x="13" y="9" width="1" height="1" fill="#000000" />
<rect x="15" y="9" width="1" height="1" fill="#000000" />
<rect x="18" y="9" width="1" height="1" fill="#000000" />
<rect x="22" y="9" width="1" height="1" fill="#000000" />
<rect x="26" y="9" width="1" height="1" fill="#000000" />
<rect x="29" y="9" width="1" height="1" fill="#000000" />
<rect x="31" y="9" width="1" height="1" fill="#000000" />
<rect x="35" y="9" width="1" height="1" fill="#000000" />
<rect x="38" y="9" width="1" height="1" fill="#000000" />
<rect x="40" y="9" width="1" height="1" fill="#000000" />
<rect x="44" y="9" width="1" height="1" fill="#000000" />
<rect x="51" y="9" width="1" height="1" fill="#000000" />
<rect x="58" y="9" width="1" height="1" fill="#000000" />
<rect x="62" y="9" width="1" height="1" fill="#000000" />
<rect x="64" y="9" width="1" height="1" fill="#000000" />
<rect x="65" y="9" width="1" height="1" fill="#000000" />
<rect x="67" y="9" width="1" height="1" fill="#000000" />
<rect x="70" y="9" width="1" height="1" fill="#000000" />
<rect x="74" y="9" width="1" height="1" fill="#000000" />
<rect x="75" y="9" width="1" height="1" fill="#000000" />
<rect x="10" y="10" width="1" height="1" fill="#000000" />
<rect x="15" y="10" width="1" height="1" fill="#000000" />
<rect x="18" y="10" width="1" height="1" fill="#000000" />
<rect x="22" y="10" width="1" height="1" fill="#000000" />
<rect x="26" y="10" width="1" height="1" fill="#000000" />
<rect x="29" y="10" width="1" height="1" fill="#000000" />
<rect x="31" y="10" width="1" height="1" fill="#000000" />
<rect x="35" y="10" width="1" height="1" fill="#000000" />
<rect x="36" y="10" width="1" height="1" fill="#000000" />
<rect x="37" y="10" width="1" height="1" fill="#000000" />
<rect x="40" y="10" width="1" height="1" fill="#000000" />
<rect x="44" y="10" width="1" height="1" fill="#000000" />
<rect x="51" y="10" width="1" height="1" fill="#000000" />
<rect x="55" y="10" width="1" height="1" fill="#000000" />
<rect x="59" y="10" width="1" height="1" fill="#000000" />
<rect x="62" y="10" width="1" height="1" fill="#000000" />
<rect x="63" y="10" width="1" height="1" fill="#000000" />
<rect x="68" y="10" width="1" height="1" fill="#000000" />
<rect x="3" y="11" width="1" height="1" fill="#000000" />
<rect x="4" y="11" width="1" height="1" fill="#000000" />
<rect x="5" y="11" width="1" height="1" fill="#000000" />
<rect x="6" y="11" width="1" height="1" fill="#000000" />
<rect x="7" y="11" width="1" height="1" fill="#000000" />
<rect x="8" y="11" width="1" height="1" fill="#000000" />
<rect x="11" y="11" width="1" height="1" fill="#000000" />
<rect x="15" y="11" width="1" height="1" fill="#000000" />
<rect x="18" y="11" width="1" height="1" fill="#000000" />
<rect x="22" y="11" width="1" height="1" fill="#000000" />
<rect x="26" y="11" width="1" height="1" fill="#000000" />
<rect x="29" y="11" width="1" height="1" fill="#000000" />
<rect x="31" y="11" width="1" height="1" fill="#000000" />
<rect x="35" y="11" width="1" height="1" fill="#000000" />
<rect x="40" y="11" width="1" height="1" fill="#000000" />
<rect x="44" y="11" width="1" height="1" fill="#000000" />
<rect x="50" y="11" width="1" height="1" fill="#000000" />
<rect x="51" y="11" width="1" height="1" fill="#000000" />
<rect x="52" y="11" width="1" height="1" fill="#000000" />
<rect x="53" y="11" width="1" height="1" fill="#000000" />
<rect x="54" y="11" width="1" height="1" fill="#000000" />
<rect x="59" y="11" width="1" height="1" fill="#000000" />
<rect x="62" y="11" width="1" height="1" fill="#000000" />
<rect x="71" y="11" width="1" height="1" fill="#000000" />
<rect x="72" y="11" width="1" height="1" fill="#000000" />
<rect x="73" y="11" width="1" height="1" fill="#000000" />
<rect x="74" y="11" width="1" height="1" fill="#000000" />
<rect x="75" y="11" width="1" height="1" fill="#000000" />
<rect x="76" y="11" width="1" height="1" fill="#000000" />
<rect x="2" y="12" width="1" height="1" fill="#000000" />
<rect x="9" y="12" width="1" height="1" fill="#000000" />
<rect x="16" y="12" width="1" height="1" fill="#000000" />
<rect x="17" y="12" width="1" height="1" fill="#000000" />
<rect x="19" y="12" width="1" height="1" fill="#000000" />
<rect x="23" y="12" width="1" height="1" fill="#000000" />
<rect x="27" y="12" width="1" height="1" fill="#000000" />
<rect x="28" y="12" width="1" height="1" fill="#000000" />
<rect x="31" y="12" width="1" height="1" fill="#000000" />
<rect x="36" y="12" width="1" height="1" fill="#000000" />
<rect x="37" y="12" width="1" height="1" fill="#000000" />
<rect x="38" y="12" width="1" height="1" fill="#000000" />
<rect x="41" y="12" width="1" height="1" fill="#000000" />
<rect x="42" y="12" width="1" height="1" fill="#000000" />
<rect x="43" y="12" width="1" height="1" fill="#000000" />
<rect x="48" y="12" width="1" height="1" fill="#000000" />
<rect x="49" y="12" width="1" height="1" fill="#000000" />
<rect x="59" y="12" width="1" height="1" fill="#000000" />
<rect x="63" y="12" width="1" height="1" fill="#000000" />
<rect x="64" y="12" width="1" height="1" fill="#000000" />
<rect x="65" y="12" width="1" height="1" fill="#000000" />
<rect x="70" y="12" width="1" height="1" fill="#000000" />
<rect x="77" y="12" width="1" height="1" fill="#000000" />
<rect x="1" y="13" width="1" height="1" fill="#000000" />
<rect x="5" y="13" width="1" height="1" fill="#000000" />
<rect x="10" y="13" width="1" height="1" fill="#000000" />
<rect x="11" y="13" width="1" height="1" fill="#000000" />
<rect x="12" y="13" width="1" height="1" fill="#000000" />
<rect x="67" y="13" width="1" height="1" fill="#000000" />
<rect x="68" y="13" width="1" height="1" fill="#000000" />
<rect x="69" y="13" width="1" height="1" fill="#000000" />
<rect x="74" y="13" width="1" height="1" fill="#000000" />
<rect x="78" y="13" width="1" height="1" fill="#000000" />
<rect x="2" y="14" width="1" height="1" fill="#000000" />
<rect x="5" y="14" width="1" height="1" fill="#000000" />
<rect x="13" y="14" width="1" height="1" fill="#000000" />
<rect x="14" y="14" width="1" height="1" fill="#000000" />
<rect x="15" y="14" width="1" height="1" fill="#000000" />
<rect x="16" y="14" width="1" height="1" fill="#000000" />
<rect x="17" y="14" width="1" height="1" fill="#000000" />
<rect x="23" y="14" width="1" height="1" fill="#000000" />
<rect x="24" y="14" width="1" height="1" fill="#000000" />
<rect x="25" y="14" width="1" height="1" fill="#000000" />
<rect x="26" y="14" width="1" height="1" fill="#000000" />
<rect x="27" y="14" width="1" height="1" fill="#000000" />
<rect x="28" y="14" width="1" height="1" fill="#000000" />
<rect x="29" y="14" width="1" height="1" fill="#000000" />
<rect x="30" y="14" width="1" height="1" fill="#000000" />
<rect x="31" y="14" width="1" height="1" fill="#000000" />
<rect x="32" y="14" width="1" height="1" fill="#000000" />
<rect x="33" y="14" width="1" height="1" fill="#000000" />
<rect x="34" y="14" width="1" height="1" fill="#000000" />
<rect x="35" y="14" width="1" height="1" fill="#000000" />
<rect x="36" y="14" width="1" height="1" fill="#000000" />
<rect x="37" y="14" width="1" height="1" fill="#000000" />
<rect x="38" y="14" width="1" height="1" fill="#000000" />
<rect x="39" y="14" width="1" height="1" fill="#000000" />
<rect x="40" y="14" width="1" height="1" fill="#000000" />
<rect x="41" y="14" width="1" height="1" fill="#000000" />
<rect x="42" y="14" width="1" height="1" fill="#000000" />
<rect x="43" y="14" width="1" height="1" fill="#000000" />
<rect x="44" y="14" width="1" height="1" fill="#000000" />
<rect x="45" y="14" width="1" height="1" fill="#000000" />
<rect x="46" y="14" width="1" height="1" fill="#000000" />
<rect x="47" y="14" width="1" height="1" fill="#000000" />
<rect x="48" y="14" width="1" height="1" fill="#000000" />
<rect x="49" y="14" width="1" height="1" fill="#000000" />
<rect x="50" y="14" width="1" height="1" fill="#000000" />
<rect x="51" y="14" width="1" height="1" fill="#000000" />
<rect x="52" y="14" width="1" height="1" fill="#000000" />
<rect x="53" y="14" width="1" height="1" fill="#000000" />
<rect x="54" y="14" width="1" height="1" fill="#000000" />
<rect x="55" y="14" width="1" height="1" fill="#000000" />
<rect x="61" y="14" width="1" height="1" fill="#000000" />
<rect x="62" y="14" width="1" height="1" fill="#000000" />
<rect x="63" y="14" width="1" height="1" fill="#000000" />
<rect x="64" y="14" width="1" height="1" fill="#000000" />
<rect x="65" y="14" width="1" height="1" fill="#000000" />
<rect x="66" y="14" width="1" height="1" fill="#000000" />
<rect x="74" y="14" width="1" height="1" fill="#000000" />
<rect x="77" y="14" width="1" height="1" fill="#000000" />
<rect x="3" y="15" width="1" height="1" fill="#000000" />
<rect x="4" y="15" width="1" height="1" fill="#000000" />
<rect x="18" y="15" width="1" height="1" fill="#000000" />
<rect x="19" y="15" width="1" height="1" fill="#000000" />
<rect x="20" y="15" width="1" height="1" fill="#000000" />
<rect x="21" y="15" width="1" height="1" fill="#000000" />
<rect x="22" y="15" width="1" height="1" fill="#000000" />
<rect x="56" y="15" width="1" height="1" fill="#000000" />
<rect x="57" y="15" width="1" height="1" fill="#000000" />
<rect x="58" y="15" width="1" height="1" fill="#000000" />
<rect x="59" y="15" width="1" height="1" fill="#000000" />
<rect x="60" y="15" width="1" height="1" fill="#000000" />
<rect x="75" y="15" width="1" height="1" fill="#000000" />
<rect x="76" y="15" width="1" height="1" fill="#000000" />
</svg>