<?xml version="1.0" encoding="UTF-8" ?>
<svg version="1.1" width="320" height="150" xmlns="http://www.w3.org/2000/svg" shape-rendering="crispEdges">
<rect x="20" y="30" width="10" height="10" fill="#000000" />
<rect x="30" y="30" width="10" height="10" fill="#000000" />
<rect x="40" y="30" width="10" height="10" fill="#000000" />
<rect x="120" y="30" width="10" height="10" fill="#000000" />
<rect x="130" y="30" width="10" height="10" fill="#000000" />
<rect x="150" y="30" width="10" height="10" fill="#000000" />
<rect x="160" y="30" width="10" height="10" fill="#000000" />
<rect x="260" y="30" width="10" height="10" fill="#000000" />
<rect x="280" y="30" width="10" height="10" fill="#000000" />
<rect x="300" y="30" width="10" height="10" fill="#000000" />
<rect x="20" y="40" width="10" height="10" fill="#000000" />
<rect x="50" y="40" width="10" height="10" fill="#000000" />
<rect x="120" y="40" width="10" height="10" fill="#000000" />
<rect x="140" y="40" width="10" height="10" fill="#000000" />
<rect x="160" y="40" width="10" height="10" fill="#000000" />
<rect x="250" y="40" width="10" height="10" fill="#000000" />
<rect x="270" y="40" width="10" height="10" fill="#000000" />
<rect x="290" y="40" width="10" height="10" fill="#000000" />
<rect x="310" y="40" width="10" height="10" fill="#000000" />
<rect x="10" y="50" width="10" height="10" fill="#000000" />
<rect x="20" y="50" width="10" height="10" fill="#000000" />
<rect x="30" y="50" width="10" height="10" fill="#000000" />
<rect x="50" y="50" width="10" height="10" fill="#000000" />
<rect x="120" y="50" width="10" height="10" fill="#000000" />
<rect x="130" y="50" width="10" height="10" fill="#000000" />
<rect x="150" y="50" width="10" height="10" fill="#000000" />
<rect x="250" y="50" width="10" height="10" fill="#000000" />
<rect x="310" y="50" width="10" height="10" fill="#000000" />
<rect x="0" y="60" width="10" height="10" fill="#000000" />
<rect x="30" y="60" width="10" height="10" fill="#000000" />
<rect x="40" y="60" width="10" height="10" fill="#000000" />
<rect x="60" y="60" width="10" height="10" fill="#000000" />
<rect x="140" y="60" width="10" height="10" fill="#000000" />
<rect x="150" y="60" width="10" height="10" fill="#000000" />
<rect x="260" y="60" width="10" height="10" fill="#000000" />
<rect x="300" y="60" width="10" height="10" fill="#000000" />
<rect x="10" y="70" width="10" height="10" fill="#000000" />
<rect x="20" y="70" width="10" height="10" fill="#000000" />
<rect x="40" y="70" width="10" height="10" fill="#000000" />
<rect x="70" y="70" width="10" height="10" fill="#000000" />
<rect x="150" y="70" width="10" height="10" fill="#000000" />
<rect x="260" y="70" width="10" height="10" fill="#000000" />
<rect x="270" y="70" width="10" height="10" fill="#000000" />
<rect x="280" y="70" width="10" height="10" fill="#000000" />
<rect x="290" y="70" width="10" height="10" fill="#000000" />
<rect x="10" y="80" width="10" height="10" fill="#000000" />
<rect x="40" y="80" width="10" height="10" fill="#000000" />
<rect x="50" y="80" width="10" height="10" fill="#000000" />
<rect x="60" y="80" width="10" height="10" fill="#000000" />
<rect x="160" y="80" width="10" height="10" fill="#000000" />
<rect x="180" y="80" width="10" height="10" fill="#000000" />
<rect x="190" y="80" width="10" height="10" fill="#000000" />
<rect x="270" y="80" width="10" height="10" fill="#000000" />
<rect x="20" y="90" width="10" height="10" fill="#000000" />
<rect x="30" y="90" width="10" height="10" fill="#000000" />
<rect x="50" y="90" width="10" height="10" fill="#000000" />
<rect x="140" y="90" width="10" height="10" fill="#000000" />
<rect x="160" y="90" width="10" height="10" fill="#000000" />
<rect x="170" y="90" width="10" height="10" fill="#000000" />
<rect x="180" y="90" width="10" height="10" fill="#000000" />
<rect x="260" y="90" width="10" height="10" fill="#000000" />
<rect x="50" y="100" width="10" height="10" fill="#000000" />
<rect x="70" y="100" width="10" height="10" fill="#000000" />
<rect x="80" y="100" width="10" height="10" fill="#000000" />
<rect x="150" y="100" width="10" height="10" fill="#000000" />
<rect x="160" y="100" width="10" height="10" fill="#000000" />
<rect x="170" y="100" width="10" height="10" fill="#000000" />
<rect x="230" y="100" width="10" height="10" fill="#000000" />
<rect x="240" y="100" width="10" height="10" fill="#000000" />
<rect x="260" y="100" width="10" height="10" fill="#000000" />
<rect x="280" y="100" width="10" height="10" fill="#000000" />
<rect x="40" y="110" width="10" height="10" fill="#000000" />
<rect x="50" y="110" width="10" height="10" fill="#000000" />
<rect x="60" y="110" width="10" height="10" fill="#000000" />
<rect x="70" y="110" width="10" height="10" fill="#000000" />
<rect x="160" y="110" width="10" height="10" fill="#000000" />
<rect x="240" y="110" width="10" height="10" fill="#000000" />
<rect x="250" y="110" width="10" height="10" fill="#000000" />
<rect x="260" y="110" width="10" height="10" fill="#000000" />
<rect x="270" y="110" width="10" height="10" fill="#000000" />
<rect x="50" y="120" width="10" height="10" fill="#000000" />
<rect x="60" y="120" width="10" height="10" fill="#000000" />
<rect x="150" y="120" width="10" height="10" fill="#000000" />
<rect x="160" y="120" width="10" height="10" fill="#000000" />
<rect x="250" y="120" width="10" height="10" fill="#000000" />
<rect x="260" y="120" width="10" height="10" fill="#000000" />
<rect x="60" y="130" width="10" height="10" fill="#000000" />
<rect x="150" y="130" width="10" height="10" fill="#000000" />
<rect x="250" y="130" width="10" height="10" fill="#000000" />
<rect x="60" y="140" width="10" height="10" fill="#000000" />
<rect x="150" y="140" width="10" height="10" fill="#000000" />
<rect x="250" y="140" width="10" height="10" fill="#000000" />
</svg>