<?xml version="1.0" encoding="UTF-8" ?>
<svg version="1.1" width="132" height="17" xmlns="http://www.w3.org/2000/svg" shape-rendering="crispEdges">
<rect x="0" y="0" width="1" height="1" fill="#000000" />
<rect x="1" y="0" width="1" height="1" fill="#000000" />
<rect x="3" y="0" width="1" height="1" fill="#000000" />
<rect x="4" y="0" width="1" height="1" fill="#000000" />
<rect x="5" y="0" width="1" height="1" fill="#000000" />
<rect x="7" y="0" width="1" height="1" fill="#000000" />
<rect x="8" y="0" width="1" height="1" fill="#000000" />
<rect x="9" y="0" width="1" height="1" fill="#000000" />
<rect x="11" y="0" width="1" height="1" fill="#000000" />
<rect x="12" y="0" width="1" height="1" fill="#000000" />
<rect x="13" y="0" width="1" height="1" fill="#000000" />
<rect x="15" y="0" width="1" height="1" fill="#000000" />
<rect x="16" y="0" width="1" height="1" fill="#000000" />
<rect x="17" y="0" width="1" height="1" fill="#000000" />
<rect x="19" y="0" width="1" height="1" fill="#000000" />
<rect x="20" y="0" width="1" height="1" fill="#000000" />
<rect x="21" y="0" width="1" height="1" fill="#000000" />
<rect x="23" y="0" width="1" height="1" fill="#000000" />
<rect x="24" y="0" width="1" height="1" fill="#000000" />
<rect x="25" y="0" width="1" height="1" fill="#000000" />
<rect x="27" y="0" width="1" height="1" fill="#000000" />
<rect x="28" y="0" width="1" height="1" fill="#000000" />
<rect x="29" y="0" width="1" height="1" fill="#000000" />
<rect x="31" y="0" width="1" height="1" fill="#000000" />
<rect x="32" y="0" width="1" height="1" fill="#000000" />
<rect x="33" y="0" width="1" height="1" fill="#000000" />
<rect x="34" y="0" width="1" height="1" fill="#000000" />
<rect x="35" y="0" width="1" height="1" fill="#000000" />
<rect x="37" y="0" width="1" height="1" fill="#000000" />
<rect x="38" y="0" width="1" height="1" fill="#000000" />
<rect x="39" y="0" width="1" height="1" fill="#000000" />
<rect x="41" y="0" width="1" height="1" fill="#000000" />
<rect x="42" y="0" width="1" height="1" fill="#000000" />
<rect x="43" y="0" width="1" height="1" fill="#000000" />
<rect x="45" y="0" width="1" height="1" fill="#000000" />
<rect x="46" y="0" width="1" height="1" fill="#000000" />
<rect x="47" y="0" width="1" height="1" fill="#000000" />
<rect x="49" y="0" width="1" height="1" fill="#000000" />
<rect x="50" y="0" width="1" height="1" fill="#000000" />
<rect x="51" y="0" width="1" height="1" fill="#000000" />
<rect x="53" y="0" width="1" height="1" fill="#000000" />
<rect x="54" y="0" width="1" height="1" fill="#000000" />
<rect x="55" y="0" width="1" height="1" fill="#000000" />
<rect x="57" y="0" width="1" height="1" fill="#000000" />
<rect x="58" y="0" width="1" height="1" fill="#000000" />
<rect x="59" y="0" width="1" height="1" fill="#000000" />
<rect x="61" y="0" width="1" height="1" fill="#000000" />
<rect x="62" y="0" width="1" height="1" fill="#000000" />
<rect x="63" y="0" width="1" height="1" fill="#000000" />
<rect x="65" y="0" width="1" height="1" fill="#000000" />
<rect x="67" y="0" width="1" height="1" fill="#000000" />
<rect x="68" y="0" width="1" height="1" fill="#000000" />
<rect x="69" y="0" width="1" height="1" fill="#000000" />
<rect x="71" y="0" width="1" height="1" fill="#000000" />
<rect x="72" y="0" width="1" height="1" fill="#000000" />
<rect x="73" y="0" width="1" height="1" fill="#000000" />
<rect x="75" y="0" width="1" height="1" fill="#000000" />
<rect x="76" y="0" width="1" height="1" fill="#000000" />
<rect x="77" y="0" width="1" height="1" fill="#000000" />
<rect x="79" y="0" width="1" height="1" fill="#000000" />
<rect x="80" y="0" width="1" height="1" fill="#000000" />
<rect x="81" y="0" width="1" height="1" fill="#000000" />
<rect x="83" y="0" width="1" height="1" fill="#000000" />
<rect x="84" y="0" width="1" height="1" fill="#000000" />
<rect x="85" y="0" width="1" height="1" fill="#000000" />
<rect x="87" y="0" width="1" height="1" fill="#000000" />
<rect x="88" y="0" width="1" height="1" fill="#000000" />
<rect x="89" y="0" width="1" height="1" fill="#000000" />
<rect x="91" y="0" width="1" height="1" fill="#000000" />
<rect x="92" y="0" width="1" height="1" fill="#000000" />
<rect x="93" y="0" width="1" height="1" fill="#000000" />
<rect x="95" y="0" width="1" height="1" fill="#000000" />
<rect x="96" y="0" width="1" height="1" fill="#000000" />
<rect x="97" y="0" width="1" height="1" fill="#000000" />
<rect x="99" y="0" width="1" height="1" fill="#000000" />
<rect x="101" y="0" width="1" height="1" fill="#000000" />
<rect x="102" y="0" width="1" height="1" fill="#000000" />
<rect x="103" y="0" width="1" height="1" fill="#000000" />
<rect x="105" y="0" width="1" height="1" fill="#000000" />
<rect x="106" y="0" width="1" height="1" fill="#000000" />
<rect x="107" y="0" width="1" height="1" fill="#000000" />
<rect x="109" y="0" width="1" height="1" fill="#000000" />
<rect x="110" y="0" width="1" height="1" fill="#000000" />
<rect x="111" y="0" width="1" height="1" fill="#000000" />
<rect x="113" y="0" width="1" height="1" fill="#000000" />
<rect x="114" y="0" width="1" height="1" fill="#000000" />
<rect x="115" y="0" width="1" height="1" fill="#000000" />
<rect x="117" y="0" width="1" height="1" fill="#000000" />
<rect x="118" y="0" width="1" height="1" fill="#000000" />
<rect x="119" y="0" width="1" height="1" fill="#000000" />
<rect x="121" y="0" width="1" height="1" fill="#000000" />
<rect x="122" y="0" width="1" height="1" fill="#000000" />
<rect x="123" y="0" width="1" height="1" fill="#000000" />
<rect x="125" y="0" width="1" height="1" fill="#000000" />
<rect x="126" y="0" width="1" height="1" fill="#000000" />
<rect x="127" y="0" width="1" height="1" fill="#000000" />
<rect x="129" y="0" width="1" height="1" fill="#000000" />
<rect x="130" y="0" width="1" height="1" fill="#000000" />
<rect x="131" y="0" width="1" height="1" fill="#000000" />
<rect x="0" y="1" width="1" height="1" fill="#000000" />
<rect x="32" y="1" width="1" height="1" fill="#000000" />
<rect x="65" y="1" width="1" height="1" fill="#000000" />
<rect x="66" y="1" width="1" height="1" fill="#000000" />
<rect x="98" y="1" width="1" height="1" fill="#000000" />
<rect x="99" y="1" width="1" height="1" fill="#000000" />
<rect x="33" y="2" width="1" height="1" fill="#000000" />
<rect x="65" y="2" width="1" height="1" fill="#000000" />
<rect x="66" y="2" width="1" height="1" fill="#000000" />
<rect x="98" y="2" width="1" height="1" fill="#000000" />
<rect x="99" y="2" width="1" height="1" fill="#000000" />
<rect x="131" y="2" width="1" height="1" fill="#000000" />
<rect x="0" y="3" width="1" height="1" fill="#000000" />
<rect x="32" y="3" width="1" height="1" fill="#000000" />
<rect x="33" y="3" width="1" height="1" fill="#000000" />
<rect x="66" y="3" width="1" height="1" fill="#000000" />
<rect x="98" y="3" width="1" height="1" fill="#000000" />
<rect x="131" y="3" width="1" height="1" fill="#000000" />
<rect x="0" y="4" width="1" height="1" fill="#000000" />
<rect x="6" y="4" width="1" height="1" fill="#000000" />
<rect x="28" y="4" width="1" height="1" fill="#000000" />
<rect x="32" y="4" width="1" height="1" fill="#000000" />
<rect x="33" y="4" width="1" height="1" fill="#000000" />
<rect x="39" y="4" width="1" height="1" fill="#000000" />
<rect x="61" y="4" width="1" height="1" fill="#000000" />
<rect x="65" y="4" width="1" height="1" fill="#000000" />
<rect x="72" y="4" width="1" height="1" fill="#000000" />
<rect x="94" y="4" width="1" height="1" fill="#000000" />
<rect x="99" y="4" width="1" height="1" fill="#000000" />
<rect x="105" y="4" width="1" height="1" fill="#000000" />
<rect x="127" y="4" width="1" height="1" fill="#000000" />
<rect x="131" y="4" width="1" height="1" fill="#000000" />
<rect x="0" y="5" width="1" height="1" fill="#000000" />
<rect x="6" y="5" width="1" height="1" fill="#000000" />
<rect x="28" y="5" width="1" height="1" fill="#000000" />
<rect x="32" y="5" width="1" height="1" fill="#000000" />
<rect x="39" y="5" width="1" height="1" fill="#000000" />
<rect x="61" y="5" width="1" height="1" fill="#000000" />
<rect x="65" y="5" width="1" height="1" fill="#000000" />
<rect x="66" y="5" width="1" height="1" fill="#000000" />
<rect x="72" y="5" width="1" height="1" fill="#000000" />
<rect x="94" y="5" width="1" height="1" fill="#000000" />
<rect x="98" y="5" width="1" height="1" fill="#000000" />
<rect x="99" y="5" width="1" height="1" fill="#000000" />
<rect x="105" y="5" width="1" height="1" fill="#000000" />
<rect x="127" y="5" width="1" height="1" fill="#000000" />
<rect x="7" y="6" width="1" height="1" fill="#000000" />
<rect x="9" y="6" width="1" height="1" fill="#000000" />
<rect x="19" y="6" width="1" height="1" fill="#000000" />
<rect x="28" y="6" width="1" height="1" fill="#000000" />
<rect x="33" y="6" width="1" height="1" fill="#000000" />
<rect x="40" y="6" width="1" height="1" fill="#000000" />
<rect x="42" y="6" width="1" height="1" fill="#000000" />
<rect x="52" y="6" width="1" height="1" fill="#000000" />
<rect x="61" y="6" width="1" height="1" fill="#000000" />
<rect x="65" y="6" width="1" height="1" fill="#000000" />
<rect x="66" y="6" width="1" height="1" fill="#000000" />
<rect x="73" y="6" width="1" height="1" fill="#000000" />
<rect x="75" y="6" width="1" height="1" fill="#000000" />
<rect x="85" y="6" width="1" height="1" fill="#000000" />
<rect x="94" y="6" width="1" height="1" fill="#000000" />
<rect x="98" y="6" width="1" height="1" fill="#000000" />
<rect x="99" y="6" width="1" height="1" fill="#000000" />
<rect x="106" y="6" width="1" height="1" fill="#000000" />
<rect x="108" y="6" width="1" height="1" fill="#000000" />
<rect x="118" y="6" width="1" height="1" fill="#000000" />
<rect x="127" y="6" width="1" height="1" fill="#000000" />
<rect x="131" y="6" width="1" height="1" fill="#000000" />
<rect x="0" y="7" width="1" height="1" fill="#000000" />
<rect x="7" y="7" width="1" height="1" fill="#000000" />
<rect x="29" y="7" width="1" height="1" fill="#000000" />
<rect x="32" y="7" width="1" height="1" fill="#000000" />
<rect x="33" y="7" width="1" height="1" fill="#000000" />
<rect x="40" y="7" width="1" height="1" fill="#000000" />
<rect x="62" y="7" width="1" height="1" fill="#000000" />
<rect x="66" y="7" width="1" height="1" fill="#000000" />
<rect x="73" y="7" width="1" height="1" fill="#000000" />
<rect x="95" y="7" width="1" height="1" fill="#000000" />
<rect x="98" y="7" width="1" height="1" fill="#000000" />
<rect x="106" y="7" width="1" height="1" fill="#000000" />
<rect x="128" y="7" width="1" height="1" fill="#000000" />
<rect x="131" y="7" width="1" height="1" fill="#000000" />
<rect x="0" y="8" width="1" height="1" fill="#000000" />
<rect x="5" y="8" width="1" height="1" fill="#000000" />
<rect x="6" y="8" width="1" height="1" fill="#000000" />
<rect x="7" y="8" width="1" height="1" fill="#000000" />
<rect x="9" y="8" width="1" height="1" fill="#000000" />
<rect x="13" y="8" width="1" height="1" fill="#000000" />
<rect x="14" y="8" width="1" height="1" fill="#000000" />
<rect x="19" y="8" width="1" height="1" fill="#000000" />
<rect x="22" y="8" width="1" height="1" fill="#000000" />
<rect x="24" y="8" width="1" height="1" fill="#000000" />
<rect x="25" y="8" width="1" height="1" fill="#000000" />
<rect x="29" y="8" width="1" height="1" fill="#000000" />
<rect x="32" y="8" width="1" height="1" fill="#000000" />
<rect x="33" y="8" width="1" height="1" fill="#000000" />
<rect x="38" y="8" width="1" height="1" fill="#000000" />
<rect x="39" y="8" width="1" height="1" fill="#000000" />
<rect x="40" y="8" width="1" height="1" fill="#000000" />
<rect x="42" y="8" width="1" height="1" fill="#000000" />
<rect x="46" y="8" width="1" height="1" fill="#000000" />
<rect x="47" y="8" width="1" height="1" fill="#000000" />
<rect x="52" y="8" width="1" height="1" fill="#000000" />
<rect x="55" y="8" width="1" height="1" fill="#000000" />
<rect x="57" y="8" width="1" height="1" fill="#000000" />
<rect x="58" y="8" width="1" height="1" fill="#000000" />
<rect x="62" y="8" width="1" height="1" fill="#000000" />
<rect x="65" y="8" width="1" height="1" fill="#000000" />
<rect x="71" y="8" width="1" height="1" fill="#000000" />
<rect x="72" y="8" width="1" height="1" fill="#000000" />
<rect x="73" y="8" width="1" height="1" fill="#000000" />
<rect x="75" y="8" width="1" height="1" fill="#000000" />
<rect x="79" y="8" width="1" height="1" fill="#000000" />
<rect x="80" y="8" width="1" height="1" fill="#000000" />
<rect x="85" y="8" width="1" height="1" fill="#000000" />
<rect x="88" y="8" width="1" height="1" fill="#000000" />
<rect x="90" y="8" width="1" height="1" fill="#000000" />
<rect x="91" y="8" width="1" height="1" fill="#000000" />
<rect x="95" y="8" width="1" height="1" fill="#000000" />
<rect x="99" y="8" width="1" height="1" fill="#000000" />
<rect x="104" y="8" width="1" height="1" fill="#000000" />
<rect x="105" y="8" width="1" height="1" fill="#000000" />
<rect x="106" y="8" width="1" height="1" fill="#000000" />
<rect x="108" y="8" width="1" height="1" fill="#000000" />
<rect x="112" y="8" width="1" height="1" fill="#000000" />
<rect x="113" y="8" width="1" height="1" fill="#000000" />
<rect x="118" y="8" width="1" height="1" fill="#000000" />
<rect x="121" y="8" width="1" height="1" fill="#000000" />
<rect x="123" y="8" width="1" height="1" fill="#000000" />
<rect x="124" y="8" width="1" height="1" fill="#000000" />
<rect x="128" y="8" width="1" height="1" fill="#000000" />
<rect x="131" y="8" width="1" height="1" fill="#000000" />
<rect x="0" y="9" width="1" height="1" fill="#000000" />
<rect x="4" y="9" width="1" height="1" fill="#000000" />
<rect x="7" y="9" width="1" height="1" fill="#000000" />
<rect x="9" y="9" width="1" height="1" fill="#000000" />
<rect x="12" y="9" width="1" height="1" fill="#000000" />
<rect x="15" y="9" width="1" height="1" fill="#000000" />
<rect x="19" y="9" width="1" height="1" fill="#000000" />
<rect x="22" y="9" width="1" height="1" fill="#000000" />
<rect x="23" y="9" width="1" height="1" fill="#000000" />
<rect x="26" y="9" width="1" height="1" fill="#000000" />
<rect x="29" y="9" width="1" height="1" fill="#000000" />
<rect x="32" y="9" width="1" height="1" fill="#000000" />
<rect x="37" y="9" width="1" height="1" fill="#000000" />
<rect x="40" y="9" width="1" height="1" fill="#000000" />
<rect x="42" y="9" width="1" height="1" fill="#000000" />
<rect x="45" y="9" width="1" height="1" fill="#000000" />
<rect x="48" y="9" width="1" height="1" fill="#000000" />
<rect x="52" y="9" width="1" height="1" fill="#000000" />
<rect x="55" y="9" width="1" height="1" fill="#000000" />
<rect x="56" y="9" width="1" height="1" fill="#000000" />
<rect x="59" y="9" width="1" height="1" fill="#000000" />
<rect x="62" y="9" width="1" height="1" fill="#000000" />
<rect x="65" y="9" width="1" height="1" fill="#000000" />
<rect x="66" y="9" width="1" height="1" fill="#000000" />
<rect x="70" y="9" width="1" height="1" fill="#000000" />
<rect x="73" y="9" width="1" height="1" fill="#000000" />
<rect x="75" y="9" width="1" height="1" fill="#000000" />
<rect x="78" y="9" width="1" height="1" fill="#000000" />
<rect x="81" y="9" width="1" height="1" fill="#000000" />
<rect x="85" y="9" width="1" height="1" fill="#000000" />
<rect x="88" y="9" width="1" height="1" fill="#000000" />
<rect x="89" y="9" width="1" height="1" fill="#000000" />
<rect x="92" y="9" width="1" height="1" fill="#000000" />
<rect x="95" y="9" width="1" height="1" fill="#000000" />
<rect x="98" y="9" width="1" height="1" fill="#000000" />
<rect x="99" y="9" width="1" height="1" fill="#000000" />
<rect x="103" y="9" width="1" height="1" fill="#000000" />
<rect x="106" y="9" width="1" height="1" fill="#000000" />
<rect x="108" y="9" width="1" height="1" fill="#000000" />
<rect x="111" y="9" width="1" height="1" fill="#000000" />
<rect x="114" y="9" width="1" height="1" fill="#000000" />
<rect x="118" y="9" width="1" height="1" fill="#000000" />
<rect x="121" y="9" width="1" height="1" fill="#000000" />
<rect x="122" y="9" width="1" height="1" fill="#000000" />
<rect x="125" y="9" width="1" height="1" fill="#000000" />
<rect x="128" y="9" width="1" height="1" fill="#000000" />
<rect x="3" y="10" width="1" height="1" fill="#000000" />
<rect x="7" y="10" width="1" height="1" fill="#000000" />
<rect x="10" y="10" width="1" height="1" fill="#000000" />
<rect x="12" y="10" width="1" height="1" fill="#000000" />
<rect x="15" y="10" width="1" height="1" fill="#000000" />
<rect x="19" y="10" width="1" height="1" fill="#000000" />
<rect x="22" y="10" width="1" height="1" fill="#000000" />
<rect x="26" y="10" width="1" height="1" fill="#000000" />
<rect x="29" y="10" width="1" height="1" fill="#000000" />
<rect x="33" y="10" width="1" height="1" fill="#000000" />
<rect x="36" y="10" width="1" height="1" fill="#000000" />
<rect x="40" y="10" width="1" height="1" fill="#000000" />
<rect x="43" y="10" width="1" height="1" fill="#000000" />
<rect x="45" y="10" width="1" height="1" fill="#000000" />
<rect x="48" y="10" width="1" height="1" fill="#000000" />
<rect x="52" y="10" width="1" height="1" fill="#000000" />
<rect x="55" y="10" width="1" height="1" fill="#000000" />
<rect x="59" y="10" width="1" height="1" fill="#000000" />
<rect x="62" y="10" width="1" height="1" fill="#000000" />
<rect x="65" y="10" width="1" height="1" fill="#000000" />
<rect x="66" y="10" width="1" height="1" fill="#000000" />
<rect x="69" y="10" width="1" height="1" fill="#000000" />
<rect x="73" y="10" width="1" height="1" fill="#000000" />
<rect x="76" y="10" width="1" height="1" fill="#000000" />
<rect x="78" y="10" width="1" height="1" fill="#000000" />
<rect x="81" y="10" width="1" height="1" fill="#000000" />
<rect x="85" y="10" width="1" height="1" fill="#000000" />
<rect x="88" y="10" width="1" height="1" fill="#000000" />
<rect x="92" y="10" width="1" height="1" fill="#000000" />
<rect x="95" y="10" width="1" height="1" fill="#000000" />
<rect x="98" y="10" width="1" height="1" fill="#000000" />
<rect x="99" y="10" width="1" height="1" fill="#000000" />
<rect x="102" y="10" width="1" height="1" fill="#000000" />
<rect x="106" y="10" width="1" height="1" fill="#000000" />
<rect x="109" y="10" width="1" height="1" fill="#000000" />
<rect x="111" y="10" width="1" height="1" fill="#000000" />
<rect x="114" y="10" width="1" height="1" fill="#000000" />
<rect x="118" y="10" width="1" height="1" fill="#000000" />
<rect x="121" y="10" width="1" height="1" fill="#000000" />
<rect x="125" y="10" width="1" height="1" fill="#000000" />
<rect x="128" y="10" width="1" height="1" fill="#000000" />
<rect x="131" y="10" width="1" height="1" fill="#000000" />
<rect x="0" y="11" width="1" height="1" fill="#000000" />
<rect x="3" y="11" width="1" height="1" fill="#000000" />
<rect x="7" y="11" width="1" height="1" fill="#000000" />
<rect x="10" y="11" width="1" height="1" fill="#000000" />
<rect x="12" y="11" width="1" height="1" fill="#000000" />
<rect x="15" y="11" width="1" height="1" fill="#000000" />
<rect x="19" y="11" width="1" height="1" fill="#000000" />
<rect x="22" y="11" width="1" height="1" fill="#000000" />
<rect x="26" y="11" width="1" height="1" fill="#000000" />
<rect x="32" y="11" width="1" height="1" fill="#000000" />
<rect x="33" y="11" width="1" height="1" fill="#000000" />
<rect x="36" y="11" width="1" height="1" fill="#000000" />
<rect x="40" y="11" width="1" height="1" fill="#000000" />
<rect x="43" y="11" width="1" height="1" fill="#000000" />
<rect x="45" y="11" width="1" height="1" fill="#000000" />
<rect x="48" y="11" width="1" height="1" fill="#000000" />
<rect x="52" y="11" width="1" height="1" fill="#000000" />
<rect x="55" y="11" width="1" height="1" fill="#000000" />
<rect x="59" y="11" width="1" height="1" fill="#000000" />
<rect x="66" y="11" width="1" height="1" fill="#000000" />
<rect x="69" y="11" width="1" height="1" fill="#000000" />
<rect x="73" y="11" width="1" height="1" fill="#000000" />
<rect x="76" y="11" width="1" height="1" fill="#000000" />
<rect x="78" y="11" width="1" height="1" fill="#000000" />
<rect x="81" y="11" width="1" height="1" fill="#000000" />
<rect x="85" y="11" width="1" height="1" fill="#000000" />
<rect x="88" y="11" width="1" height="1" fill="#000000" />
<rect x="92" y="11" width="1" height="1" fill="#000000" />
<rect x="98" y="11" width="1" height="1" fill="#000000" />
<rect x="102" y="11" width="1" height="1" fill="#000000" />
<rect x="106" y="11" width="1" height="1" fill="#000000" />
<rect x="109" y="11" width="1" height="1" fill="#000000" />
<rect x="111" y="11" width="1" height="1" fill="#000000" />
<rect x="114" y="11" width="1" height="1" fill="#000000" />
<rect x="118" y="11" width="1" height="1" fill="#000000" />
<rect x="121" y="11" width="1" height="1" fill="#000000" />
<rect x="125" y="11" width="1" height="1" fill="#000000" />
<rect x="131" y="11" width="1" height="1" fill="#000000" />
<rect x="0" y="12" width="1" height="1" fill="#000000" />
<rect x="4" y="12" width="1" height="1" fill="#000000" />
<rect x="5" y="12" width="1" height="1" fill="#000000" />
<rect x="6" y="12" width="1" height="1" fill="#000000" />
<rect x="10" y="12" width="1" height="1" fill="#000000" />
<rect x="13" y="12" width="1" height="1" fill="#000000" />
<rect x="14" y="12" width="1" height="1" fill="#000000" />
<rect x="15" y="12" width="1" height="1" fill="#000000" />
<rect x="20" y="12" width="1" height="1" fill="#000000" />
<rect x="23" y="12" width="1" height="1" fill="#000000" />
<rect x="27" y="12" width="1" height="1" fill="#000000" />
<rect x="30" y="12" width="1" height="1" fill="#000000" />
<rect x="32" y="12" width="1" height="1" fill="#000000" />
<rect x="33" y="12" width="1" height="1" fill="#000000" />
<rect x="37" y="12" width="1" height="1" fill="#000000" />
<rect x="38" y="12" width="1" height="1" fill="#000000" />
<rect x="39" y="12" width="1" height="1" fill="#000000" />
<rect x="43" y="12" width="1" height="1" fill="#000000" />
<rect x="46" y="12" width="1" height="1" fill="#000000" />
<rect x="47" y="12" width="1" height="1" fill="#000000" />
<rect x="48" y="12" width="1" height="1" fill="#000000" />
<rect x="53" y="12" width="1" height="1" fill="#000000" />
<rect x="56" y="12" width="1" height="1" fill="#000000" />
<rect x="60" y="12" width="1" height="1" fill="#000000" />
<rect x="63" y="12" width="1" height="1" fill="#000000" />
<rect x="65" y="12" width="1" height="1" fill="#000000" />
<rect x="70" y="12" width="1" height="1" fill="#000000" />
<rect x="71" y="12" width="1" height="1" fill="#000000" />
<rect x="72" y="12" width="1" height="1" fill="#000000" />
<rect x="76" y="12" width="1" height="1" fill="#000000" />
<rect x="79" y="12" width="1" height="1" fill="#000000" />
<rect x="80" y="12" width="1" height="1" fill="#000000" />
<rect x="81" y="12" width="1" height="1" fill="#000000" />
<rect x="86" y="12" width="1" height="1" fill="#000000" />
<rect x="89" y="12" width="1" height="1" fill="#000000" />
<rect x="93" y="12" width="1" height="1" fill="#000000" />
<rect x="96" y="12" width="1" height="1" fill="#000000" />
<rect x="99" y="12" width="1" height="1" fill="#000000" />
<rect x="103" y="12" width="1" height="1" fill="#000000" />
<rect x="104" y="12" width="1" height="1" fill="#000000" />
<rect x="105" y="12" width="1" height="1" fill="#000000" />
<rect x="109" y="12" width="1" height="1" fill="#000000" />
<rect x="112" y="12" width="1" height="1" fill="#000000" />
<rect x="113" y="12" width="1" height="1" fill="#000000" />
<rect x="114" y="12" width="1" height="1" fill="#000000" />
<rect x="119" y="12" width="1" height="1" fill="#000000" />
<rect x="122" y="12" width="1" height="1" fill="#000000" />
<rect x="126" y="12" width="1" height="1" fill="#000000" />
<rect x="129" y="12" width="1" height="1" fill="#000000" />
<rect x="131" y="12" width="1" height="1" fill="#000000" />
<rect x="0" y="13" width="1" height="1" fill="#000000" />
<rect x="15" y="13" width="1" height="1" fill="#000000" />
<rect x="32" y="13" width="1" height="1" fill="#000000" />
<rect x="48" y="13" width="1" height="1" fill="#000000" />
<rect x="65" y="13" width="1" height="1" fill="#000000" />
<rect x="66" y="13" width="1" height="1" fill="#000000" />
<rect x="81" y="13" width="1" height="1" fill="#000000" />
<rect x="98" y="13" width="1" height="1" fill="#000000" />
<rect x="99" y="13" width="1" height="1" fill="#000000" />
<rect x="114" y="13" width="1" height="1" fill="#000000" />
<rect x="13" y="14" width="1" height="1" fill="#000000" />
<rect x="14" y="14" width="1" height="1" fill="#000000" />
<rect x="33" y="14" width="1" height="1" fill="#000000" />
<rect x="46" y="14" width="1" height="1" fill="#000000" />
<rect x="47" y="14" width="1" height="1" fill="#000000" />
<rect x="65" y="14" width="1" height="1" fill="#000000" />
<rect x="66" y="14" width="1" height="1" fill="#000000" />
<rect x="79" y="14" width="1" height="1" fill="#000000" />
<rect x="80" y="14" width="1" height="1" fill="#000000" />
<rect x="98" y="14" width="1" height="1" fill="#000000" />
<rect x="99" y="14" width="1" height="1" fill="#000000" />
<rect x="112" y="14" width="1" height="1" fill="#000000" />
<rect x="113" y="14" width="1" height="1" fill="#000000" />
<rect x="131" y="14" width="1" height="1" fill="#000000" />
<rect x="0" y="15" width="1" height="1" fill="#000000" />
<rect x="32" y="15" width="1" height="1" fill="#000000" />
<rect x="33" y="15" width="1" height="1" fill="#000000" />
<rect x="66" y="15" width="1" height="1" fill="#000000" />
<rect x="98" y="15" width="1" height="1" fill="#000000" />
<rect x="131" y="15" width="1" height="1" fill="#000000" />
<rect x="0" y="16" width="1" height="1" fill="#000000" />
<rect x="1" y="16" width="1" height="1" fill="#000000" />
<rect x="3" y="16" width="1" height="1" fill="#000000" />
<rect x="4" y="16" width="1" height="1" fill="#000000" />
<rect x="5" y="16" width="1" height="1" fill="#000000" />
<rect x="7" y="16" width="1" height="1" fill="#000000" />
<rect x="8" y="16" width="1" height="1" fill="#000000" />
<rect x="9" y="16" width="1" height="1" fill="#000000" />
<rect x="11" y="16" width="1" height="1" fill="#000000" />
<rect x="12" y="16" width="1" height="1" fill="#000000" />
<rect x="13" y="16" width="1" height="1" fill="#000000" />
<rect x="15" y="16" width="1" height="1" fill="#000000" />
<rect x="16" y="16" width="1" height="1" fill="#000000" />
<rect x="17" y="16" width="1" height="1" fill="#000000" />
<rect x="19" y="16" width="1" height="1" fill="#000000" />
<rect x="20" y="16" width="1" height="1" fill="#000000" />
<rect x="21" y="16" width="1" height="1" fill="#000000" />
<rect x="23" y="16" width="1" height="1" fill="#000000" />
<rect x="24" y="16" width="1" height="1" fill="#000000" />
<rect x="25" y="16" width="1" height="1" fill="#000000" />
<rect x="27" y="16" width="1" height="1" fill="#000000" />
<rect x="28" y="16" width="1" height="1" fill="#000000" />
<rect x="29" y="16" width="1" height="1" fill="#000000" />
<rect x="31" y="16" width="1" height="1" fill="#000000" />
<rect x="32" y="16" width="1" height="1" fill="#000000" />
<rect x="33" y="16" width="1" height="1" fill="#000000" />
<rect x="35" y="16" width="1" height="1" fill="#000000" />
<rect x="36" y="16" width="1" height="1" fill="#000000" />
<rect x="37" y="16" width="1" height="1" fill="#000000" />
<rect x="39" y="16" width="1" height="1" fill="#000000" />
<rect x="40" y="16" width="1" height="1" fill="#000000" />
<rect x="41" y="16" width="1" height="1" fill="#000000" />
<rect x="43" y="16" width="1" height="1" fill="#000000" />
<rect x="44" y="16" width="1" height="1" fill="#000000" />
<rect x="45" y="16" width="1" height="1" fill="#000000" />
<rect x="47" y="16" width="1" height="1" fill="#000000" />
<rect x="48" y="16" width="1" height="1" fill="#000000" />
<rect x="49" y="16" width="1" height="1" fill="#000000" />
<rect x="51" y="16" width="1" height="1" fill="#000000" />
<rect x="52" y="16" width="1" height="1" fill="#000000" />
<rect x="53" y="16" width="1" height="1" fill="#000000" />
<rect x="55" y="16" width="1" height="1" fill="#000000" />
<rect x="56" y="16" width="1" height="1" fill="#000000" />
<rect x="57" y="16" width="1" height="1" fill="#000000" />
<rect x="59" y="16" width="1" height="1" fill="#000000" />
<rect x="60" y="16" width="1" height="1" fill="#000000" />
<rect x="61" y="16" width="1" height="1" fill="#000000" />
<rect x="63" y="16" width="1" height="1" fill="#000000" />
<rect x="64" y="16" width="1" height="1" fill="#000000" />
<rect x="65" y="16" width="1" height="1" fill="#000000" />
<rect x="67" y="16" width="1" height="1" fill="#000000" />
<rect x="68" y="16" width="1" height="1" fill="#000000" />
<rect x="69" y="16" width="1" height="1" fill="#000000" />
<rect x="71" y="16" width="1" height="1" fill="#000000" />
<rect x="72" y="16" width="1" height="1" fill="#000000" />
<rect x="73" y="16" width="1" height="1" fill="#000000" />
<rect x="75" y="16" width="1" height="1" fill="#000000" />
<rect x="76" y="16" width="1" height="1" fill="#000000" />
<rect x="77" y="16" width="1" height="1" fill="#000000" />
<rect x="79" y="16" width="1" height="1" fill="#000000" />
<rect x="80" y="16" width="1" height="1" fill="#000000" />
<rect x="81" y="16" width="1" height="1" fill="#000000" />
<rect x="83" y="16" width="1" height="1" fill="#000000" />
<rect x="84" y="16" width="1" height="1" fill="#000000" />
<rect x="85" y="16" width="1" height="1" fill="#000000" />
<rect x="87" y="16" width="1" height="1" fill="#000000" />
<rect x="88" y="16" width="1" height="1" fill="#000000" />
<rect x="89" y="16" width="1" height="1" fill="#000000" />
<rect x="91" y="16" width="1" height="1" fill="#000000" />
<rect x="92" y="16" width="1" height="1" fill="#000000" />
<rect x="93" y="16" width="1" height="1" fill="#000000" />
<rect x="95" y="16" width="1" height="1" fill="#000000" />
<rect x="96" y="16" width="1" height="1" fill="#000000" />
<rect x="97" y="16" width="1" height="1" fill="#000000" />
<rect x="99" y="16" width="1" height="1" fill="#000000" />
<rect x="100" y="16" width="1" height="1" fill="#000000" />
<rect x="101" y="16" width="1" height="1" fill="#000000" />
<rect x="103" y="16" width="1" height="1" fill="#000000" />
<rect x="104" y="16" width="1" height="1" fill="#000000" />
<rect x="105" y="16" width="1" height="1" fill="#000000" />
<rect x="107" y="16" width="1" height="1" fill="#000000" />
<rect x="108" y="16" width="1" height="1" fill="#000000" />
<rect x="109" y="16" width="1" height="1" fill="#000000" />
<rect x="111" y="16" width="1" height="1" fill="#000000" />
<rect x="112" y="16" width="1" height="1" fill="#000000" />
<rect x="113" y="16" width="1" height="1" fill="#000000" />
<rect x="115" y="16" width="1" height="1" fill="#000000" />
<rect x="116" y="16" width="1" height="1" fill="#000000" />
<rect x="117" y="16" width="1" height="1" fill="#000000" />
<rect x="119" y="16" width="1" height="1" fill="#000000" />
<rect x="120" y="16" width="1" height="1" fill="#000000" />
<rect x="121" y="16" width="1" height="1" fill="#000000" />
<rect x="123" y="16" width="1" height="1" fill="#000000" />
<rect x="124" y="16" width="1" height="1" fill="#000000" />
<rect x="125" y="16" width="1" height="1" fill="#000000" />
<rect x="127" y="16" width="1" height="1" fill="#000000" />
<rect x="128" y="16" width="1" height="1" fill="#000000" />
<rect x="129" y="16" width="1" height="1" fill="#000000" />
<rect x="131" y="16" width="1" height="1" fill="#000000" />
</svg>