<?xml version="1.0" encoding="UTF-8" ?>
<svg version="1.1" width="190" height="60" xmlns="http://www.w3.org/2000/svg" shape-rendering="crispEdges">
<rect x="175" y="1" width="1" height="1" fill="#000000" />
<rect x="175" y="2" width="1" height="1" fill="#000000" />
<rect x="176" y="2" width="1" height="1" fill="#000000" />
<rect x="175" y="3" width="1" height="1" fill="#000000" />
<rect x="177" y="3" width="1" height="1" fill="#000000" />
<rect x="175" y="4" width="1" height="1" fill="#000000" />
<rect x="178" y="4" width="1" height="1" fill="#000000" />
<rect x="175" y="5" width="1" height="1" fill="#000000" />
<rect x="178" y="5" width="1" height="1" fill="#000000" />
<rect x="175" y="6" width="1" height="1" fill="#000000" />
<rect x="179" y="6" width="1" height="1" fill="#000000" />
<rect x="184" y="6" width="1" height="1" fill="#000000" />
<rect x="185" y="6" width="1" height="1" fill="#000000" />
<rect x="186" y="6" width="1" height="1" fill="#000000" />
<rect x="187" y="6" width="1" height="1" fill="#000000" />
<rect x="188" y="6" width="1" height="1" fill="#000000" />
<rect x="175" y="7" width="1" height="1" fill="#000000" />
<rect x="180" y="7" width="1" height="1" fill="#000000" />
<rect x="181" y="7" width="1" height="1" fill="#000000" />
<rect x="182" y="7" width="1" height="1" fill="#000000" />
<rect x="183" y="7" width="1" height="1" fill="#000000" />
<rect x="187" y="7" width="1" height="1" fill="#000000" />
<rect x="14" y="8" width="1" height="1" fill="#000000" />
<rect x="15" y="8" width="1" height="1" fill="#000000" />
<rect x="16" y="8" width="1" height="1" fill="#000000" />
<rect x="173" y="8" width="1" height="1" fill="#000000" />
<rect x="174" y="8" width="1" height="1" fill="#000000" />
<rect x="186" y="8" width="1" height="1" fill="#000000" />
<rect x="13" y="9" width="1" height="1" fill="#000000" />
<rect x="17" y="9" width="1" height="1" fill="#000000" />
<rect x="18" y="9" width="1" height="1" fill="#000000" />
<rect x="169" y="9" width="1" height="1" fill="#000000" />
<rect x="170" y="9" width="1" height="1" fill="#000000" />
<rect x="171" y="9" width="1" height="1" fill="#000000" />
<rect x="172" y="9" width="1" height="1" fill="#000000" />
<rect x="185" y="9" width="1" height="1" fill="#000000" />
<rect x="12" y="10" width="1" height="1" fill="#000000" />
<rect x="19" y="10" width="1" height="1" fill="#000000" />
<rect x="167" y="10" width="1" height="1" fill="#000000" />
<rect x="168" y="10" width="1" height="1" fill="#000000" />
<rect x="169" y="10" width="1" height="1" fill="#000000" />
<rect x="184" y="10" width="1" height="1" fill="#000000" />
<rect x="11" y="11" width="1" height="1" fill="#000000" />
<rect x="19" y="11" width="1" height="1" fill="#000000" />
<rect x="170" y="11" width="1" height="1" fill="#000000" />
<rect x="171" y="11" width="1" height="1" fill="#000000" />
<rect x="172" y="11" width="1" height="1" fill="#000000" />
<rect x="173" y="11" width="1" height="1" fill="#000000" />
<rect x="183" y="11" width="1" height="1" fill="#000000" />
<rect x="10" y="12" width="1" height="1" fill="#000000" />
<rect x="19" y="12" width="1" height="1" fill="#000000" />
<rect x="174" y="12" width="1" height="1" fill="#000000" />
<rect x="175" y="12" width="1" height="1" fill="#000000" />
<rect x="184" y="12" width="1" height="1" fill="#000000" />
<rect x="3" y="13" width="1" height="1" fill="#000000" />
<rect x="4" y="13" width="1" height="1" fill="#000000" />
<rect x="5" y="13" width="1" height="1" fill="#000000" />
<rect x="6" y="13" width="1" height="1" fill="#000000" />
<rect x="7" y="13" width="1" height="1" fill="#000000" />
<rect x="10" y="13" width="1" height="1" fill="#000000" />
<rect x="19" y="13" width="1" height="1" fill="#000000" />
<rect x="175" y="13" width="1" height="1" fill="#000000" />
<rect x="185" y="13" width="1" height="1" fill="#000000" />
<rect x="2" y="14" width="1" height="1" fill="#000000" />
<rect x="8" y="14" width="1" height="1" fill="#000000" />
<rect x="9" y="14" width="1" height="1" fill="#000000" />
<rect x="19" y="14" width="1" height="1" fill="#000000" />
<rect x="174" y="14" width="1" height="1" fill="#000000" />
<rect x="179" y="14" width="1" height="1" fill="#000000" />
<rect x="180" y="14" width="1" height="1" fill="#000000" />
<rect x="185" y="14" width="1" height="1" fill="#000000" />
<rect x="1" y="15" width="1" height="1" fill="#000000" />
<rect x="9" y="15" width="1" height="1" fill="#000000" />
<rect x="19" y="15" width="1" height="1" fill="#000000" />
<rect x="174" y="15" width="1" height="1" fill="#000000" />
<rect x="178" y="15" width="1" height="1" fill="#000000" />
<rect x="181" y="15" width="1" height="1" fill="#000000" />
<rect x="182" y="15" width="1" height="1" fill="#000000" />
<rect x="183" y="15" width="1" height="1" fill="#000000" />
<rect x="186" y="15" width="1" height="1" fill="#000000" />
<rect x="1" y="16" width="1" height="1" fill="#000000" />
<rect x="19" y="16" width="1" height="1" fill="#000000" />
<rect x="174" y="16" width="1" height="1" fill="#000000" />
<rect x="177" y="16" width="1" height="1" fill="#000000" />
<rect x="184" y="16" width="1" height="1" fill="#000000" />
<rect x="185" y="16" width="1" height="1" fill="#000000" />
<rect x="187" y="16" width="1" height="1" fill="#000000" />
<rect x="1" y="17" width="1" height="1" fill="#000000" />
<rect x="18" y="17" width="1" height="1" fill="#000000" />
<rect x="58" y="17" width="1" height="1" fill="#000000" />
<rect x="111" y="17" width="1" height="1" fill="#000000" />
<rect x="153" y="17" width="1" height="1" fill="#000000" />
<rect x="173" y="17" width="1" height="1" fill="#000000" />
<rect x="176" y="17" width="1" height="1" fill="#000000" />
<rect x="186" y="17" width="1" height="1" fill="#000000" />
<rect x="187" y="17" width="1" height="1" fill="#000000" />
<rect x="2" y="18" width="1" height="1" fill="#000000" />
<rect x="18" y="18" width="1" height="1" fill="#000000" />
<rect x="58" y="18" width="1" height="1" fill="#000000" />
<rect x="76" y="18" width="1" height="1" fill="#000000" />
<rect x="111" y="18" width="1" height="1" fill="#000000" />
<rect x="115" y="18" width="1" height="1" fill="#000000" />
<rect x="138" y="18" width="1" height="1" fill="#000000" />
<rect x="152" y="18" width="1" height="1" fill="#000000" />
<rect x="173" y="18" width="1" height="1" fill="#000000" />
<rect x="175" y="18" width="1" height="1" fill="#000000" />
<rect x="2" y="19" width="1" height="1" fill="#000000" />
<rect x="18" y="19" width="1" height="1" fill="#000000" />
<rect x="59" y="19" width="1" height="1" fill="#000000" />
<rect x="76" y="19" width="1" height="1" fill="#000000" />
<rect x="111" y="19" width="1" height="1" fill="#000000" />
<rect x="115" y="19" width="1" height="1" fill="#000000" />
<rect x="120" y="19" width="1" height="1" fill="#000000" />
<rect x="138" y="19" width="1" height="1" fill="#000000" />
<rect x="152" y="19" width="1" height="1" fill="#000000" />
<rect x="160" y="19" width="1" height="1" fill="#000000" />
<rect x="173" y="19" width="1" height="1" fill="#000000" />
<rect x="174" y="19" width="1" height="1" fill="#000000" />
<rect x="3" y="20" width="1" height="1" fill="#000000" />
<rect x="17" y="20" width="1" height="1" fill="#000000" />
<rect x="59" y="20" width="1" height="1" fill="#000000" />
<rect x="77" y="20" width="1" height="1" fill="#000000" />
<rect x="111" y="20" width="1" height="1" fill="#000000" />
<rect x="115" y="20" width="1" height="1" fill="#000000" />
<rect x="138" y="20" width="1" height="1" fill="#000000" />
<rect x="141" y="20" width="1" height="1" fill="#000000" />
<rect x="152" y="20" width="1" height="1" fill="#000000" />
<rect x="4" y="21" width="1" height="1" fill="#000000" />
<rect x="17" y="21" width="1" height="1" fill="#000000" />
<rect x="59" y="21" width="1" height="1" fill="#000000" />
<rect x="77" y="21" width="1" height="1" fill="#000000" />
<rect x="78" y="21" width="1" height="1" fill="#000000" />
<rect x="79" y="21" width="1" height="1" fill="#000000" />
<rect x="82" y="21" width="1" height="1" fill="#000000" />
<rect x="83" y="21" width="1" height="1" fill="#000000" />
<rect x="84" y="21" width="1" height="1" fill="#000000" />
<rect x="98" y="21" width="1" height="1" fill="#000000" />
<rect x="99" y="21" width="1" height="1" fill="#000000" />
<rect x="100" y="21" width="1" height="1" fill="#000000" />
<rect x="103" y="21" width="1" height="1" fill="#000000" />
<rect x="107" y="21" width="1" height="1" fill="#000000" />
<rect x="111" y="21" width="1" height="1" fill="#000000" />
<rect x="114" y="21" width="1" height="1" fill="#000000" />
<rect x="115" y="21" width="1" height="1" fill="#000000" />
<rect x="116" y="21" width="1" height="1" fill="#000000" />
<rect x="117" y="21" width="1" height="1" fill="#000000" />
<rect x="123" y="21" width="1" height="1" fill="#000000" />
<rect x="127" y="21" width="1" height="1" fill="#000000" />
<rect x="131" y="21" width="1" height="1" fill="#000000" />
<rect x="132" y="21" width="1" height="1" fill="#000000" />
<rect x="137" y="21" width="1" height="1" fill="#000000" />
<rect x="138" y="21" width="1" height="1" fill="#000000" />
<rect x="139" y="21" width="1" height="1" fill="#000000" />
<rect x="140" y="21" width="1" height="1" fill="#000000" />
<rect x="144" y="21" width="1" height="1" fill="#000000" />
<rect x="145" y="21" width="1" height="1" fill="#000000" />
<rect x="150" y="21" width="1" height="1" fill="#000000" />
<rect x="151" y="21" width="1" height="1" fill="#000000" />
<rect x="152" y="21" width="1" height="1" fill="#000000" />
<rect x="164" y="21" width="1" height="1" fill="#000000" />
<rect x="166" y="21" width="1" height="1" fill="#000000" />
<rect x="167" y="21" width="1" height="1" fill="#000000" />
<rect x="5" y="22" width="1" height="1" fill="#000000" />
<rect x="6" y="22" width="1" height="1" fill="#000000" />
<rect x="16" y="22" width="1" height="1" fill="#000000" />
<rect x="29" y="22" width="1" height="1" fill="#000000" />
<rect x="30" y="22" width="1" height="1" fill="#000000" />
<rect x="31" y="22" width="1" height="1" fill="#000000" />
<rect x="32" y="22" width="1" height="1" fill="#000000" />
<rect x="33" y="22" width="1" height="1" fill="#000000" />
<rect x="34" y="22" width="1" height="1" fill="#000000" />
<rect x="38" y="22" width="1" height="1" fill="#000000" />
<rect x="40" y="22" width="1" height="1" fill="#000000" />
<rect x="41" y="22" width="1" height="1" fill="#000000" />
<rect x="42" y="22" width="1" height="1" fill="#000000" />
<rect x="47" y="22" width="1" height="1" fill="#000000" />
<rect x="48" y="22" width="1" height="1" fill="#000000" />
<rect x="49" y="22" width="1" height="1" fill="#000000" />
<rect x="50" y="22" width="1" height="1" fill="#000000" />
<rect x="56" y="22" width="1" height="1" fill="#000000" />
<rect x="57" y="22" width="1" height="1" fill="#000000" />
<rect x="58" y="22" width="1" height="1" fill="#000000" />
<rect x="59" y="22" width="1" height="1" fill="#000000" />
<rect x="62" y="22" width="1" height="1" fill="#000000" />
<rect x="66" y="22" width="1" height="1" fill="#000000" />
<rect x="71" y="22" width="1" height="1" fill="#000000" />
<rect x="72" y="22" width="1" height="1" fill="#000000" />
<rect x="75" y="22" width="1" height="1" fill="#000000" />
<rect x="76" y="22" width="1" height="1" fill="#000000" />
<rect x="77" y="22" width="1" height="1" fill="#000000" />
<rect x="81" y="22" width="1" height="1" fill="#000000" />
<rect x="97" y="22" width="1" height="1" fill="#000000" />
<rect x="103" y="22" width="1" height="1" fill="#000000" />
<rect x="107" y="22" width="1" height="1" fill="#000000" />
<rect x="111" y="22" width="1" height="1" fill="#000000" />
<rect x="113" y="22" width="1" height="1" fill="#000000" />
<rect x="115" y="22" width="1" height="1" fill="#000000" />
<rect x="120" y="22" width="1" height="1" fill="#000000" />
<rect x="123" y="22" width="1" height="1" fill="#000000" />
<rect x="127" y="22" width="1" height="1" fill="#000000" />
<rect x="130" y="22" width="1" height="1" fill="#000000" />
<rect x="133" y="22" width="1" height="1" fill="#000000" />
<rect x="136" y="22" width="1" height="1" fill="#000000" />
<rect x="138" y="22" width="1" height="1" fill="#000000" />
<rect x="143" y="22" width="1" height="1" fill="#000000" />
<rect x="146" y="22" width="1" height="1" fill="#000000" />
<rect x="149" y="22" width="1" height="1" fill="#000000" />
<rect x="152" y="22" width="1" height="1" fill="#000000" />
<rect x="160" y="22" width="1" height="1" fill="#000000" />
<rect x="164" y="22" width="1" height="1" fill="#000000" />
<rect x="165" y="22" width="1" height="1" fill="#000000" />
<rect x="168" y="22" width="1" height="1" fill="#000000" />
<rect x="7" y="23" width="1" height="1" fill="#000000" />
<rect x="8" y="23" width="1" height="1" fill="#000000" />
<rect x="16" y="23" width="1" height="1" fill="#000000" />
<rect x="28" y="23" width="1" height="1" fill="#000000" />
<rect x="35" y="23" width="1" height="1" fill="#000000" />
<rect x="39" y="23" width="1" height="1" fill="#000000" />
<rect x="43" y="23" width="1" height="1" fill="#000000" />
<rect x="46" y="23" width="1" height="1" fill="#000000" />
<rect x="51" y="23" width="1" height="1" fill="#000000" />
<rect x="55" y="23" width="1" height="1" fill="#000000" />
<rect x="59" y="23" width="1" height="1" fill="#000000" />
<rect x="62" y="23" width="1" height="1" fill="#000000" />
<rect x="66" y="23" width="1" height="1" fill="#000000" />
<rect x="70" y="23" width="1" height="1" fill="#000000" />
<rect x="77" y="23" width="1" height="1" fill="#000000" />
<rect x="81" y="23" width="1" height="1" fill="#000000" />
<rect x="96" y="23" width="1" height="1" fill="#000000" />
<rect x="103" y="23" width="1" height="1" fill="#000000" />
<rect x="108" y="23" width="1" height="1" fill="#000000" />
<rect x="110" y="23" width="1" height="1" fill="#000000" />
<rect x="115" y="23" width="1" height="1" fill="#000000" />
<rect x="120" y="23" width="1" height="1" fill="#000000" />
<rect x="123" y="23" width="1" height="1" fill="#000000" />
<rect x="127" y="23" width="1" height="1" fill="#000000" />
<rect x="129" y="23" width="1" height="1" fill="#000000" />
<rect x="133" y="23" width="1" height="1" fill="#000000" />
<rect x="138" y="23" width="1" height="1" fill="#000000" />
<rect x="142" y="23" width="1" height="1" fill="#000000" />
<rect x="145" y="23" width="1" height="1" fill="#000000" />
<rect x="148" y="23" width="1" height="1" fill="#000000" />
<rect x="152" y="23" width="1" height="1" fill="#000000" />
<rect x="160" y="23" width="1" height="1" fill="#000000" />
<rect x="164" y="23" width="1" height="1" fill="#000000" />
<rect x="169" y="23" width="1" height="1" fill="#000000" />
<rect x="9" y="24" width="1" height="1" fill="#000000" />
<rect x="10" y="24" width="1" height="1" fill="#000000" />
<rect x="16" y="24" width="1" height="1" fill="#000000" />
<rect x="28" y="24" width="1" height="1" fill="#000000" />
<rect x="35" y="24" width="1" height="1" fill="#000000" />
<rect x="39" y="24" width="1" height="1" fill="#000000" />
<rect x="46" y="24" width="1" height="1" fill="#000000" />
<rect x="51" y="24" width="1" height="1" fill="#000000" />
<rect x="54" y="24" width="1" height="1" fill="#000000" />
<rect x="59" y="24" width="1" height="1" fill="#000000" />
<rect x="62" y="24" width="1" height="1" fill="#000000" />
<rect x="66" y="24" width="1" height="1" fill="#000000" />
<rect x="69" y="24" width="1" height="1" fill="#000000" />
<rect x="77" y="24" width="1" height="1" fill="#000000" />
<rect x="82" y="24" width="1" height="1" fill="#000000" />
<rect x="83" y="24" width="1" height="1" fill="#000000" />
<rect x="96" y="24" width="1" height="1" fill="#000000" />
<rect x="103" y="24" width="1" height="1" fill="#000000" />
<rect x="108" y="24" width="1" height="1" fill="#000000" />
<rect x="110" y="24" width="1" height="1" fill="#000000" />
<rect x="115" y="24" width="1" height="1" fill="#000000" />
<rect x="120" y="24" width="1" height="1" fill="#000000" />
<rect x="123" y="24" width="1" height="1" fill="#000000" />
<rect x="126" y="24" width="1" height="1" fill="#000000" />
<rect x="129" y="24" width="1" height="1" fill="#000000" />
<rect x="134" y="24" width="1" height="1" fill="#000000" />
<rect x="138" y="24" width="1" height="1" fill="#000000" />
<rect x="142" y="24" width="1" height="1" fill="#000000" />
<rect x="143" y="24" width="1" height="1" fill="#000000" />
<rect x="144" y="24" width="1" height="1" fill="#000000" />
<rect x="148" y="24" width="1" height="1" fill="#000000" />
<rect x="152" y="24" width="1" height="1" fill="#000000" />
<rect x="160" y="24" width="1" height="1" fill="#000000" />
<rect x="164" y="24" width="1" height="1" fill="#000000" />
<rect x="169" y="24" width="1" height="1" fill="#000000" />
<rect x="11" y="25" width="1" height="1" fill="#000000" />
<rect x="12" y="25" width="1" height="1" fill="#000000" />
<rect x="13" y="25" width="1" height="1" fill="#000000" />
<rect x="16" y="25" width="1" height="1" fill="#000000" />
<rect x="29" y="25" width="1" height="1" fill="#000000" />
<rect x="34" y="25" width="1" height="1" fill="#000000" />
<rect x="39" y="25" width="1" height="1" fill="#000000" />
<rect x="46" y="25" width="1" height="1" fill="#000000" />
<rect x="51" y="25" width="1" height="1" fill="#000000" />
<rect x="54" y="25" width="1" height="1" fill="#000000" />
<rect x="58" y="25" width="1" height="1" fill="#000000" />
<rect x="62" y="25" width="1" height="1" fill="#000000" />
<rect x="66" y="25" width="1" height="1" fill="#000000" />
<rect x="69" y="25" width="1" height="1" fill="#000000" />
<rect x="77" y="25" width="1" height="1" fill="#000000" />
<rect x="84" y="25" width="1" height="1" fill="#000000" />
<rect x="96" y="25" width="1" height="1" fill="#000000" />
<rect x="103" y="25" width="1" height="1" fill="#000000" />
<rect x="108" y="25" width="1" height="1" fill="#000000" />
<rect x="110" y="25" width="1" height="1" fill="#000000" />
<rect x="115" y="25" width="1" height="1" fill="#000000" />
<rect x="120" y="25" width="1" height="1" fill="#000000" />
<rect x="124" y="25" width="1" height="1" fill="#000000" />
<rect x="126" y="25" width="1" height="1" fill="#000000" />
<rect x="129" y="25" width="1" height="1" fill="#000000" />
<rect x="134" y="25" width="1" height="1" fill="#000000" />
<rect x="138" y="25" width="1" height="1" fill="#000000" />
<rect x="142" y="25" width="1" height="1" fill="#000000" />
<rect x="148" y="25" width="1" height="1" fill="#000000" />
<rect x="152" y="25" width="1" height="1" fill="#000000" />
<rect x="160" y="25" width="1" height="1" fill="#000000" />
<rect x="164" y="25" width="1" height="1" fill="#000000" />
<rect x="169" y="25" width="1" height="1" fill="#000000" />
<rect x="14" y="26" width="1" height="1" fill="#000000" />
<rect x="15" y="26" width="1" height="1" fill="#000000" />
<rect x="16" y="26" width="1" height="1" fill="#000000" />
<rect x="29" y="26" width="1" height="1" fill="#000000" />
<rect x="32" y="26" width="1" height="1" fill="#000000" />
<rect x="33" y="26" width="1" height="1" fill="#000000" />
<rect x="39" y="26" width="1" height="1" fill="#000000" />
<rect x="46" y="26" width="1" height="1" fill="#000000" />
<rect x="50" y="26" width="1" height="1" fill="#000000" />
<rect x="55" y="26" width="1" height="1" fill="#000000" />
<rect x="58" y="26" width="1" height="1" fill="#000000" />
<rect x="63" y="26" width="1" height="1" fill="#000000" />
<rect x="66" y="26" width="1" height="1" fill="#000000" />
<rect x="70" y="26" width="1" height="1" fill="#000000" />
<rect x="74" y="26" width="1" height="1" fill="#000000" />
<rect x="77" y="26" width="1" height="1" fill="#000000" />
<rect x="81" y="26" width="1" height="1" fill="#000000" />
<rect x="85" y="26" width="1" height="1" fill="#000000" />
<rect x="97" y="26" width="1" height="1" fill="#000000" />
<rect x="104" y="26" width="1" height="1" fill="#000000" />
<rect x="108" y="26" width="1" height="1" fill="#000000" />
<rect x="110" y="26" width="1" height="1" fill="#000000" />
<rect x="115" y="26" width="1" height="1" fill="#000000" />
<rect x="120" y="26" width="1" height="1" fill="#000000" />
<rect x="124" y="26" width="1" height="1" fill="#000000" />
<rect x="126" y="26" width="1" height="1" fill="#000000" />
<rect x="129" y="26" width="1" height="1" fill="#000000" />
<rect x="133" y="26" width="1" height="1" fill="#000000" />
<rect x="135" y="26" width="1" height="1" fill="#000000" />
<rect x="138" y="26" width="1" height="1" fill="#000000" />
<rect x="143" y="26" width="1" height="1" fill="#000000" />
<rect x="146" y="26" width="1" height="1" fill="#000000" />
<rect x="149" y="26" width="1" height="1" fill="#000000" />
<rect x="151" y="26" width="1" height="1" fill="#000000" />
<rect x="159" y="26" width="1" height="1" fill="#000000" />
<rect x="163" y="26" width="1" height="1" fill="#000000" />
<rect x="169" y="26" width="1" height="1" fill="#000000" />
<rect x="29" y="27" width="1" height="1" fill="#000000" />
<rect x="30" y="27" width="1" height="1" fill="#000000" />
<rect x="31" y="27" width="1" height="1" fill="#000000" />
<rect x="38" y="27" width="1" height="1" fill="#000000" />
<rect x="47" y="27" width="1" height="1" fill="#000000" />
<rect x="48" y="27" width="1" height="1" fill="#000000" />
<rect x="49" y="27" width="1" height="1" fill="#000000" />
<rect x="56" y="27" width="1" height="1" fill="#000000" />
<rect x="57" y="27" width="1" height="1" fill="#000000" />
<rect x="64" y="27" width="1" height="1" fill="#000000" />
<rect x="65" y="27" width="1" height="1" fill="#000000" />
<rect x="71" y="27" width="1" height="1" fill="#000000" />
<rect x="72" y="27" width="1" height="1" fill="#000000" />
<rect x="73" y="27" width="1" height="1" fill="#000000" />
<rect x="78" y="27" width="1" height="1" fill="#000000" />
<rect x="82" y="27" width="1" height="1" fill="#000000" />
<rect x="83" y="27" width="1" height="1" fill="#000000" />
<rect x="84" y="27" width="1" height="1" fill="#000000" />
<rect x="98" y="27" width="1" height="1" fill="#000000" />
<rect x="99" y="27" width="1" height="1" fill="#000000" />
<rect x="100" y="27" width="1" height="1" fill="#000000" />
<rect x="101" y="27" width="1" height="1" fill="#000000" />
<rect x="105" y="27" width="1" height="1" fill="#000000" />
<rect x="106" y="27" width="1" height="1" fill="#000000" />
<rect x="107" y="27" width="1" height="1" fill="#000000" />
<rect x="114" y="27" width="1" height="1" fill="#000000" />
<rect x="121" y="27" width="1" height="1" fill="#000000" />
<rect x="125" y="27" width="1" height="1" fill="#000000" />
<rect x="130" y="27" width="1" height="1" fill="#000000" />
<rect x="131" y="27" width="1" height="1" fill="#000000" />
<rect x="132" y="27" width="1" height="1" fill="#000000" />
<rect x="135" y="27" width="1" height="1" fill="#000000" />
<rect x="139" y="27" width="1" height="1" fill="#000000" />
<rect x="144" y="27" width="1" height="1" fill="#000000" />
<rect x="145" y="27" width="1" height="1" fill="#000000" />
<rect x="150" y="27" width="1" height="1" fill="#000000" />
<rect x="159" y="27" width="1" height="1" fill="#000000" />
<rect x="163" y="27" width="1" height="1" fill="#000000" />
<rect x="168" y="27" width="1" height="1" fill="#000000" />
<rect x="29" y="28" width="1" height="1" fill="#000000" />
<rect x="29" y="29" width="1" height="1" fill="#000000" />
<rect x="30" y="30" width="1" height="1" fill="#000000" />
<rect x="30" y="31" width="1" height="1" fill="#000000" />
<rect x="30" y="32" width="1" height="1" fill="#000000" />
<rect x="30" y="33" width="1" height="1" fill="#000000" />
<rect x="30" y="34" width="1" height="1" fill="#000000" />
<rect x="70" y="34" width="1" height="1" fill="#000000" />
<rect x="98" y="34" width="1" height="1" fill="#000000" />
<rect x="30" y="35" width="1" height="1" fill="#000000" />
<rect x="70" y="35" width="1" height="1" fill="#000000" />
<rect x="87" y="35" width="1" height="1" fill="#000000" />
<rect x="98" y="35" width="1" height="1" fill="#000000" />
<rect x="136" y="35" width="1" height="1" fill="#000000" />
<rect x="71" y="36" width="1" height="1" fill="#000000" />
<rect x="87" y="36" width="1" height="1" fill="#000000" />
<rect x="99" y="36" width="1" height="1" fill="#000000" />
<rect x="136" y="36" width="1" height="1" fill="#000000" />
<rect x="18" y="37" width="1" height="1" fill="#000000" />
<rect x="71" y="37" width="1" height="1" fill="#000000" />
<rect x="87" y="37" width="1" height="1" fill="#000000" />
<rect x="99" y="37" width="1" height="1" fill="#000000" />
<rect x="135" y="37" width="1" height="1" fill="#000000" />
<rect x="18" y="38" width="1" height="1" fill="#000000" />
<rect x="19" y="38" width="1" height="1" fill="#000000" />
<rect x="71" y="38" width="1" height="1" fill="#000000" />
<rect x="74" y="38" width="1" height="1" fill="#000000" />
<rect x="84" y="38" width="1" height="1" fill="#000000" />
<rect x="88" y="38" width="1" height="1" fill="#000000" />
<rect x="90" y="38" width="1" height="1" fill="#000000" />
<rect x="99" y="38" width="1" height="1" fill="#000000" />
<rect x="135" y="38" width="1" height="1" fill="#000000" />
<rect x="19" y="39" width="1" height="1" fill="#000000" />
<rect x="71" y="39" width="1" height="1" fill="#000000" />
<rect x="87" y="39" width="1" height="1" fill="#000000" />
<rect x="88" y="39" width="1" height="1" fill="#000000" />
<rect x="89" y="39" width="1" height="1" fill="#000000" />
<rect x="99" y="39" width="1" height="1" fill="#000000" />
<rect x="135" y="39" width="1" height="1" fill="#000000" />
<rect x="19" y="40" width="1" height="1" fill="#000000" />
<rect x="20" y="40" width="1" height="1" fill="#000000" />
<rect x="57" y="40" width="1" height="1" fill="#000000" />
<rect x="58" y="40" width="1" height="1" fill="#000000" />
<rect x="59" y="40" width="1" height="1" fill="#000000" />
<rect x="68" y="40" width="1" height="1" fill="#000000" />
<rect x="69" y="40" width="1" height="1" fill="#000000" />
<rect x="70" y="40" width="1" height="1" fill="#000000" />
<rect x="71" y="40" width="1" height="1" fill="#000000" />
<rect x="74" y="40" width="1" height="1" fill="#000000" />
<rect x="78" y="40" width="1" height="1" fill="#000000" />
<rect x="79" y="40" width="1" height="1" fill="#000000" />
<rect x="80" y="40" width="1" height="1" fill="#000000" />
<rect x="84" y="40" width="1" height="1" fill="#000000" />
<rect x="86" y="40" width="1" height="1" fill="#000000" />
<rect x="88" y="40" width="1" height="1" fill="#000000" />
<rect x="93" y="40" width="1" height="1" fill="#000000" />
<rect x="94" y="40" width="1" height="1" fill="#000000" />
<rect x="99" y="40" width="1" height="1" fill="#000000" />
<rect x="113" y="40" width="1" height="1" fill="#000000" />
<rect x="114" y="40" width="1" height="1" fill="#000000" />
<rect x="115" y="40" width="1" height="1" fill="#000000" />
<rect x="120" y="40" width="1" height="1" fill="#000000" />
<rect x="121" y="40" width="1" height="1" fill="#000000" />
<rect x="125" y="40" width="1" height="1" fill="#000000" />
<rect x="128" y="40" width="1" height="1" fill="#000000" />
<rect x="129" y="40" width="1" height="1" fill="#000000" />
<rect x="133" y="40" width="1" height="1" fill="#000000" />
<rect x="134" y="40" width="1" height="1" fill="#000000" />
<rect x="135" y="40" width="1" height="1" fill="#000000" />
<rect x="139" y="40" width="1" height="1" fill="#000000" />
<rect x="140" y="40" width="1" height="1" fill="#000000" />
<rect x="141" y="40" width="1" height="1" fill="#000000" />
<rect x="144" y="40" width="1" height="1" fill="#000000" />
<rect x="147" y="40" width="1" height="1" fill="#000000" />
<rect x="20" y="41" width="1" height="1" fill="#000000" />
<rect x="56" y="41" width="1" height="1" fill="#000000" />
<rect x="60" y="41" width="1" height="1" fill="#000000" />
<rect x="67" y="41" width="1" height="1" fill="#000000" />
<rect x="71" y="41" width="1" height="1" fill="#000000" />
<rect x="74" y="41" width="1" height="1" fill="#000000" />
<rect x="77" y="41" width="1" height="1" fill="#000000" />
<rect x="81" y="41" width="1" height="1" fill="#000000" />
<rect x="84" y="41" width="1" height="1" fill="#000000" />
<rect x="88" y="41" width="1" height="1" fill="#000000" />
<rect x="92" y="41" width="1" height="1" fill="#000000" />
<rect x="95" y="41" width="1" height="1" fill="#000000" />
<rect x="99" y="41" width="1" height="1" fill="#000000" />
<rect x="112" y="41" width="1" height="1" fill="#000000" />
<rect x="116" y="41" width="1" height="1" fill="#000000" />
<rect x="119" y="41" width="1" height="1" fill="#000000" />
<rect x="122" y="41" width="1" height="1" fill="#000000" />
<rect x="125" y="41" width="1" height="1" fill="#000000" />
<rect x="127" y="41" width="1" height="1" fill="#000000" />
<rect x="132" y="41" width="1" height="1" fill="#000000" />
<rect x="135" y="41" width="1" height="1" fill="#000000" />
<rect x="138" y="41" width="1" height="1" fill="#000000" />
<rect x="142" y="41" width="1" height="1" fill="#000000" />
<rect x="144" y="41" width="1" height="1" fill="#000000" />
<rect x="146" y="41" width="1" height="1" fill="#000000" />
<rect x="148" y="41" width="1" height="1" fill="#000000" />
<rect x="20" y="42" width="1" height="1" fill="#000000" />
<rect x="21" y="42" width="1" height="1" fill="#000000" />
<rect x="28" y="42" width="1" height="1" fill="#000000" />
<rect x="56" y="42" width="1" height="1" fill="#000000" />
<rect x="60" y="42" width="1" height="1" fill="#000000" />
<rect x="67" y="42" width="1" height="1" fill="#000000" />
<rect x="71" y="42" width="1" height="1" fill="#000000" />
<rect x="74" y="42" width="1" height="1" fill="#000000" />
<rect x="77" y="42" width="1" height="1" fill="#000000" />
<rect x="81" y="42" width="1" height="1" fill="#000000" />
<rect x="84" y="42" width="1" height="1" fill="#000000" />
<rect x="88" y="42" width="1" height="1" fill="#000000" />
<rect x="91" y="42" width="1" height="1" fill="#000000" />
<rect x="95" y="42" width="1" height="1" fill="#000000" />
<rect x="99" y="42" width="1" height="1" fill="#000000" />
<rect x="111" y="42" width="1" height="1" fill="#000000" />
<rect x="116" y="42" width="1" height="1" fill="#000000" />
<rect x="118" y="42" width="1" height="1" fill="#000000" />
<rect x="122" y="42" width="1" height="1" fill="#000000" />
<rect x="126" y="42" width="1" height="1" fill="#000000" />
<rect x="131" y="42" width="1" height="1" fill="#000000" />
<rect x="135" y="42" width="1" height="1" fill="#000000" />
<rect x="138" y="42" width="1" height="1" fill="#000000" />
<rect x="139" y="42" width="1" height="1" fill="#000000" />
<rect x="140" y="42" width="1" height="1" fill="#000000" />
<rect x="141" y="42" width="1" height="1" fill="#000000" />
<rect x="145" y="42" width="1" height="1" fill="#000000" />
<rect x="149" y="42" width="1" height="1" fill="#000000" />
<rect x="168" y="42" width="1" height="1" fill="#000000" />
<rect x="169" y="42" width="1" height="1" fill="#000000" />
<rect x="170" y="42" width="1" height="1" fill="#000000" />
<rect x="171" y="42" width="1" height="1" fill="#000000" />
<rect x="172" y="42" width="1" height="1" fill="#000000" />
<rect x="21" y="43" width="1" height="1" fill="#000000" />
<rect x="22" y="43" width="1" height="1" fill="#000000" />
<rect x="27" y="43" width="1" height="1" fill="#000000" />
<rect x="56" y="43" width="1" height="1" fill="#000000" />
<rect x="60" y="43" width="1" height="1" fill="#000000" />
<rect x="67" y="43" width="1" height="1" fill="#000000" />
<rect x="71" y="43" width="1" height="1" fill="#000000" />
<rect x="74" y="43" width="1" height="1" fill="#000000" />
<rect x="76" y="43" width="1" height="1" fill="#000000" />
<rect x="81" y="43" width="1" height="1" fill="#000000" />
<rect x="84" y="43" width="1" height="1" fill="#000000" />
<rect x="88" y="43" width="1" height="1" fill="#000000" />
<rect x="91" y="43" width="1" height="1" fill="#000000" />
<rect x="95" y="43" width="1" height="1" fill="#000000" />
<rect x="99" y="43" width="1" height="1" fill="#000000" />
<rect x="111" y="43" width="1" height="1" fill="#000000" />
<rect x="116" y="43" width="1" height="1" fill="#000000" />
<rect x="118" y="43" width="1" height="1" fill="#000000" />
<rect x="122" y="43" width="1" height="1" fill="#000000" />
<rect x="126" y="43" width="1" height="1" fill="#000000" />
<rect x="131" y="43" width="1" height="1" fill="#000000" />
<rect x="135" y="43" width="1" height="1" fill="#000000" />
<rect x="137" y="43" width="1" height="1" fill="#000000" />
<rect x="145" y="43" width="1" height="1" fill="#000000" />
<rect x="149" y="43" width="1" height="1" fill="#000000" />
<rect x="167" y="43" width="1" height="1" fill="#000000" />
<rect x="173" y="43" width="1" height="1" fill="#000000" />
<rect x="174" y="43" width="1" height="1" fill="#000000" />
<rect x="21" y="44" width="1" height="1" fill="#000000" />
<rect x="23" y="44" width="1" height="1" fill="#000000" />
<rect x="24" y="44" width="1" height="1" fill="#000000" />
<rect x="25" y="44" width="1" height="1" fill="#000000" />
<rect x="26" y="44" width="1" height="1" fill="#000000" />
<rect x="56" y="44" width="1" height="1" fill="#000000" />
<rect x="59" y="44" width="1" height="1" fill="#000000" />
<rect x="61" y="44" width="1" height="1" fill="#000000" />
<rect x="67" y="44" width="1" height="1" fill="#000000" />
<rect x="70" y="44" width="1" height="1" fill="#000000" />
<rect x="73" y="44" width="1" height="1" fill="#000000" />
<rect x="76" y="44" width="1" height="1" fill="#000000" />
<rect x="80" y="44" width="1" height="1" fill="#000000" />
<rect x="84" y="44" width="1" height="1" fill="#000000" />
<rect x="89" y="44" width="1" height="1" fill="#000000" />
<rect x="91" y="44" width="1" height="1" fill="#000000" />
<rect x="94" y="44" width="1" height="1" fill="#000000" />
<rect x="96" y="44" width="1" height="1" fill="#000000" />
<rect x="99" y="44" width="1" height="1" fill="#000000" />
<rect x="111" y="44" width="1" height="1" fill="#000000" />
<rect x="115" y="44" width="1" height="1" fill="#000000" />
<rect x="116" y="44" width="1" height="1" fill="#000000" />
<rect x="118" y="44" width="1" height="1" fill="#000000" />
<rect x="122" y="44" width="1" height="1" fill="#000000" />
<rect x="126" y="44" width="1" height="1" fill="#000000" />
<rect x="132" y="44" width="1" height="1" fill="#000000" />
<rect x="135" y="44" width="1" height="1" fill="#000000" />
<rect x="137" y="44" width="1" height="1" fill="#000000" />
<rect x="145" y="44" width="1" height="1" fill="#000000" />
<rect x="149" y="44" width="1" height="1" fill="#000000" />
<rect x="166" y="44" width="1" height="1" fill="#000000" />
<rect x="175" y="44" width="1" height="1" fill="#000000" />
<rect x="21" y="45" width="1" height="1" fill="#000000" />
<rect x="25" y="45" width="1" height="1" fill="#000000" />
<rect x="57" y="45" width="1" height="1" fill="#000000" />
<rect x="58" y="45" width="1" height="1" fill="#000000" />
<rect x="68" y="45" width="1" height="1" fill="#000000" />
<rect x="69" y="45" width="1" height="1" fill="#000000" />
<rect x="73" y="45" width="1" height="1" fill="#000000" />
<rect x="77" y="45" width="1" height="1" fill="#000000" />
<rect x="78" y="45" width="1" height="1" fill="#000000" />
<rect x="79" y="45" width="1" height="1" fill="#000000" />
<rect x="80" y="45" width="1" height="1" fill="#000000" />
<rect x="83" y="45" width="1" height="1" fill="#000000" />
<rect x="89" y="45" width="1" height="1" fill="#000000" />
<rect x="92" y="45" width="1" height="1" fill="#000000" />
<rect x="93" y="45" width="1" height="1" fill="#000000" />
<rect x="96" y="45" width="1" height="1" fill="#000000" />
<rect x="99" y="45" width="1" height="1" fill="#000000" />
<rect x="112" y="45" width="1" height="1" fill="#000000" />
<rect x="113" y="45" width="1" height="1" fill="#000000" />
<rect x="114" y="45" width="1" height="1" fill="#000000" />
<rect x="116" y="45" width="1" height="1" fill="#000000" />
<rect x="119" y="45" width="1" height="1" fill="#000000" />
<rect x="120" y="45" width="1" height="1" fill="#000000" />
<rect x="121" y="45" width="1" height="1" fill="#000000" />
<rect x="123" y="45" width="1" height="1" fill="#000000" />
<rect x="126" y="45" width="1" height="1" fill="#000000" />
<rect x="133" y="45" width="1" height="1" fill="#000000" />
<rect x="134" y="45" width="1" height="1" fill="#000000" />
<rect x="138" y="45" width="1" height="1" fill="#000000" />
<rect x="139" y="45" width="1" height="1" fill="#000000" />
<rect x="140" y="45" width="1" height="1" fill="#000000" />
<rect x="141" y="45" width="1" height="1" fill="#000000" />
<rect x="145" y="45" width="1" height="1" fill="#000000" />
<rect x="170" y="45" width="1" height="1" fill="#000000" />
<rect x="171" y="45" width="1" height="1" fill="#000000" />
<rect x="176" y="45" width="1" height="1" fill="#000000" />
<rect x="20" y="46" width="1" height="1" fill="#000000" />
<rect x="24" y="46" width="1" height="1" fill="#000000" />
<rect x="80" y="46" width="1" height="1" fill="#000000" />
<rect x="116" y="46" width="1" height="1" fill="#000000" />
<rect x="168" y="46" width="1" height="1" fill="#000000" />
<rect x="169" y="46" width="1" height="1" fill="#000000" />
<rect x="172" y="46" width="1" height="1" fill="#000000" />
<rect x="173" y="46" width="1" height="1" fill="#000000" />
<rect x="177" y="46" width="1" height="1" fill="#000000" />
<rect x="19" y="47" width="1" height="1" fill="#000000" />
<rect x="20" y="47" width="1" height="1" fill="#000000" />
<rect x="21" y="47" width="1" height="1" fill="#000000" />
<rect x="22" y="47" width="1" height="1" fill="#000000" />
<rect x="24" y="47" width="1" height="1" fill="#000000" />
<rect x="75" y="47" width="1" height="1" fill="#000000" />
<rect x="80" y="47" width="1" height="1" fill="#000000" />
<rect x="115" y="47" width="1" height="1" fill="#000000" />
<rect x="167" y="47" width="1" height="1" fill="#000000" />
<rect x="174" y="47" width="1" height="1" fill="#000000" />
<rect x="177" y="47" width="1" height="1" fill="#000000" />
<rect x="17" y="48" width="1" height="1" fill="#000000" />
<rect x="18" y="48" width="1" height="1" fill="#000000" />
<rect x="23" y="48" width="1" height="1" fill="#000000" />
<rect x="24" y="48" width="1" height="1" fill="#000000" />
<rect x="76" y="48" width="1" height="1" fill="#000000" />
<rect x="79" y="48" width="1" height="1" fill="#000000" />
<rect x="111" y="48" width="1" height="1" fill="#000000" />
<rect x="114" y="48" width="1" height="1" fill="#000000" />
<rect x="166" y="48" width="1" height="1" fill="#000000" />
<rect x="170" y="48" width="1" height="1" fill="#000000" />
<rect x="171" y="48" width="1" height="1" fill="#000000" />
<rect x="174" y="48" width="1" height="1" fill="#000000" />
<rect x="178" y="48" width="1" height="1" fill="#000000" />
<rect x="16" y="49" width="1" height="1" fill="#000000" />
<rect x="24" y="49" width="1" height="1" fill="#000000" />
<rect x="77" y="49" width="1" height="1" fill="#000000" />
<rect x="78" y="49" width="1" height="1" fill="#000000" />
<rect x="112" y="49" width="1" height="1" fill="#000000" />
<rect x="113" y="49" width="1" height="1" fill="#000000" />
<rect x="166" y="49" width="1" height="1" fill="#000000" />
<rect x="169" y="49" width="1" height="1" fill="#000000" />
<rect x="172" y="49" width="1" height="1" fill="#000000" />
<rect x="175" y="49" width="1" height="1" fill="#000000" />
<rect x="178" y="49" width="1" height="1" fill="#000000" />
<rect x="24" y="50" width="1" height="1" fill="#000000" />
<rect x="25" y="50" width="1" height="1" fill="#000000" />
<rect x="165" y="50" width="1" height="1" fill="#000000" />
<rect x="169" y="50" width="1" height="1" fill="#000000" />
<rect x="171" y="50" width="1" height="1" fill="#000000" />
<rect x="175" y="50" width="1" height="1" fill="#000000" />
<rect x="178" y="50" width="1" height="1" fill="#000000" />
<rect x="25" y="51" width="1" height="1" fill="#000000" />
<rect x="165" y="51" width="1" height="1" fill="#000000" />
<rect x="169" y="51" width="1" height="1" fill="#000000" />
<rect x="174" y="51" width="1" height="1" fill="#000000" />
<rect x="178" y="51" width="1" height="1" fill="#000000" />
<rect x="25" y="52" width="1" height="1" fill="#000000" />
<rect x="26" y="52" width="1" height="1" fill="#000000" />
<rect x="165" y="52" width="1" height="1" fill="#000000" />
<rect x="170" y="52" width="1" height="1" fill="#000000" />
<rect x="171" y="52" width="1" height="1" fill="#000000" />
<rect x="172" y="52" width="1" height="1" fill="#000000" />
<rect x="173" y="52" width="1" height="1" fill="#000000" />
<rect x="178" y="52" width="1" height="1" fill="#000000" />
<rect x="26" y="53" width="1" height="1" fill="#000000" />
<rect x="166" y="53" width="1" height="1" fill="#000000" />
<rect x="177" y="53" width="1" height="1" fill="#000000" />
<rect x="167" y="54" width="1" height="1" fill="#000000" />
<rect x="168" y="54" width="1" height="1" fill="#000000" />
<rect x="175" y="54" width="1" height="1" fill="#000000" />
<rect x="176" y="54" width="1" height="1" fill="#000000" />
<rect x="169" y="55" width="1" height="1" fill="#000000" />
<rect x="170" y="55" width="1" height="1" fill="#000000" />
<rect x="171" y="55" width="1" height="1" fill="#000000" />
<rect x="172" y="55" width="1" height="1" fill="#000000" />
<rect x="173" y="55" width="1" height="1" fill="#000000" />
<rect x="174" y="55" width="1" height="1" fill="#000000" />
</svg>