<?xml version="1.0" encoding="UTF-8" ?>
<svg version="1.1" width="1720" height="540" xmlns="http://www.w3.org/2000/svg" shape-rendering="crispEdges">
<rect x="1620" y="10" width="10" height="10" fill="#000000" />
<rect x="1610" y="20" width="10" height="10" fill="#000000" />
<rect x="1620" y="20" width="10" height="10" fill="#000000" />
<rect x="1600" y="30" width="10" height="10" fill="#000000" />
<rect x="1620" y="30" width="10" height="10" fill="#000000" />
<rect x="1590" y="40" width="10" height="10" fill="#000000" />
<rect x="1620" y="40" width="10" height="10" fill="#000000" />
<rect x="1590" y="50" width="10" height="10" fill="#000000" />
<rect x="1620" y="50" width="10" height="10" fill="#000000" />
<rect x="1490" y="60" width="10" height="10" fill="#000000" />
<rect x="1500" y="60" width="10" height="10" fill="#000000" />
<rect x="1510" y="60" width="10" height="10" fill="#000000" />
<rect x="1520" y="60" width="10" height="10" fill="#000000" />
<rect x="1530" y="60" width="10" height="10" fill="#000000" />
<rect x="1580" y="60" width="10" height="10" fill="#000000" />
<rect x="1620" y="60" width="10" height="10" fill="#000000" />
<rect x="1500" y="70" width="10" height="10" fill="#000000" />
<rect x="1540" y="70" width="10" height="10" fill="#000000" />
<rect x="1550" y="70" width="10" height="10" fill="#000000" />
<rect x="1560" y="70" width="10" height="10" fill="#000000" />
<rect x="1570" y="70" width="10" height="10" fill="#000000" />
<rect x="1620" y="70" width="10" height="10" fill="#000000" />
<rect x="140" y="80" width="10" height="10" fill="#000000" />
<rect x="150" y="80" width="10" height="10" fill="#000000" />
<rect x="160" y="80" width="10" height="10" fill="#000000" />
<rect x="1510" y="80" width="10" height="10" fill="#000000" />
<rect x="1630" y="80" width="10" height="10" fill="#000000" />
<rect x="1640" y="80" width="10" height="10" fill="#000000" />
<rect x="130" y="90" width="10" height="10" fill="#000000" />
<rect x="170" y="90" width="10" height="10" fill="#000000" />
<rect x="180" y="90" width="10" height="10" fill="#000000" />
<rect x="1520" y="90" width="10" height="10" fill="#000000" />
<rect x="1650" y="90" width="10" height="10" fill="#000000" />
<rect x="1660" y="90" width="10" height="10" fill="#000000" />
<rect x="1670" y="90" width="10" height="10" fill="#000000" />
<rect x="1680" y="90" width="10" height="10" fill="#000000" />
<rect x="120" y="100" width="10" height="10" fill="#000000" />
<rect x="190" y="100" width="10" height="10" fill="#000000" />
<rect x="1530" y="100" width="10" height="10" fill="#000000" />
<rect x="1680" y="100" width="10" height="10" fill="#000000" />
<rect x="1690" y="100" width="10" height="10" fill="#000000" />
<rect x="1700" y="100" width="10" height="10" fill="#000000" />
<rect x="110" y="110" width="10" height="10" fill="#000000" />
<rect x="190" y="110" width="10" height="10" fill="#000000" />
<rect x="1540" y="110" width="10" height="10" fill="#000000" />
<rect x="1640" y="110" width="10" height="10" fill="#000000" />
<rect x="1650" y="110" width="10" height="10" fill="#000000" />
<rect x="1660" y="110" width="10" height="10" fill="#000000" />
<rect x="1670" y="110" width="10" height="10" fill="#000000" />
<rect x="100" y="120" width="10" height="10" fill="#000000" />
<rect x="190" y="120" width="10" height="10" fill="#000000" />
<rect x="1530" y="120" width="10" height="10" fill="#000000" />
<rect x="1620" y="120" width="10" height="10" fill="#000000" />
<rect x="1630" y="120" width="10" height="10" fill="#000000" />
<rect x="30" y="130" width="10" height="10" fill="#000000" />
<rect x="40" y="130" width="10" height="10" fill="#000000" />
<rect x="50" y="130" width="10" height="10" fill="#000000" />
<rect x="60" y="130" width="10" height="10" fill="#000000" />
<rect x="70" y="130" width="10" height="10" fill="#000000" />
<rect x="100" y="130" width="10" height="10" fill="#000000" />
<rect x="190" y="130" width="10" height="10" fill="#000000" />
<rect x="1520" y="130" width="10" height="10" fill="#000000" />
<rect x="1620" y="130" width="10" height="10" fill="#000000" />
<rect x="20" y="140" width="10" height="10" fill="#000000" />
<rect x="80" y="140" width="10" height="10" fill="#000000" />
<rect x="90" y="140" width="10" height="10" fill="#000000" />
<rect x="190" y="140" width="10" height="10" fill="#000000" />
<rect x="520" y="140" width="10" height="10" fill="#000000" />
<rect x="1050" y="140" width="10" height="10" fill="#000000" />
<rect x="1470" y="140" width="10" height="10" fill="#000000" />
<rect x="1520" y="140" width="10" height="10" fill="#000000" />
<rect x="1570" y="140" width="10" height="10" fill="#000000" />
<rect x="1580" y="140" width="10" height="10" fill="#000000" />
<rect x="1630" y="140" width="10" height="10" fill="#000000" />
<rect x="10" y="150" width="10" height="10" fill="#000000" />
<rect x="90" y="150" width="10" height="10" fill="#000000" />
<rect x="190" y="150" width="10" height="10" fill="#000000" />
<rect x="520" y="150" width="10" height="10" fill="#000000" />
<rect x="700" y="150" width="10" height="10" fill="#000000" />
<rect x="1050" y="150" width="10" height="10" fill="#000000" />
<rect x="1090" y="150" width="10" height="10" fill="#000000" />
<rect x="1320" y="150" width="10" height="10" fill="#000000" />
<rect x="1460" y="150" width="10" height="10" fill="#000000" />
<rect x="1510" y="150" width="10" height="10" fill="#000000" />
<rect x="1540" y="150" width="10" height="10" fill="#000000" />
<rect x="1550" y="150" width="10" height="10" fill="#000000" />
<rect x="1560" y="150" width="10" height="10" fill="#000000" />
<rect x="1590" y="150" width="10" height="10" fill="#000000" />
<rect x="1630" y="150" width="10" height="10" fill="#000000" />
<rect x="10" y="160" width="10" height="10" fill="#000000" />
<rect x="190" y="160" width="10" height="10" fill="#000000" />
<rect x="530" y="160" width="10" height="10" fill="#000000" />
<rect x="700" y="160" width="10" height="10" fill="#000000" />
<rect x="1050" y="160" width="10" height="10" fill="#000000" />
<rect x="1090" y="160" width="10" height="10" fill="#000000" />
<rect x="1140" y="160" width="10" height="10" fill="#000000" />
<rect x="1320" y="160" width="10" height="10" fill="#000000" />
<rect x="1460" y="160" width="10" height="10" fill="#000000" />
<rect x="1500" y="160" width="10" height="10" fill="#000000" />
<rect x="1520" y="160" width="10" height="10" fill="#000000" />
<rect x="1530" y="160" width="10" height="10" fill="#000000" />
<rect x="1600" y="160" width="10" height="10" fill="#000000" />
<rect x="1630" y="160" width="10" height="10" fill="#000000" />
<rect x="10" y="170" width="10" height="10" fill="#000000" />
<rect x="180" y="170" width="10" height="10" fill="#000000" />
<rect x="530" y="170" width="10" height="10" fill="#000000" />
<rect x="710" y="170" width="10" height="10" fill="#000000" />
<rect x="1050" y="170" width="10" height="10" fill="#000000" />
<rect x="1090" y="170" width="10" height="10" fill="#000000" />
<rect x="1320" y="170" width="10" height="10" fill="#000000" />
<rect x="1350" y="170" width="10" height="10" fill="#000000" />
<rect x="1460" y="170" width="10" height="10" fill="#000000" />
<rect x="1500" y="170" width="10" height="10" fill="#000000" />
<rect x="1510" y="170" width="10" height="10" fill="#000000" />
<rect x="1610" y="170" width="10" height="10" fill="#000000" />
<rect x="1640" y="170" width="10" height="10" fill="#000000" />
<rect x="20" y="180" width="10" height="10" fill="#000000" />
<rect x="180" y="180" width="10" height="10" fill="#000000" />
<rect x="530" y="180" width="10" height="10" fill="#000000" />
<rect x="710" y="180" width="10" height="10" fill="#000000" />
<rect x="720" y="180" width="10" height="10" fill="#000000" />
<rect x="730" y="180" width="10" height="10" fill="#000000" />
<rect x="760" y="180" width="10" height="10" fill="#000000" />
<rect x="770" y="180" width="10" height="10" fill="#000000" />
<rect x="780" y="180" width="10" height="10" fill="#000000" />
<rect x="920" y="180" width="10" height="10" fill="#000000" />
<rect x="930" y="180" width="10" height="10" fill="#000000" />
<rect x="940" y="180" width="10" height="10" fill="#000000" />
<rect x="970" y="180" width="10" height="10" fill="#000000" />
<rect x="1010" y="180" width="10" height="10" fill="#000000" />
<rect x="1050" y="180" width="10" height="10" fill="#000000" />
<rect x="1080" y="180" width="10" height="10" fill="#000000" />
<rect x="1090" y="180" width="10" height="10" fill="#000000" />
<rect x="1100" y="180" width="10" height="10" fill="#000000" />
<rect x="1110" y="180" width="10" height="10" fill="#000000" />
<rect x="1170" y="180" width="10" height="10" fill="#000000" />
<rect x="1210" y="180" width="10" height="10" fill="#000000" />
<rect x="1250" y="180" width="10" height="10" fill="#000000" />
<rect x="1260" y="180" width="10" height="10" fill="#000000" />
<rect x="1310" y="180" width="10" height="10" fill="#000000" />
<rect x="1320" y="180" width="10" height="10" fill="#000000" />
<rect x="1330" y="180" width="10" height="10" fill="#000000" />
<rect x="1340" y="180" width="10" height="10" fill="#000000" />
<rect x="1380" y="180" width="10" height="10" fill="#000000" />
<rect x="1390" y="180" width="10" height="10" fill="#000000" />
<rect x="1440" y="180" width="10" height="10" fill="#000000" />
<rect x="1450" y="180" width="10" height="10" fill="#000000" />
<rect x="1460" y="180" width="10" height="10" fill="#000000" />
<rect x="1620" y="180" width="10" height="10" fill="#000000" />
<rect x="1640" y="180" width="10" height="10" fill="#000000" />
<rect x="20" y="190" width="10" height="10" fill="#000000" />
<rect x="180" y="190" width="10" height="10" fill="#000000" />
<rect x="230" y="190" width="10" height="10" fill="#000000" />
<rect x="240" y="190" width="10" height="10" fill="#000000" />
<rect x="250" y="190" width="10" height="10" fill="#000000" />
<rect x="260" y="190" width="10" height="10" fill="#000000" />
<rect x="270" y="190" width="10" height="10" fill="#000000" />
<rect x="280" y="190" width="10" height="10" fill="#000000" />
<rect x="320" y="190" width="10" height="10" fill="#000000" />
<rect x="340" y="190" width="10" height="10" fill="#000000" />
<rect x="350" y="190" width="10" height="10" fill="#000000" />
<rect x="360" y="190" width="10" height="10" fill="#000000" />
<rect x="410" y="190" width="10" height="10" fill="#000000" />
<rect x="420" y="190" width="10" height="10" fill="#000000" />
<rect x="430" y="190" width="10" height="10" fill="#000000" />
<rect x="440" y="190" width="10" height="10" fill="#000000" />
<rect x="500" y="190" width="10" height="10" fill="#000000" />
<rect x="510" y="190" width="10" height="10" fill="#000000" />
<rect x="520" y="190" width="10" height="10" fill="#000000" />
<rect x="530" y="190" width="10" height="10" fill="#000000" />
<rect x="560" y="190" width="10" height="10" fill="#000000" />
<rect x="600" y="190" width="10" height="10" fill="#000000" />
<rect x="650" y="190" width="10" height="10" fill="#000000" />
<rect x="660" y="190" width="10" height="10" fill="#000000" />
<rect x="690" y="190" width="10" height="10" fill="#000000" />
<rect x="700" y="190" width="10" height="10" fill="#000000" />
<rect x="710" y="190" width="10" height="10" fill="#000000" />
<rect x="750" y="190" width="10" height="10" fill="#000000" />
<rect x="910" y="190" width="10" height="10" fill="#000000" />
<rect x="970" y="190" width="10" height="10" fill="#000000" />
<rect x="1010" y="190" width="10" height="10" fill="#000000" />
<rect x="1050" y="190" width="10" height="10" fill="#000000" />
<rect x="1070" y="190" width="10" height="10" fill="#000000" />
<rect x="1090" y="190" width="10" height="10" fill="#000000" />
<rect x="1140" y="190" width="10" height="10" fill="#000000" />
<rect x="1170" y="190" width="10" height="10" fill="#000000" />
<rect x="1210" y="190" width="10" height="10" fill="#000000" />
<rect x="1240" y="190" width="10" height="10" fill="#000000" />
<rect x="1270" y="190" width="10" height="10" fill="#000000" />
<rect x="1300" y="190" width="10" height="10" fill="#000000" />
<rect x="1320" y="190" width="10" height="10" fill="#000000" />
<rect x="1370" y="190" width="10" height="10" fill="#000000" />
<rect x="1400" y="190" width="10" height="10" fill="#000000" />
<rect x="1430" y="190" width="10" height="10" fill="#000000" />
<rect x="1460" y="190" width="10" height="10" fill="#000000" />
<rect x="1630" y="190" width="10" height="10" fill="#000000" />
<rect x="1640" y="190" width="10" height="10" fill="#000000" />
<rect x="30" y="200" width="10" height="10" fill="#000000" />
<rect x="170" y="200" width="10" height="10" fill="#000000" />
<rect x="220" y="200" width="10" height="10" fill="#000000" />
<rect x="290" y="200" width="10" height="10" fill="#000000" />
<rect x="330" y="200" width="10" height="10" fill="#000000" />
<rect x="370" y="200" width="10" height="10" fill="#000000" />
<rect x="400" y="200" width="10" height="10" fill="#000000" />
<rect x="450" y="200" width="10" height="10" fill="#000000" />
<rect x="490" y="200" width="10" height="10" fill="#000000" />
<rect x="530" y="200" width="10" height="10" fill="#000000" />
<rect x="560" y="200" width="10" height="10" fill="#000000" />
<rect x="600" y="200" width="10" height="10" fill="#000000" />
<rect x="640" y="200" width="10" height="10" fill="#000000" />
<rect x="710" y="200" width="10" height="10" fill="#000000" />
<rect x="750" y="200" width="10" height="10" fill="#000000" />
<rect x="900" y="200" width="10" height="10" fill="#000000" />
<rect x="970" y="200" width="10" height="10" fill="#000000" />
<rect x="1020" y="200" width="10" height="10" fill="#000000" />
<rect x="1040" y="200" width="10" height="10" fill="#000000" />
<rect x="1090" y="200" width="10" height="10" fill="#000000" />
<rect x="1140" y="200" width="10" height="10" fill="#000000" />
<rect x="1170" y="200" width="10" height="10" fill="#000000" />
<rect x="1210" y="200" width="10" height="10" fill="#000000" />
<rect x="1230" y="200" width="10" height="10" fill="#000000" />
<rect x="1270" y="200" width="10" height="10" fill="#000000" />
<rect x="1320" y="200" width="10" height="10" fill="#000000" />
<rect x="1360" y="200" width="10" height="10" fill="#000000" />
<rect x="1390" y="200" width="10" height="10" fill="#000000" />
<rect x="1420" y="200" width="10" height="10" fill="#000000" />
<rect x="1460" y="200" width="10" height="10" fill="#000000" />
<rect x="40" y="210" width="10" height="10" fill="#000000" />
<rect x="170" y="210" width="10" height="10" fill="#000000" />
<rect x="220" y="210" width="10" height="10" fill="#000000" />
<rect x="290" y="210" width="10" height="10" fill="#000000" />
<rect x="330" y="210" width="10" height="10" fill="#000000" />
<rect x="400" y="210" width="10" height="10" fill="#000000" />
<rect x="450" y="210" width="10" height="10" fill="#000000" />
<rect x="480" y="210" width="10" height="10" fill="#000000" />
<rect x="530" y="210" width="10" height="10" fill="#000000" />
<rect x="560" y="210" width="10" height="10" fill="#000000" />
<rect x="600" y="210" width="10" height="10" fill="#000000" />
<rect x="630" y="210" width="10" height="10" fill="#000000" />
<rect x="710" y="210" width="10" height="10" fill="#000000" />
<rect x="760" y="210" width="10" height="10" fill="#000000" />
<rect x="770" y="210" width="10" height="10" fill="#000000" />
<rect x="900" y="210" width="10" height="10" fill="#000000" />
<rect x="970" y="210" width="10" height="10" fill="#000000" />
<rect x="1020" y="210" width="10" height="10" fill="#000000" />
<rect x="1040" y="210" width="10" height="10" fill="#000000" />
<rect x="1090" y="210" width="10" height="10" fill="#000000" />
<rect x="1140" y="210" width="10" height="10" fill="#000000" />
<rect x="1170" y="210" width="10" height="10" fill="#000000" />
<rect x="1200" y="210" width="10" height="10" fill="#000000" />
<rect x="1230" y="210" width="10" height="10" fill="#000000" />
<rect x="1280" y="210" width="10" height="10" fill="#000000" />
<rect x="1320" y="210" width="10" height="10" fill="#000000" />
<rect x="1360" y="210" width="10" height="10" fill="#000000" />
<rect x="1370" y="210" width="10" height="10" fill="#000000" />
<rect x="1380" y="210" width="10" height="10" fill="#000000" />
<rect x="1420" y="210" width="10" height="10" fill="#000000" />
<rect x="1460" y="210" width="10" height="10" fill="#000000" />
<rect x="50" y="220" width="10" height="10" fill="#000000" />
<rect x="60" y="220" width="10" height="10" fill="#000000" />
<rect x="160" y="220" width="10" height="10" fill="#000000" />
<rect x="230" y="220" width="10" height="10" fill="#000000" />
<rect x="280" y="220" width="10" height="10" fill="#000000" />
<rect x="330" y="220" width="10" height="10" fill="#000000" />
<rect x="400" y="220" width="10" height="10" fill="#000000" />
<rect x="450" y="220" width="10" height="10" fill="#000000" />
<rect x="480" y="220" width="10" height="10" fill="#000000" />
<rect x="520" y="220" width="10" height="10" fill="#000000" />
<rect x="560" y="220" width="10" height="10" fill="#000000" />
<rect x="600" y="220" width="10" height="10" fill="#000000" />
<rect x="630" y="220" width="10" height="10" fill="#000000" />
<rect x="710" y="220" width="10" height="10" fill="#000000" />
<rect x="780" y="220" width="10" height="10" fill="#000000" />
<rect x="900" y="220" width="10" height="10" fill="#000000" />
<rect x="970" y="220" width="10" height="10" fill="#000000" />
<rect x="1020" y="220" width="10" height="10" fill="#000000" />
<rect x="1040" y="220" width="10" height="10" fill="#000000" />
<rect x="1090" y="220" width="10" height="10" fill="#000000" />
<rect x="1140" y="220" width="10" height="10" fill="#000000" />
<rect x="1180" y="220" width="10" height="10" fill="#000000" />
<rect x="1200" y="220" width="10" height="10" fill="#000000" />
<rect x="1230" y="220" width="10" height="10" fill="#000000" />
<rect x="1280" y="220" width="10" height="10" fill="#000000" />
<rect x="1320" y="220" width="10" height="10" fill="#000000" />
<rect x="1360" y="220" width="10" height="10" fill="#000000" />
<rect x="1420" y="220" width="10" height="10" fill="#000000" />
<rect x="1460" y="220" width="10" height="10" fill="#000000" />
<rect x="70" y="230" width="10" height="10" fill="#000000" />
<rect x="80" y="230" width="10" height="10" fill="#000000" />
<rect x="160" y="230" width="10" height="10" fill="#000000" />
<rect x="230" y="230" width="10" height="10" fill="#000000" />
<rect x="260" y="230" width="10" height="10" fill="#000000" />
<rect x="270" y="230" width="10" height="10" fill="#000000" />
<rect x="330" y="230" width="10" height="10" fill="#000000" />
<rect x="400" y="230" width="10" height="10" fill="#000000" />
<rect x="440" y="230" width="10" height="10" fill="#000000" />
<rect x="490" y="230" width="10" height="10" fill="#000000" />
<rect x="520" y="230" width="10" height="10" fill="#000000" />
<rect x="570" y="230" width="10" height="10" fill="#000000" />
<rect x="600" y="230" width="10" height="10" fill="#000000" />
<rect x="640" y="230" width="10" height="10" fill="#000000" />
<rect x="680" y="230" width="10" height="10" fill="#000000" />
<rect x="710" y="230" width="10" height="10" fill="#000000" />
<rect x="750" y="230" width="10" height="10" fill="#000000" />
<rect x="790" y="230" width="10" height="10" fill="#000000" />
<rect x="910" y="230" width="10" height="10" fill="#000000" />
<rect x="980" y="230" width="10" height="10" fill="#000000" />
<rect x="1020" y="230" width="10" height="10" fill="#000000" />
<rect x="1040" y="230" width="10" height="10" fill="#000000" />
<rect x="1090" y="230" width="10" height="10" fill="#000000" />
<rect x="1140" y="230" width="10" height="10" fill="#000000" />
<rect x="1180" y="230" width="10" height="10" fill="#000000" />
<rect x="1200" y="230" width="10" height="10" fill="#000000" />
<rect x="1230" y="230" width="10" height="10" fill="#000000" />
<rect x="1270" y="230" width="10" height="10" fill="#000000" />
<rect x="1290" y="230" width="10" height="10" fill="#000000" />
<rect x="1320" y="230" width="10" height="10" fill="#000000" />
<rect x="1370" y="230" width="10" height="10" fill="#000000" />
<rect x="1400" y="230" width="10" height="10" fill="#000000" />
<rect x="1430" y="230" width="10" height="10" fill="#000000" />
<rect x="1450" y="230" width="10" height="10" fill="#000000" />
<rect x="90" y="240" width="10" height="10" fill="#000000" />
<rect x="100" y="240" width="10" height="10" fill="#000000" />
<rect x="160" y="240" width="10" height="10" fill="#000000" />
<rect x="230" y="240" width="10" height="10" fill="#000000" />
<rect x="240" y="240" width="10" height="10" fill="#000000" />
<rect x="250" y="240" width="10" height="10" fill="#000000" />
<rect x="320" y="240" width="10" height="10" fill="#000000" />
<rect x="410" y="240" width="10" height="10" fill="#000000" />
<rect x="420" y="240" width="10" height="10" fill="#000000" />
<rect x="430" y="240" width="10" height="10" fill="#000000" />
<rect x="500" y="240" width="10" height="10" fill="#000000" />
<rect x="510" y="240" width="10" height="10" fill="#000000" />
<rect x="580" y="240" width="10" height="10" fill="#000000" />
<rect x="590" y="240" width="10" height="10" fill="#000000" />
<rect x="650" y="240" width="10" height="10" fill="#000000" />
<rect x="660" y="240" width="10" height="10" fill="#000000" />
<rect x="670" y="240" width="10" height="10" fill="#000000" />
<rect x="720" y="240" width="10" height="10" fill="#000000" />
<rect x="760" y="240" width="10" height="10" fill="#000000" />
<rect x="770" y="240" width="10" height="10" fill="#000000" />
<rect x="780" y="240" width="10" height="10" fill="#000000" />
<rect x="920" y="240" width="10" height="10" fill="#000000" />
<rect x="930" y="240" width="10" height="10" fill="#000000" />
<rect x="940" y="240" width="10" height="10" fill="#000000" />
<rect x="950" y="240" width="10" height="10" fill="#000000" />
<rect x="990" y="240" width="10" height="10" fill="#000000" />
<rect x="1000" y="240" width="10" height="10" fill="#000000" />
<rect x="1010" y="240" width="10" height="10" fill="#000000" />
<rect x="1080" y="240" width="10" height="10" fill="#000000" />
<rect x="1150" y="240" width="10" height="10" fill="#000000" />
<rect x="1190" y="240" width="10" height="10" fill="#000000" />
<rect x="1240" y="240" width="10" height="10" fill="#000000" />
<rect x="1250" y="240" width="10" height="10" fill="#000000" />
<rect x="1260" y="240" width="10" height="10" fill="#000000" />
<rect x="1290" y="240" width="10" height="10" fill="#000000" />
<rect x="1330" y="240" width="10" height="10" fill="#000000" />
<rect x="1380" y="240" width="10" height="10" fill="#000000" />
<rect x="1390" y="240" width="10" height="10" fill="#000000" />
<rect x="1440" y="240" width="10" height="10" fill="#000000" />
<rect x="110" y="250" width="10" height="10" fill="#000000" />
<rect x="120" y="250" width="10" height="10" fill="#000000" />
<rect x="130" y="250" width="10" height="10" fill="#000000" />
<rect x="160" y="250" width="10" height="10" fill="#000000" />
<rect x="230" y="250" width="10" height="10" fill="#000000" />
<rect x="140" y="260" width="10" height="10" fill="#000000" />
<rect x="150" y="260" width="10" height="10" fill="#000000" />
<rect x="160" y="260" width="10" height="10" fill="#000000" />
<rect x="230" y="260" width="10" height="10" fill="#000000" />
<rect x="240" y="270" width="10" height="10" fill="#000000" />
<rect x="240" y="280" width="10" height="10" fill="#000000" />
<rect x="240" y="290" width="10" height="10" fill="#000000" />
<rect x="240" y="300" width="10" height="10" fill="#000000" />
<rect x="240" y="310" width="10" height="10" fill="#000000" />
<rect x="620" y="310" width="10" height="10" fill="#000000" />
<rect x="900" y="310" width="10" height="10" fill="#000000" />
<rect x="240" y="320" width="10" height="10" fill="#000000" />
<rect x="620" y="320" width="10" height="10" fill="#000000" />
<rect x="790" y="320" width="10" height="10" fill="#000000" />
<rect x="900" y="320" width="10" height="10" fill="#000000" />
<rect x="1280" y="320" width="10" height="10" fill="#000000" />
<rect x="630" y="330" width="10" height="10" fill="#000000" />
<rect x="790" y="330" width="10" height="10" fill="#000000" />
<rect x="910" y="330" width="10" height="10" fill="#000000" />
<rect x="1280" y="330" width="10" height="10" fill="#000000" />
<rect x="290" y="340" width="10" height="10" fill="#000000" />
<rect x="630" y="340" width="10" height="10" fill="#000000" />
<rect x="790" y="340" width="10" height="10" fill="#000000" />
<rect x="910" y="340" width="10" height="10" fill="#000000" />
<rect x="1270" y="340" width="10" height="10" fill="#000000" />
<rect x="630" y="350" width="10" height="10" fill="#000000" />
<rect x="660" y="350" width="10" height="10" fill="#000000" />
<rect x="760" y="350" width="10" height="10" fill="#000000" />
<rect x="800" y="350" width="10" height="10" fill="#000000" />
<rect x="820" y="350" width="10" height="10" fill="#000000" />
<rect x="910" y="350" width="10" height="10" fill="#000000" />
<rect x="1270" y="350" width="10" height="10" fill="#000000" />
<rect x="150" y="360" width="10" height="10" fill="#000000" />
<rect x="330" y="360" width="10" height="10" fill="#000000" />
<rect x="350" y="360" width="10" height="10" fill="#000000" />
<rect x="360" y="360" width="10" height="10" fill="#000000" />
<rect x="630" y="360" width="10" height="10" fill="#000000" />
<rect x="790" y="360" width="10" height="10" fill="#000000" />
<rect x="800" y="360" width="10" height="10" fill="#000000" />
<rect x="810" y="360" width="10" height="10" fill="#000000" />
<rect x="910" y="360" width="10" height="10" fill="#000000" />
<rect x="1270" y="360" width="10" height="10" fill="#000000" />
<rect x="150" y="370" width="10" height="10" fill="#000000" />
<rect x="160" y="370" width="10" height="10" fill="#000000" />
<rect x="290" y="370" width="10" height="10" fill="#000000" />
<rect x="330" y="370" width="10" height="10" fill="#000000" />
<rect x="340" y="370" width="10" height="10" fill="#000000" />
<rect x="370" y="370" width="10" height="10" fill="#000000" />
<rect x="490" y="370" width="10" height="10" fill="#000000" />
<rect x="500" y="370" width="10" height="10" fill="#000000" />
<rect x="510" y="370" width="10" height="10" fill="#000000" />
<rect x="600" y="370" width="10" height="10" fill="#000000" />
<rect x="610" y="370" width="10" height="10" fill="#000000" />
<rect x="620" y="370" width="10" height="10" fill="#000000" />
<rect x="630" y="370" width="10" height="10" fill="#000000" />
<rect x="660" y="370" width="10" height="10" fill="#000000" />
<rect x="700" y="370" width="10" height="10" fill="#000000" />
<rect x="710" y="370" width="10" height="10" fill="#000000" />
<rect x="720" y="370" width="10" height="10" fill="#000000" />
<rect x="760" y="370" width="10" height="10" fill="#000000" />
<rect x="780" y="370" width="10" height="10" fill="#000000" />
<rect x="800" y="370" width="10" height="10" fill="#000000" />
<rect x="850" y="370" width="10" height="10" fill="#000000" />
<rect x="860" y="370" width="10" height="10" fill="#000000" />
<rect x="910" y="370" width="10" height="10" fill="#000000" />
<rect x="1050" y="370" width="10" height="10" fill="#000000" />
<rect x="1060" y="370" width="10" height="10" fill="#000000" />
<rect x="1070" y="370" width="10" height="10" fill="#000000" />
<rect x="1120" y="370" width="10" height="10" fill="#000000" />
<rect x="1130" y="370" width="10" height="10" fill="#000000" />
<rect x="1170" y="370" width="10" height="10" fill="#000000" />
<rect x="1200" y="370" width="10" height="10" fill="#000000" />
<rect x="1210" y="370" width="10" height="10" fill="#000000" />
<rect x="1250" y="370" width="10" height="10" fill="#000000" />
<rect x="1260" y="370" width="10" height="10" fill="#000000" />
<rect x="1270" y="370" width="10" height="10" fill="#000000" />
<rect x="1310" y="370" width="10" height="10" fill="#000000" />
<rect x="1320" y="370" width="10" height="10" fill="#000000" />
<rect x="1330" y="370" width="10" height="10" fill="#000000" />
<rect x="1360" y="370" width="10" height="10" fill="#000000" />
<rect x="1390" y="370" width="10" height="10" fill="#000000" />
<rect x="160" y="380" width="10" height="10" fill="#000000" />
<rect x="290" y="380" width="10" height="10" fill="#000000" />
<rect x="330" y="380" width="10" height="10" fill="#000000" />
<rect x="380" y="380" width="10" height="10" fill="#000000" />
<rect x="480" y="380" width="10" height="10" fill="#000000" />
<rect x="520" y="380" width="10" height="10" fill="#000000" />
<rect x="590" y="380" width="10" height="10" fill="#000000" />
<rect x="630" y="380" width="10" height="10" fill="#000000" />
<rect x="660" y="380" width="10" height="10" fill="#000000" />
<rect x="690" y="380" width="10" height="10" fill="#000000" />
<rect x="730" y="380" width="10" height="10" fill="#000000" />
<rect x="760" y="380" width="10" height="10" fill="#000000" />
<rect x="800" y="380" width="10" height="10" fill="#000000" />
<rect x="840" y="380" width="10" height="10" fill="#000000" />
<rect x="870" y="380" width="10" height="10" fill="#000000" />
<rect x="910" y="380" width="10" height="10" fill="#000000" />
<rect x="1040" y="380" width="10" height="10" fill="#000000" />
<rect x="1080" y="380" width="10" height="10" fill="#000000" />
<rect x="1110" y="380" width="10" height="10" fill="#000000" />
<rect x="1140" y="380" width="10" height="10" fill="#000000" />
<rect x="1170" y="380" width="10" height="10" fill="#000000" />
<rect x="1190" y="380" width="10" height="10" fill="#000000" />
<rect x="1240" y="380" width="10" height="10" fill="#000000" />
<rect x="1270" y="380" width="10" height="10" fill="#000000" />
<rect x="1300" y="380" width="10" height="10" fill="#000000" />
<rect x="1340" y="380" width="10" height="10" fill="#000000" />
<rect x="1360" y="380" width="10" height="10" fill="#000000" />
<rect x="1380" y="380" width="10" height="10" fill="#000000" />
<rect x="1400" y="380" width="10" height="10" fill="#000000" />
<rect x="1470" y="380" width="10" height="10" fill="#000000" />
<rect x="1480" y="380" width="10" height="10" fill="#000000" />
<rect x="1490" y="380" width="10" height="10" fill="#000000" />
<rect x="1500" y="380" width="10" height="10" fill="#000000" />
<rect x="1510" y="380" width="10" height="10" fill="#000000" />
<rect x="160" y="390" width="10" height="10" fill="#000000" />
<rect x="170" y="390" width="10" height="10" fill="#000000" />
<rect x="290" y="390" width="10" height="10" fill="#000000" />
<rect x="330" y="390" width="10" height="10" fill="#000000" />
<rect x="380" y="390" width="10" height="10" fill="#000000" />
<rect x="480" y="390" width="10" height="10" fill="#000000" />
<rect x="520" y="390" width="10" height="10" fill="#000000" />
<rect x="590" y="390" width="10" height="10" fill="#000000" />
<rect x="630" y="390" width="10" height="10" fill="#000000" />
<rect x="660" y="390" width="10" height="10" fill="#000000" />
<rect x="690" y="390" width="10" height="10" fill="#000000" />
<rect x="730" y="390" width="10" height="10" fill="#000000" />
<rect x="760" y="390" width="10" height="10" fill="#000000" />
<rect x="800" y="390" width="10" height="10" fill="#000000" />
<rect x="830" y="390" width="10" height="10" fill="#000000" />
<rect x="870" y="390" width="10" height="10" fill="#000000" />
<rect x="910" y="390" width="10" height="10" fill="#000000" />
<rect x="1030" y="390" width="10" height="10" fill="#000000" />
<rect x="1080" y="390" width="10" height="10" fill="#000000" />
<rect x="1100" y="390" width="10" height="10" fill="#000000" />
<rect x="1140" y="390" width="10" height="10" fill="#000000" />
<rect x="1180" y="390" width="10" height="10" fill="#000000" />
<rect x="1230" y="390" width="10" height="10" fill="#000000" />
<rect x="1270" y="390" width="10" height="10" fill="#000000" />
<rect x="1300" y="390" width="10" height="10" fill="#000000" />
<rect x="1310" y="390" width="10" height="10" fill="#000000" />
<rect x="1320" y="390" width="10" height="10" fill="#000000" />
<rect x="1330" y="390" width="10" height="10" fill="#000000" />
<rect x="1370" y="390" width="10" height="10" fill="#000000" />
<rect x="1410" y="390" width="10" height="10" fill="#000000" />
<rect x="1460" y="390" width="10" height="10" fill="#000000" />
<rect x="1520" y="390" width="10" height="10" fill="#000000" />
<rect x="1530" y="390" width="10" height="10" fill="#000000" />
<rect x="170" y="400" width="10" height="10" fill="#000000" />
<rect x="290" y="400" width="10" height="10" fill="#000000" />
<rect x="330" y="400" width="10" height="10" fill="#000000" />
<rect x="380" y="400" width="10" height="10" fill="#000000" />
<rect x="480" y="400" width="10" height="10" fill="#000000" />
<rect x="520" y="400" width="10" height="10" fill="#000000" />
<rect x="590" y="400" width="10" height="10" fill="#000000" />
<rect x="630" y="400" width="10" height="10" fill="#000000" />
<rect x="660" y="400" width="10" height="10" fill="#000000" />
<rect x="680" y="400" width="10" height="10" fill="#000000" />
<rect x="730" y="400" width="10" height="10" fill="#000000" />
<rect x="760" y="400" width="10" height="10" fill="#000000" />
<rect x="800" y="400" width="10" height="10" fill="#000000" />
<rect x="830" y="400" width="10" height="10" fill="#000000" />
<rect x="870" y="400" width="10" height="10" fill="#000000" />
<rect x="910" y="400" width="10" height="10" fill="#000000" />
<rect x="1030" y="400" width="10" height="10" fill="#000000" />
<rect x="1080" y="400" width="10" height="10" fill="#000000" />
<rect x="1100" y="400" width="10" height="10" fill="#000000" />
<rect x="1140" y="400" width="10" height="10" fill="#000000" />
<rect x="1180" y="400" width="10" height="10" fill="#000000" />
<rect x="1230" y="400" width="10" height="10" fill="#000000" />
<rect x="1270" y="400" width="10" height="10" fill="#000000" />
<rect x="1290" y="400" width="10" height="10" fill="#000000" />
<rect x="1370" y="400" width="10" height="10" fill="#000000" />
<rect x="1410" y="400" width="10" height="10" fill="#000000" />
<rect x="1450" y="400" width="10" height="10" fill="#000000" />
<rect x="1540" y="400" width="10" height="10" fill="#000000" />
<rect x="170" y="410" width="10" height="10" fill="#000000" />
<rect x="180" y="410" width="10" height="10" fill="#000000" />
<rect x="250" y="410" width="10" height="10" fill="#000000" />
<rect x="300" y="410" width="10" height="10" fill="#000000" />
<rect x="340" y="410" width="10" height="10" fill="#000000" />
<rect x="380" y="410" width="10" height="10" fill="#000000" />
<rect x="480" y="410" width="10" height="10" fill="#000000" />
<rect x="510" y="410" width="10" height="10" fill="#000000" />
<rect x="530" y="410" width="10" height="10" fill="#000000" />
<rect x="590" y="410" width="10" height="10" fill="#000000" />
<rect x="620" y="410" width="10" height="10" fill="#000000" />
<rect x="650" y="410" width="10" height="10" fill="#000000" />
<rect x="680" y="410" width="10" height="10" fill="#000000" />
<rect x="720" y="410" width="10" height="10" fill="#000000" />
<rect x="760" y="410" width="10" height="10" fill="#000000" />
<rect x="810" y="410" width="10" height="10" fill="#000000" />
<rect x="830" y="410" width="10" height="10" fill="#000000" />
<rect x="860" y="410" width="10" height="10" fill="#000000" />
<rect x="880" y="410" width="10" height="10" fill="#000000" />
<rect x="910" y="410" width="10" height="10" fill="#000000" />
<rect x="1030" y="410" width="10" height="10" fill="#000000" />
<rect x="1070" y="410" width="10" height="10" fill="#000000" />
<rect x="1080" y="410" width="10" height="10" fill="#000000" />
<rect x="1100" y="410" width="10" height="10" fill="#000000" />
<rect x="1140" y="410" width="10" height="10" fill="#000000" />
<rect x="1180" y="410" width="10" height="10" fill="#000000" />
<rect x="1240" y="410" width="10" height="10" fill="#000000" />
<rect x="1270" y="410" width="10" height="10" fill="#000000" />
<rect x="1290" y="410" width="10" height="10" fill="#000000" />
<rect x="1370" y="410" width="10" height="10" fill="#000000" />
<rect x="1410" y="410" width="10" height="10" fill="#000000" />
<rect x="1490" y="410" width="10" height="10" fill="#000000" />
<rect x="1500" y="410" width="10" height="10" fill="#000000" />
<rect x="1550" y="410" width="10" height="10" fill="#000000" />
<rect x="180" y="420" width="10" height="10" fill="#000000" />
<rect x="190" y="420" width="10" height="10" fill="#000000" />
<rect x="240" y="420" width="10" height="10" fill="#000000" />
<rect x="300" y="420" width="10" height="10" fill="#000000" />
<rect x="340" y="420" width="10" height="10" fill="#000000" />
<rect x="390" y="420" width="10" height="10" fill="#000000" />
<rect x="490" y="420" width="10" height="10" fill="#000000" />
<rect x="500" y="420" width="10" height="10" fill="#000000" />
<rect x="600" y="420" width="10" height="10" fill="#000000" />
<rect x="610" y="420" width="10" height="10" fill="#000000" />
<rect x="650" y="420" width="10" height="10" fill="#000000" />
<rect x="690" y="420" width="10" height="10" fill="#000000" />
<rect x="700" y="420" width="10" height="10" fill="#000000" />
<rect x="710" y="420" width="10" height="10" fill="#000000" />
<rect x="720" y="420" width="10" height="10" fill="#000000" />
<rect x="750" y="420" width="10" height="10" fill="#000000" />
<rect x="810" y="420" width="10" height="10" fill="#000000" />
<rect x="840" y="420" width="10" height="10" fill="#000000" />
<rect x="850" y="420" width="10" height="10" fill="#000000" />
<rect x="880" y="420" width="10" height="10" fill="#000000" />
<rect x="910" y="420" width="10" height="10" fill="#000000" />
<rect x="1040" y="420" width="10" height="10" fill="#000000" />
<rect x="1050" y="420" width="10" height="10" fill="#000000" />
<rect x="1060" y="420" width="10" height="10" fill="#000000" />
<rect x="1080" y="420" width="10" height="10" fill="#000000" />
<rect x="1110" y="420" width="10" height="10" fill="#000000" />
<rect x="1120" y="420" width="10" height="10" fill="#000000" />
<rect x="1130" y="420" width="10" height="10" fill="#000000" />
<rect x="1150" y="420" width="10" height="10" fill="#000000" />
<rect x="1180" y="420" width="10" height="10" fill="#000000" />
<rect x="1250" y="420" width="10" height="10" fill="#000000" />
<rect x="1260" y="420" width="10" height="10" fill="#000000" />
<rect x="1300" y="420" width="10" height="10" fill="#000000" />
<rect x="1310" y="420" width="10" height="10" fill="#000000" />
<rect x="1320" y="420" width="10" height="10" fill="#000000" />
<rect x="1330" y="420" width="10" height="10" fill="#000000" />
<rect x="1370" y="420" width="10" height="10" fill="#000000" />
<rect x="1470" y="420" width="10" height="10" fill="#000000" />
<rect x="1480" y="420" width="10" height="10" fill="#000000" />
<rect x="1510" y="420" width="10" height="10" fill="#000000" />
<rect x="1520" y="420" width="10" height="10" fill="#000000" />
<rect x="1560" y="420" width="10" height="10" fill="#000000" />
<rect x="180" y="430" width="10" height="10" fill="#000000" />
<rect x="200" y="430" width="10" height="10" fill="#000000" />
<rect x="210" y="430" width="10" height="10" fill="#000000" />
<rect x="220" y="430" width="10" height="10" fill="#000000" />
<rect x="230" y="430" width="10" height="10" fill="#000000" />
<rect x="720" y="430" width="10" height="10" fill="#000000" />
<rect x="1080" y="430" width="10" height="10" fill="#000000" />
<rect x="1460" y="430" width="10" height="10" fill="#000000" />
<rect x="1530" y="430" width="10" height="10" fill="#000000" />
<rect x="1560" y="430" width="10" height="10" fill="#000000" />
<rect x="180" y="440" width="10" height="10" fill="#000000" />
<rect x="220" y="440" width="10" height="10" fill="#000000" />
<rect x="670" y="440" width="10" height="10" fill="#000000" />
<rect x="720" y="440" width="10" height="10" fill="#000000" />
<rect x="1070" y="440" width="10" height="10" fill="#000000" />
<rect x="1450" y="440" width="10" height="10" fill="#000000" />
<rect x="1490" y="440" width="10" height="10" fill="#000000" />
<rect x="1500" y="440" width="10" height="10" fill="#000000" />
<rect x="1530" y="440" width="10" height="10" fill="#000000" />
<rect x="1570" y="440" width="10" height="10" fill="#000000" />
<rect x="170" y="450" width="10" height="10" fill="#000000" />
<rect x="210" y="450" width="10" height="10" fill="#000000" />
<rect x="680" y="450" width="10" height="10" fill="#000000" />
<rect x="710" y="450" width="10" height="10" fill="#000000" />
<rect x="1030" y="450" width="10" height="10" fill="#000000" />
<rect x="1060" y="450" width="10" height="10" fill="#000000" />
<rect x="1450" y="450" width="10" height="10" fill="#000000" />
<rect x="1480" y="450" width="10" height="10" fill="#000000" />
<rect x="1510" y="450" width="10" height="10" fill="#000000" />
<rect x="1540" y="450" width="10" height="10" fill="#000000" />
<rect x="1570" y="450" width="10" height="10" fill="#000000" />
<rect x="160" y="460" width="10" height="10" fill="#000000" />
<rect x="170" y="460" width="10" height="10" fill="#000000" />
<rect x="180" y="460" width="10" height="10" fill="#000000" />
<rect x="190" y="460" width="10" height="10" fill="#000000" />
<rect x="210" y="460" width="10" height="10" fill="#000000" />
<rect x="690" y="460" width="10" height="10" fill="#000000" />
<rect x="700" y="460" width="10" height="10" fill="#000000" />
<rect x="1040" y="460" width="10" height="10" fill="#000000" />
<rect x="1050" y="460" width="10" height="10" fill="#000000" />
<rect x="1440" y="460" width="10" height="10" fill="#000000" />
<rect x="1480" y="460" width="10" height="10" fill="#000000" />
<rect x="1500" y="460" width="10" height="10" fill="#000000" />
<rect x="1540" y="460" width="10" height="10" fill="#000000" />
<rect x="1570" y="460" width="10" height="10" fill="#000000" />
<rect x="140" y="470" width="10" height="10" fill="#000000" />
<rect x="150" y="470" width="10" height="10" fill="#000000" />
<rect x="200" y="470" width="10" height="10" fill="#000000" />
<rect x="210" y="470" width="10" height="10" fill="#000000" />
<rect x="1440" y="470" width="10" height="10" fill="#000000" />
<rect x="1480" y="470" width="10" height="10" fill="#000000" />
<rect x="1530" y="470" width="10" height="10" fill="#000000" />
<rect x="1570" y="470" width="10" height="10" fill="#000000" />
<rect x="130" y="480" width="10" height="10" fill="#000000" />
<rect x="210" y="480" width="10" height="10" fill="#000000" />
<rect x="1440" y="480" width="10" height="10" fill="#000000" />
<rect x="1490" y="480" width="10" height="10" fill="#000000" />
<rect x="1500" y="480" width="10" height="10" fill="#000000" />
<rect x="1510" y="480" width="10" height="10" fill="#000000" />
<rect x="1520" y="480" width="10" height="10" fill="#000000" />
<rect x="1570" y="480" width="10" height="10" fill="#000000" />
<rect x="210" y="490" width="10" height="10" fill="#000000" />
<rect x="220" y="490" width="10" height="10" fill="#000000" />
<rect x="1450" y="490" width="10" height="10" fill="#000000" />
<rect x="1560" y="490" width="10" height="10" fill="#000000" />
<rect x="220" y="500" width="10" height="10" fill="#000000" />
<rect x="1460" y="500" width="10" height="10" fill="#000000" />
<rect x="1470" y="500" width="10" height="10" fill="#000000" />
<rect x="1540" y="500" width="10" height="10" fill="#000000" />
<rect x="1550" y="500" width="10" height="10" fill="#000000" />
<rect x="220" y="510" width="10" height="10" fill="#000000" />
<rect x="230" y="510" width="10" height="10" fill="#000000" />
<rect x="1480" y="510" width="10" height="10" fill="#000000" />
<rect x="1490" y="510" width="10" height="10" fill="#000000" />
<rect x="1500" y="510" width="10" height="10" fill="#000000" />
<rect x="1510" y="510" width="10" height="10" fill="#000000" />
<rect x="1520" y="510" width="10" height="10" fill="#000000" />
<rect x="1530" y="510" width="10" height="10" fill="#000000" />
<rect x="230" y="520" width="10" height="10" fill="#000000" />
</svg>