<?xml version="1.0" encoding="UTF-8" ?>
<svg version="1.1" width="64" height="16" xmlns="http://www.w3.org/2000/svg" shape-rendering="crispEdges">
<rect x="12" y="4" width="1" height="1" fill="#000000" />
<rect x="21" y="4" width="1" height="1" fill="#000000" />
<rect x="20" y="5" width="1" height="1" fill="#000000" />
<rect x="51" y="5" width="1" height="1" fill="#000000" />
<rect x="20" y="6" width="1" height="1" fill="#000000" />
<rect x="40" y="6" width="1" height="1" fill="#000000" />
<rect x="50" y="6" width="1" height="1" fill="#000000" />
<rect x="58" y="6" width="1" height="1" fill="#000000" />
<rect x="4" y="7" width="1" height="1" fill="#000000" />
<rect x="5" y="7" width="1" height="1" fill="#000000" />
<rect x="6" y="7" width="1" height="1" fill="#000000" />
<rect x="7" y="7" width="1" height="1" fill="#000000" />
<rect x="11" y="7" width="1" height="1" fill="#000000" />
<rect x="14" y="7" width="1" height="1" fill="#000000" />
<rect x="17" y="7" width="1" height="1" fill="#000000" />
<rect x="20" y="7" width="1" height="1" fill="#000000" />
<rect x="28" y="7" width="1" height="1" fill="#000000" />
<rect x="29" y="7" width="1" height="1" fill="#000000" />
<rect x="34" y="7" width="1" height="1" fill="#000000" />
<rect x="35" y="7" width="1" height="1" fill="#000000" />
<rect x="41" y="7" width="1" height="1" fill="#000000" />
<rect x="42" y="7" width="1" height="1" fill="#000000" />
<rect x="47" y="7" width="1" height="1" fill="#000000" />
<rect x="48" y="7" width="1" height="1" fill="#000000" />
<rect x="50" y="7" width="1" height="1" fill="#000000" />
<rect x="53" y="7" width="1" height="1" fill="#000000" />
<rect x="54" y="7" width="1" height="1" fill="#000000" />
<rect x="55" y="7" width="1" height="1" fill="#000000" />
<rect x="58" y="7" width="1" height="1" fill="#000000" />
<rect x="59" y="7" width="1" height="1" fill="#000000" />
<rect x="60" y="7" width="1" height="1" fill="#000000" />
<rect x="4" y="8" width="1" height="1" fill="#000000" />
<rect x="8" y="8" width="1" height="1" fill="#000000" />
<rect x="11" y="8" width="1" height="1" fill="#000000" />
<rect x="14" y="8" width="1" height="1" fill="#000000" />
<rect x="16" y="8" width="1" height="1" fill="#000000" />
<rect x="20" y="8" width="1" height="1" fill="#000000" />
<rect x="27" y="8" width="1" height="1" fill="#000000" />
<rect x="30" y="8" width="1" height="1" fill="#000000" />
<rect x="33" y="8" width="1" height="1" fill="#000000" />
<rect x="36" y="8" width="1" height="1" fill="#000000" />
<rect x="40" y="8" width="1" height="1" fill="#000000" />
<rect x="43" y="8" width="1" height="1" fill="#000000" />
<rect x="46" y="8" width="1" height="1" fill="#000000" />
<rect x="49" y="8" width="1" height="1" fill="#000000" />
<rect x="52" y="8" width="1" height="1" fill="#000000" />
<rect x="56" y="8" width="1" height="1" fill="#000000" />
<rect x="58" y="8" width="1" height="1" fill="#000000" />
<rect x="61" y="8" width="1" height="1" fill="#000000" />
<rect x="3" y="9" width="1" height="1" fill="#000000" />
<rect x="7" y="9" width="1" height="1" fill="#000000" />
<rect x="10" y="9" width="1" height="1" fill="#000000" />
<rect x="15" y="9" width="1" height="1" fill="#000000" />
<rect x="20" y="9" width="1" height="1" fill="#000000" />
<rect x="26" y="9" width="1" height="1" fill="#000000" />
<rect x="30" y="9" width="1" height="1" fill="#000000" />
<rect x="32" y="9" width="1" height="1" fill="#000000" />
<rect x="36" y="9" width="1" height="1" fill="#000000" />
<rect x="40" y="9" width="1" height="1" fill="#000000" />
<rect x="45" y="9" width="1" height="1" fill="#000000" />
<rect x="49" y="9" width="1" height="1" fill="#000000" />
<rect x="51" y="9" width="1" height="1" fill="#000000" />
<rect x="53" y="9" width="1" height="1" fill="#000000" />
<rect x="54" y="9" width="1" height="1" fill="#000000" />
<rect x="55" y="9" width="1" height="1" fill="#000000" />
<rect x="58" y="9" width="1" height="1" fill="#000000" />
<rect x="61" y="9" width="1" height="1" fill="#000000" />
<rect x="3" y="10" width="1" height="1" fill="#000000" />
<rect x="6" y="10" width="1" height="1" fill="#000000" />
<rect x="10" y="10" width="1" height="1" fill="#000000" />
<rect x="14" y="10" width="1" height="1" fill="#000000" />
<rect x="16" y="10" width="1" height="1" fill="#000000" />
<rect x="20" y="10" width="1" height="1" fill="#000000" />
<rect x="26" y="10" width="1" height="1" fill="#000000" />
<rect x="30" y="10" width="1" height="1" fill="#000000" />
<rect x="32" y="10" width="1" height="1" fill="#000000" />
<rect x="35" y="10" width="1" height="1" fill="#000000" />
<rect x="36" y="10" width="1" height="1" fill="#000000" />
<rect x="40" y="10" width="1" height="1" fill="#000000" />
<rect x="45" y="10" width="1" height="1" fill="#000000" />
<rect x="48" y="10" width="1" height="1" fill="#000000" />
<rect x="51" y="10" width="1" height="1" fill="#000000" />
<rect x="57" y="10" width="1" height="1" fill="#000000" />
<rect x="61" y="10" width="1" height="1" fill="#000000" />
<rect x="3" y="11" width="1" height="1" fill="#000000" />
<rect x="4" y="11" width="1" height="1" fill="#000000" />
<rect x="5" y="11" width="1" height="1" fill="#000000" />
<rect x="10" y="11" width="1" height="1" fill="#000000" />
<rect x="13" y="11" width="1" height="1" fill="#000000" />
<rect x="17" y="11" width="1" height="1" fill="#000000" />
<rect x="20" y="11" width="1" height="1" fill="#000000" />
<rect x="23" y="11" width="1" height="1" fill="#000000" />
<rect x="27" y="11" width="1" height="1" fill="#000000" />
<rect x="28" y="11" width="1" height="1" fill="#000000" />
<rect x="29" y="11" width="1" height="1" fill="#000000" />
<rect x="33" y="11" width="1" height="1" fill="#000000" />
<rect x="34" y="11" width="1" height="1" fill="#000000" />
<rect x="37" y="11" width="1" height="1" fill="#000000" />
<rect x="39" y="11" width="1" height="1" fill="#000000" />
<rect x="46" y="11" width="1" height="1" fill="#000000" />
<rect x="47" y="11" width="1" height="1" fill="#000000" />
<rect x="52" y="11" width="1" height="1" fill="#000000" />
<rect x="53" y="11" width="1" height="1" fill="#000000" />
<rect x="57" y="11" width="1" height="1" fill="#000000" />
<rect x="60" y="11" width="1" height="1" fill="#000000" />
<rect x="2" y="12" width="1" height="1" fill="#000000" />
<rect x="29" y="12" width="1" height="1" fill="#000000" />
<rect x="2" y="13" width="1" height="1" fill="#000000" />
<rect x="25" y="13" width="1" height="1" fill="#000000" />
<rect x="28" y="13" width="1" height="1" fill="#000000" />
<rect x="2" y="14" width="1" height="1" fill="#000000" />
<rect x="26" y="14" width="1" height="1" fill="#000000" />
<rect x="27" y="14" width="1" height="1" fill="#000000" />
<rect x="2" y="15" width="1" height="1" fill="#000000" />
</svg>