<?xml version="1.0" encoding="UTF-8" ?>
<svg version="1.1" width="210" height="50" xmlns="http://www.w3.org/2000/svg" shape-rendering="crispEdges">
<rect x="6" y="0" width="1" height="1" fill="#000000" />
<rect x="199" y="0" width="1" height="1" fill="#000000" />
<rect x="200" y="0" width="1" height="1" fill="#000000" />
<rect x="201" y="0" width="1" height="1" fill="#000000" />
<rect x="202" y="0" width="1" height="1" fill="#000000" />
<rect x="7" y="1" width="1" height="1" fill="#000000" />
<rect x="8" y="1" width="1" height="1" fill="#000000" />
<rect x="195" y="1" width="1" height="1" fill="#000000" />
<rect x="196" y="1" width="1" height="1" fill="#000000" />
<rect x="197" y="1" width="1" height="1" fill="#000000" />
<rect x="198" y="1" width="1" height="1" fill="#000000" />
<rect x="9" y="2" width="1" height="1" fill="#000000" />
<rect x="10" y="2" width="1" height="1" fill="#000000" />
<rect x="193" y="2" width="1" height="1" fill="#000000" />
<rect x="194" y="2" width="1" height="1" fill="#000000" />
<rect x="11" y="3" width="1" height="1" fill="#000000" />
<rect x="12" y="3" width="1" height="1" fill="#000000" />
<rect x="189" y="3" width="1" height="1" fill="#000000" />
<rect x="190" y="3" width="1" height="1" fill="#000000" />
<rect x="191" y="3" width="1" height="1" fill="#000000" />
<rect x="192" y="3" width="1" height="1" fill="#000000" />
<rect x="13" y="4" width="1" height="1" fill="#000000" />
<rect x="14" y="4" width="1" height="1" fill="#000000" />
<rect x="185" y="4" width="1" height="1" fill="#000000" />
<rect x="186" y="4" width="1" height="1" fill="#000000" />
<rect x="187" y="4" width="1" height="1" fill="#000000" />
<rect x="188" y="4" width="1" height="1" fill="#000000" />
<rect x="12" y="5" width="1" height="1" fill="#000000" />
<rect x="15" y="5" width="1" height="1" fill="#000000" />
<rect x="16" y="5" width="1" height="1" fill="#000000" />
<rect x="183" y="5" width="1" height="1" fill="#000000" />
<rect x="184" y="5" width="1" height="1" fill="#000000" />
<rect x="12" y="6" width="1" height="1" fill="#000000" />
<rect x="17" y="6" width="1" height="1" fill="#000000" />
<rect x="18" y="6" width="1" height="1" fill="#000000" />
<rect x="181" y="6" width="1" height="1" fill="#000000" />
<rect x="182" y="6" width="1" height="1" fill="#000000" />
<rect x="183" y="6" width="1" height="1" fill="#000000" />
<rect x="12" y="7" width="1" height="1" fill="#000000" />
<rect x="19" y="7" width="1" height="1" fill="#000000" />
<rect x="20" y="7" width="1" height="1" fill="#000000" />
<rect x="21" y="7" width="1" height="1" fill="#000000" />
<rect x="178" y="7" width="1" height="1" fill="#000000" />
<rect x="179" y="7" width="1" height="1" fill="#000000" />
<rect x="180" y="7" width="1" height="1" fill="#000000" />
<rect x="12" y="8" width="1" height="1" fill="#000000" />
<rect x="22" y="8" width="1" height="1" fill="#000000" />
<rect x="23" y="8" width="1" height="1" fill="#000000" />
<rect x="176" y="8" width="1" height="1" fill="#000000" />
<rect x="177" y="8" width="1" height="1" fill="#000000" />
<rect x="183" y="8" width="1" height="1" fill="#000000" />
<rect x="12" y="9" width="1" height="1" fill="#000000" />
<rect x="24" y="9" width="1" height="1" fill="#000000" />
<rect x="25" y="9" width="1" height="1" fill="#000000" />
<rect x="26" y="9" width="1" height="1" fill="#000000" />
<rect x="27" y="9" width="1" height="1" fill="#000000" />
<rect x="28" y="9" width="1" height="1" fill="#000000" />
<rect x="174" y="9" width="1" height="1" fill="#000000" />
<rect x="175" y="9" width="1" height="1" fill="#000000" />
<rect x="184" y="9" width="1" height="1" fill="#000000" />
<rect x="13" y="10" width="1" height="1" fill="#000000" />
<rect x="29" y="10" width="1" height="1" fill="#000000" />
<rect x="30" y="10" width="1" height="1" fill="#000000" />
<rect x="31" y="10" width="1" height="1" fill="#000000" />
<rect x="32" y="10" width="1" height="1" fill="#000000" />
<rect x="33" y="10" width="1" height="1" fill="#000000" />
<rect x="170" y="10" width="1" height="1" fill="#000000" />
<rect x="171" y="10" width="1" height="1" fill="#000000" />
<rect x="172" y="10" width="1" height="1" fill="#000000" />
<rect x="173" y="10" width="1" height="1" fill="#000000" />
<rect x="184" y="10" width="1" height="1" fill="#000000" />
<rect x="13" y="11" width="1" height="1" fill="#000000" />
<rect x="19" y="11" width="1" height="1" fill="#000000" />
<rect x="34" y="11" width="1" height="1" fill="#000000" />
<rect x="35" y="11" width="1" height="1" fill="#000000" />
<rect x="36" y="11" width="1" height="1" fill="#000000" />
<rect x="37" y="11" width="1" height="1" fill="#000000" />
<rect x="38" y="11" width="1" height="1" fill="#000000" />
<rect x="39" y="11" width="1" height="1" fill="#000000" />
<rect x="40" y="11" width="1" height="1" fill="#000000" />
<rect x="167" y="11" width="1" height="1" fill="#000000" />
<rect x="168" y="11" width="1" height="1" fill="#000000" />
<rect x="169" y="11" width="1" height="1" fill="#000000" />
<rect x="184" y="11" width="1" height="1" fill="#000000" />
<rect x="13" y="12" width="1" height="1" fill="#000000" />
<rect x="19" y="12" width="1" height="1" fill="#000000" />
<rect x="20" y="12" width="1" height="1" fill="#000000" />
<rect x="29" y="12" width="1" height="1" fill="#000000" />
<rect x="41" y="12" width="1" height="1" fill="#000000" />
<rect x="42" y="12" width="1" height="1" fill="#000000" />
<rect x="43" y="12" width="1" height="1" fill="#000000" />
<rect x="44" y="12" width="1" height="1" fill="#000000" />
<rect x="45" y="12" width="1" height="1" fill="#000000" />
<rect x="46" y="12" width="1" height="1" fill="#000000" />
<rect x="163" y="12" width="1" height="1" fill="#000000" />
<rect x="164" y="12" width="1" height="1" fill="#000000" />
<rect x="165" y="12" width="1" height="1" fill="#000000" />
<rect x="166" y="12" width="1" height="1" fill="#000000" />
<rect x="179" y="12" width="1" height="1" fill="#000000" />
<rect x="180" y="12" width="1" height="1" fill="#000000" />
<rect x="184" y="12" width="1" height="1" fill="#000000" />
<rect x="13" y="13" width="1" height="1" fill="#000000" />
<rect x="18" y="13" width="1" height="1" fill="#000000" />
<rect x="20" y="13" width="1" height="1" fill="#000000" />
<rect x="28" y="13" width="1" height="1" fill="#000000" />
<rect x="38" y="13" width="1" height="1" fill="#000000" />
<rect x="47" y="13" width="1" height="1" fill="#000000" />
<rect x="48" y="13" width="1" height="1" fill="#000000" />
<rect x="49" y="13" width="1" height="1" fill="#000000" />
<rect x="50" y="13" width="1" height="1" fill="#000000" />
<rect x="51" y="13" width="1" height="1" fill="#000000" />
<rect x="52" y="13" width="1" height="1" fill="#000000" />
<rect x="159" y="13" width="1" height="1" fill="#000000" />
<rect x="160" y="13" width="1" height="1" fill="#000000" />
<rect x="161" y="13" width="1" height="1" fill="#000000" />
<rect x="162" y="13" width="1" height="1" fill="#000000" />
<rect x="163" y="13" width="1" height="1" fill="#000000" />
<rect x="178" y="13" width="1" height="1" fill="#000000" />
<rect x="181" y="13" width="1" height="1" fill="#000000" />
<rect x="184" y="13" width="1" height="1" fill="#000000" />
<rect x="13" y="14" width="1" height="1" fill="#000000" />
<rect x="18" y="14" width="1" height="1" fill="#000000" />
<rect x="20" y="14" width="1" height="1" fill="#000000" />
<rect x="28" y="14" width="1" height="1" fill="#000000" />
<rect x="39" y="14" width="1" height="1" fill="#000000" />
<rect x="53" y="14" width="1" height="1" fill="#000000" />
<rect x="54" y="14" width="1" height="1" fill="#000000" />
<rect x="55" y="14" width="1" height="1" fill="#000000" />
<rect x="56" y="14" width="1" height="1" fill="#000000" />
<rect x="57" y="14" width="1" height="1" fill="#000000" />
<rect x="58" y="14" width="1" height="1" fill="#000000" />
<rect x="59" y="14" width="1" height="1" fill="#000000" />
<rect x="60" y="14" width="1" height="1" fill="#000000" />
<rect x="61" y="14" width="1" height="1" fill="#000000" />
<rect x="62" y="14" width="1" height="1" fill="#000000" />
<rect x="151" y="14" width="1" height="1" fill="#000000" />
<rect x="152" y="14" width="1" height="1" fill="#000000" />
<rect x="153" y="14" width="1" height="1" fill="#000000" />
<rect x="154" y="14" width="1" height="1" fill="#000000" />
<rect x="155" y="14" width="1" height="1" fill="#000000" />
<rect x="156" y="14" width="1" height="1" fill="#000000" />
<rect x="157" y="14" width="1" height="1" fill="#000000" />
<rect x="158" y="14" width="1" height="1" fill="#000000" />
<rect x="177" y="14" width="1" height="1" fill="#000000" />
<rect x="182" y="14" width="1" height="1" fill="#000000" />
<rect x="184" y="14" width="1" height="1" fill="#000000" />
<rect x="13" y="15" width="1" height="1" fill="#000000" />
<rect x="15" y="15" width="1" height="1" fill="#000000" />
<rect x="16" y="15" width="1" height="1" fill="#000000" />
<rect x="17" y="15" width="1" height="1" fill="#000000" />
<rect x="21" y="15" width="1" height="1" fill="#000000" />
<rect x="22" y="15" width="1" height="1" fill="#000000" />
<rect x="23" y="15" width="1" height="1" fill="#000000" />
<rect x="24" y="15" width="1" height="1" fill="#000000" />
<rect x="27" y="15" width="1" height="1" fill="#000000" />
<rect x="39" y="15" width="1" height="1" fill="#000000" />
<rect x="63" y="15" width="1" height="1" fill="#000000" />
<rect x="64" y="15" width="1" height="1" fill="#000000" />
<rect x="65" y="15" width="1" height="1" fill="#000000" />
<rect x="66" y="15" width="1" height="1" fill="#000000" />
<rect x="67" y="15" width="1" height="1" fill="#000000" />
<rect x="68" y="15" width="1" height="1" fill="#000000" />
<rect x="69" y="15" width="1" height="1" fill="#000000" />
<rect x="136" y="15" width="1" height="1" fill="#000000" />
<rect x="137" y="15" width="1" height="1" fill="#000000" />
<rect x="138" y="15" width="1" height="1" fill="#000000" />
<rect x="139" y="15" width="1" height="1" fill="#000000" />
<rect x="140" y="15" width="1" height="1" fill="#000000" />
<rect x="141" y="15" width="1" height="1" fill="#000000" />
<rect x="142" y="15" width="1" height="1" fill="#000000" />
<rect x="143" y="15" width="1" height="1" fill="#000000" />
<rect x="144" y="15" width="1" height="1" fill="#000000" />
<rect x="145" y="15" width="1" height="1" fill="#000000" />
<rect x="146" y="15" width="1" height="1" fill="#000000" />
<rect x="147" y="15" width="1" height="1" fill="#000000" />
<rect x="148" y="15" width="1" height="1" fill="#000000" />
<rect x="149" y="15" width="1" height="1" fill="#000000" />
<rect x="150" y="15" width="1" height="1" fill="#000000" />
<rect x="164" y="15" width="1" height="1" fill="#000000" />
<rect x="173" y="15" width="1" height="1" fill="#000000" />
<rect x="174" y="15" width="1" height="1" fill="#000000" />
<rect x="177" y="15" width="1" height="1" fill="#000000" />
<rect x="182" y="15" width="1" height="1" fill="#000000" />
<rect x="185" y="15" width="1" height="1" fill="#000000" />
<rect x="13" y="16" width="1" height="1" fill="#000000" />
<rect x="14" y="16" width="1" height="1" fill="#000000" />
<rect x="25" y="16" width="1" height="1" fill="#000000" />
<rect x="26" y="16" width="1" height="1" fill="#000000" />
<rect x="40" y="16" width="1" height="1" fill="#000000" />
<rect x="48" y="16" width="1" height="1" fill="#000000" />
<rect x="49" y="16" width="1" height="1" fill="#000000" />
<rect x="50" y="16" width="1" height="1" fill="#000000" />
<rect x="58" y="16" width="1" height="1" fill="#000000" />
<rect x="70" y="16" width="1" height="1" fill="#000000" />
<rect x="71" y="16" width="1" height="1" fill="#000000" />
<rect x="72" y="16" width="1" height="1" fill="#000000" />
<rect x="73" y="16" width="1" height="1" fill="#000000" />
<rect x="74" y="16" width="1" height="1" fill="#000000" />
<rect x="75" y="16" width="1" height="1" fill="#000000" />
<rect x="76" y="16" width="1" height="1" fill="#000000" />
<rect x="77" y="16" width="1" height="1" fill="#000000" />
<rect x="78" y="16" width="1" height="1" fill="#000000" />
<rect x="79" y="16" width="1" height="1" fill="#000000" />
<rect x="80" y="16" width="1" height="1" fill="#000000" />
<rect x="81" y="16" width="1" height="1" fill="#000000" />
<rect x="82" y="16" width="1" height="1" fill="#000000" />
<rect x="83" y="16" width="1" height="1" fill="#000000" />
<rect x="84" y="16" width="1" height="1" fill="#000000" />
<rect x="85" y="16" width="1" height="1" fill="#000000" />
<rect x="86" y="16" width="1" height="1" fill="#000000" />
<rect x="87" y="16" width="1" height="1" fill="#000000" />
<rect x="88" y="16" width="1" height="1" fill="#000000" />
<rect x="89" y="16" width="1" height="1" fill="#000000" />
<rect x="90" y="16" width="1" height="1" fill="#000000" />
<rect x="91" y="16" width="1" height="1" fill="#000000" />
<rect x="92" y="16" width="1" height="1" fill="#000000" />
<rect x="93" y="16" width="1" height="1" fill="#000000" />
<rect x="94" y="16" width="1" height="1" fill="#000000" />
<rect x="95" y="16" width="1" height="1" fill="#000000" />
<rect x="96" y="16" width="1" height="1" fill="#000000" />
<rect x="97" y="16" width="1" height="1" fill="#000000" />
<rect x="98" y="16" width="1" height="1" fill="#000000" />
<rect x="99" y="16" width="1" height="1" fill="#000000" />
<rect x="100" y="16" width="1" height="1" fill="#000000" />
<rect x="101" y="16" width="1" height="1" fill="#000000" />
<rect x="102" y="16" width="1" height="1" fill="#000000" />
<rect x="103" y="16" width="1" height="1" fill="#000000" />
<rect x="104" y="16" width="1" height="1" fill="#000000" />
<rect x="105" y="16" width="1" height="1" fill="#000000" />
<rect x="106" y="16" width="1" height="1" fill="#000000" />
<rect x="107" y="16" width="1" height="1" fill="#000000" />
<rect x="108" y="16" width="1" height="1" fill="#000000" />
<rect x="109" y="16" width="1" height="1" fill="#000000" />
<rect x="110" y="16" width="1" height="1" fill="#000000" />
<rect x="111" y="16" width="1" height="1" fill="#000000" />
<rect x="112" y="16" width="1" height="1" fill="#000000" />
<rect x="113" y="16" width="1" height="1" fill="#000000" />
<rect x="114" y="16" width="1" height="1" fill="#000000" />
<rect x="115" y="16" width="1" height="1" fill="#000000" />
<rect x="116" y="16" width="1" height="1" fill="#000000" />
<rect x="117" y="16" width="1" height="1" fill="#000000" />
<rect x="118" y="16" width="1" height="1" fill="#000000" />
<rect x="119" y="16" width="1" height="1" fill="#000000" />
<rect x="120" y="16" width="1" height="1" fill="#000000" />
<rect x="121" y="16" width="1" height="1" fill="#000000" />
<rect x="122" y="16" width="1" height="1" fill="#000000" />
<rect x="123" y="16" width="1" height="1" fill="#000000" />
<rect x="124" y="16" width="1" height="1" fill="#000000" />
<rect x="125" y="16" width="1" height="1" fill="#000000" />
<rect x="126" y="16" width="1" height="1" fill="#000000" />
<rect x="127" y="16" width="1" height="1" fill="#000000" />
<rect x="128" y="16" width="1" height="1" fill="#000000" />
<rect x="129" y="16" width="1" height="1" fill="#000000" />
<rect x="130" y="16" width="1" height="1" fill="#000000" />
<rect x="131" y="16" width="1" height="1" fill="#000000" />
<rect x="132" y="16" width="1" height="1" fill="#000000" />
<rect x="133" y="16" width="1" height="1" fill="#000000" />
<rect x="134" y="16" width="1" height="1" fill="#000000" />
<rect x="135" y="16" width="1" height="1" fill="#000000" />
<rect x="155" y="16" width="1" height="1" fill="#000000" />
<rect x="165" y="16" width="1" height="1" fill="#000000" />
<rect x="172" y="16" width="1" height="1" fill="#000000" />
<rect x="175" y="16" width="1" height="1" fill="#000000" />
<rect x="176" y="16" width="1" height="1" fill="#000000" />
<rect x="177" y="16" width="1" height="1" fill="#000000" />
<rect x="182" y="16" width="1" height="1" fill="#000000" />
<rect x="185" y="16" width="1" height="1" fill="#000000" />
<rect x="13" y="17" width="1" height="1" fill="#000000" />
<rect x="15" y="17" width="1" height="1" fill="#000000" />
<rect x="24" y="17" width="1" height="1" fill="#000000" />
<rect x="26" y="17" width="1" height="1" fill="#000000" />
<rect x="41" y="17" width="1" height="1" fill="#000000" />
<rect x="47" y="17" width="1" height="1" fill="#000000" />
<rect x="51" y="17" width="1" height="1" fill="#000000" />
<rect x="58" y="17" width="1" height="1" fill="#000000" />
<rect x="67" y="17" width="1" height="1" fill="#000000" />
<rect x="154" y="17" width="1" height="1" fill="#000000" />
<rect x="166" y="17" width="1" height="1" fill="#000000" />
<rect x="172" y="17" width="1" height="1" fill="#000000" />
<rect x="182" y="17" width="1" height="1" fill="#000000" />
<rect x="186" y="17" width="1" height="1" fill="#000000" />
<rect x="13" y="18" width="1" height="1" fill="#000000" />
<rect x="15" y="18" width="1" height="1" fill="#000000" />
<rect x="22" y="18" width="1" height="1" fill="#000000" />
<rect x="23" y="18" width="1" height="1" fill="#000000" />
<rect x="26" y="18" width="1" height="1" fill="#000000" />
<rect x="42" y="18" width="1" height="1" fill="#000000" />
<rect x="46" y="18" width="1" height="1" fill="#000000" />
<rect x="52" y="18" width="1" height="1" fill="#000000" />
<rect x="57" y="18" width="1" height="1" fill="#000000" />
<rect x="67" y="18" width="1" height="1" fill="#000000" />
<rect x="88" y="18" width="1" height="1" fill="#000000" />
<rect x="99" y="18" width="1" height="1" fill="#000000" />
<rect x="121" y="18" width="1" height="1" fill="#000000" />
<rect x="130" y="18" width="1" height="1" fill="#000000" />
<rect x="153" y="18" width="1" height="1" fill="#000000" />
<rect x="166" y="18" width="1" height="1" fill="#000000" />
<rect x="172" y="18" width="1" height="1" fill="#000000" />
<rect x="182" y="18" width="1" height="1" fill="#000000" />
<rect x="186" y="18" width="1" height="1" fill="#000000" />
<rect x="13" y="19" width="1" height="1" fill="#000000" />
<rect x="16" y="19" width="1" height="1" fill="#000000" />
<rect x="21" y="19" width="1" height="1" fill="#000000" />
<rect x="25" y="19" width="1" height="1" fill="#000000" />
<rect x="42" y="19" width="1" height="1" fill="#000000" />
<rect x="46" y="19" width="1" height="1" fill="#000000" />
<rect x="57" y="19" width="1" height="1" fill="#000000" />
<rect x="67" y="19" width="1" height="1" fill="#000000" />
<rect x="75" y="19" width="1" height="1" fill="#000000" />
<rect x="87" y="19" width="1" height="1" fill="#000000" />
<rect x="100" y="19" width="1" height="1" fill="#000000" />
<rect x="120" y="19" width="1" height="1" fill="#000000" />
<rect x="131" y="19" width="1" height="1" fill="#000000" />
<rect x="139" y="19" width="1" height="1" fill="#000000" />
<rect x="140" y="19" width="1" height="1" fill="#000000" />
<rect x="141" y="19" width="1" height="1" fill="#000000" />
<rect x="142" y="19" width="1" height="1" fill="#000000" />
<rect x="143" y="19" width="1" height="1" fill="#000000" />
<rect x="144" y="19" width="1" height="1" fill="#000000" />
<rect x="153" y="19" width="1" height="1" fill="#000000" />
<rect x="167" y="19" width="1" height="1" fill="#000000" />
<rect x="172" y="19" width="1" height="1" fill="#000000" />
<rect x="183" y="19" width="1" height="1" fill="#000000" />
<rect x="187" y="19" width="1" height="1" fill="#000000" />
<rect x="13" y="20" width="1" height="1" fill="#000000" />
<rect x="15" y="20" width="1" height="1" fill="#000000" />
<rect x="18" y="20" width="1" height="1" fill="#000000" />
<rect x="21" y="20" width="1" height="1" fill="#000000" />
<rect x="25" y="20" width="1" height="1" fill="#000000" />
<rect x="43" y="20" width="1" height="1" fill="#000000" />
<rect x="47" y="20" width="1" height="1" fill="#000000" />
<rect x="56" y="20" width="1" height="1" fill="#000000" />
<rect x="68" y="20" width="1" height="1" fill="#000000" />
<rect x="75" y="20" width="1" height="1" fill="#000000" />
<rect x="80" y="20" width="1" height="1" fill="#000000" />
<rect x="86" y="20" width="1" height="1" fill="#000000" />
<rect x="100" y="20" width="1" height="1" fill="#000000" />
<rect x="108" y="20" width="1" height="1" fill="#000000" />
<rect x="109" y="20" width="1" height="1" fill="#000000" />
<rect x="110" y="20" width="1" height="1" fill="#000000" />
<rect x="119" y="20" width="1" height="1" fill="#000000" />
<rect x="132" y="20" width="1" height="1" fill="#000000" />
<rect x="138" y="20" width="1" height="1" fill="#000000" />
<rect x="145" y="20" width="1" height="1" fill="#000000" />
<rect x="152" y="20" width="1" height="1" fill="#000000" />
<rect x="167" y="20" width="1" height="1" fill="#000000" />
<rect x="173" y="20" width="1" height="1" fill="#000000" />
<rect x="183" y="20" width="1" height="1" fill="#000000" />
<rect x="188" y="20" width="1" height="1" fill="#000000" />
<rect x="13" y="21" width="1" height="1" fill="#000000" />
<rect x="15" y="21" width="1" height="1" fill="#000000" />
<rect x="17" y="21" width="1" height="1" fill="#000000" />
<rect x="19" y="21" width="1" height="1" fill="#000000" />
<rect x="22" y="21" width="1" height="1" fill="#000000" />
<rect x="25" y="21" width="1" height="1" fill="#000000" />
<rect x="43" y="21" width="1" height="1" fill="#000000" />
<rect x="48" y="21" width="1" height="1" fill="#000000" />
<rect x="49" y="21" width="1" height="1" fill="#000000" />
<rect x="56" y="21" width="1" height="1" fill="#000000" />
<rect x="68" y="21" width="1" height="1" fill="#000000" />
<rect x="75" y="21" width="1" height="1" fill="#000000" />
<rect x="80" y="21" width="1" height="1" fill="#000000" />
<rect x="86" y="21" width="1" height="1" fill="#000000" />
<rect x="100" y="21" width="1" height="1" fill="#000000" />
<rect x="107" y="21" width="1" height="1" fill="#000000" />
<rect x="111" y="21" width="1" height="1" fill="#000000" />
<rect x="119" y="21" width="1" height="1" fill="#000000" />
<rect x="133" y="21" width="1" height="1" fill="#000000" />
<rect x="138" y="21" width="1" height="1" fill="#000000" />
<rect x="144" y="21" width="1" height="1" fill="#000000" />
<rect x="151" y="21" width="1" height="1" fill="#000000" />
<rect x="168" y="21" width="1" height="1" fill="#000000" />
<rect x="174" y="21" width="1" height="1" fill="#000000" />
<rect x="175" y="21" width="1" height="1" fill="#000000" />
<rect x="184" y="21" width="1" height="1" fill="#000000" />
<rect x="189" y="21" width="1" height="1" fill="#000000" />
<rect x="13" y="22" width="1" height="1" fill="#000000" />
<rect x="15" y="22" width="1" height="1" fill="#000000" />
<rect x="16" y="22" width="1" height="1" fill="#000000" />
<rect x="20" y="22" width="1" height="1" fill="#000000" />
<rect x="23" y="22" width="1" height="1" fill="#000000" />
<rect x="25" y="22" width="1" height="1" fill="#000000" />
<rect x="43" y="22" width="1" height="1" fill="#000000" />
<rect x="50" y="22" width="1" height="1" fill="#000000" />
<rect x="56" y="22" width="1" height="1" fill="#000000" />
<rect x="69" y="22" width="1" height="1" fill="#000000" />
<rect x="75" y="22" width="1" height="1" fill="#000000" />
<rect x="80" y="22" width="1" height="1" fill="#000000" />
<rect x="85" y="22" width="1" height="1" fill="#000000" />
<rect x="100" y="22" width="1" height="1" fill="#000000" />
<rect x="106" y="22" width="1" height="1" fill="#000000" />
<rect x="112" y="22" width="1" height="1" fill="#000000" />
<rect x="118" y="22" width="1" height="1" fill="#000000" />
<rect x="134" y="22" width="1" height="1" fill="#000000" />
<rect x="139" y="22" width="1" height="1" fill="#000000" />
<rect x="144" y="22" width="1" height="1" fill="#000000" />
<rect x="151" y="22" width="1" height="1" fill="#000000" />
<rect x="169" y="22" width="1" height="1" fill="#000000" />
<rect x="176" y="22" width="1" height="1" fill="#000000" />
<rect x="177" y="22" width="1" height="1" fill="#000000" />
<rect x="184" y="22" width="1" height="1" fill="#000000" />
<rect x="189" y="22" width="1" height="1" fill="#000000" />
<rect x="13" y="23" width="1" height="1" fill="#000000" />
<rect x="21" y="23" width="1" height="1" fill="#000000" />
<rect x="22" y="23" width="1" height="1" fill="#000000" />
<rect x="23" y="23" width="1" height="1" fill="#000000" />
<rect x="25" y="23" width="1" height="1" fill="#000000" />
<rect x="43" y="23" width="1" height="1" fill="#000000" />
<rect x="51" y="23" width="1" height="1" fill="#000000" />
<rect x="56" y="23" width="1" height="1" fill="#000000" />
<rect x="69" y="23" width="1" height="1" fill="#000000" />
<rect x="75" y="23" width="1" height="1" fill="#000000" />
<rect x="80" y="23" width="1" height="1" fill="#000000" />
<rect x="85" y="23" width="1" height="1" fill="#000000" />
<rect x="101" y="23" width="1" height="1" fill="#000000" />
<rect x="106" y="23" width="1" height="1" fill="#000000" />
<rect x="112" y="23" width="1" height="1" fill="#000000" />
<rect x="117" y="23" width="1" height="1" fill="#000000" />
<rect x="135" y="23" width="1" height="1" fill="#000000" />
<rect x="139" y="23" width="1" height="1" fill="#000000" />
<rect x="143" y="23" width="1" height="1" fill="#000000" />
<rect x="150" y="23" width="1" height="1" fill="#000000" />
<rect x="170" y="23" width="1" height="1" fill="#000000" />
<rect x="171" y="23" width="1" height="1" fill="#000000" />
<rect x="178" y="23" width="1" height="1" fill="#000000" />
<rect x="179" y="23" width="1" height="1" fill="#000000" />
<rect x="184" y="23" width="1" height="1" fill="#000000" />
<rect x="190" y="23" width="1" height="1" fill="#000000" />
<rect x="14" y="24" width="1" height="1" fill="#000000" />
<rect x="25" y="24" width="1" height="1" fill="#000000" />
<rect x="44" y="24" width="1" height="1" fill="#000000" />
<rect x="51" y="24" width="1" height="1" fill="#000000" />
<rect x="55" y="24" width="1" height="1" fill="#000000" />
<rect x="69" y="24" width="1" height="1" fill="#000000" />
<rect x="75" y="24" width="1" height="1" fill="#000000" />
<rect x="76" y="24" width="1" height="1" fill="#000000" />
<rect x="77" y="24" width="1" height="1" fill="#000000" />
<rect x="80" y="24" width="1" height="1" fill="#000000" />
<rect x="85" y="24" width="1" height="1" fill="#000000" />
<rect x="101" y="24" width="1" height="1" fill="#000000" />
<rect x="106" y="24" width="1" height="1" fill="#000000" />
<rect x="112" y="24" width="1" height="1" fill="#000000" />
<rect x="117" y="24" width="1" height="1" fill="#000000" />
<rect x="135" y="24" width="1" height="1" fill="#000000" />
<rect x="139" y="24" width="1" height="1" fill="#000000" />
<rect x="142" y="24" width="1" height="1" fill="#000000" />
<rect x="149" y="24" width="1" height="1" fill="#000000" />
<rect x="172" y="24" width="1" height="1" fill="#000000" />
<rect x="180" y="24" width="1" height="1" fill="#000000" />
<rect x="181" y="24" width="1" height="1" fill="#000000" />
<rect x="184" y="24" width="1" height="1" fill="#000000" />
<rect x="190" y="24" width="1" height="1" fill="#000000" />
<rect x="14" y="25" width="1" height="1" fill="#000000" />
<rect x="25" y="25" width="1" height="1" fill="#000000" />
<rect x="44" y="25" width="1" height="1" fill="#000000" />
<rect x="51" y="25" width="1" height="1" fill="#000000" />
<rect x="55" y="25" width="1" height="1" fill="#000000" />
<rect x="69" y="25" width="1" height="1" fill="#000000" />
<rect x="75" y="25" width="1" height="1" fill="#000000" />
<rect x="78" y="25" width="1" height="1" fill="#000000" />
<rect x="79" y="25" width="1" height="1" fill="#000000" />
<rect x="80" y="25" width="1" height="1" fill="#000000" />
<rect x="85" y="25" width="1" height="1" fill="#000000" />
<rect x="102" y="25" width="1" height="1" fill="#000000" />
<rect x="106" y="25" width="1" height="1" fill="#000000" />
<rect x="113" y="25" width="1" height="1" fill="#000000" />
<rect x="117" y="25" width="1" height="1" fill="#000000" />
<rect x="136" y="25" width="1" height="1" fill="#000000" />
<rect x="139" y="25" width="1" height="1" fill="#000000" />
<rect x="140" y="25" width="1" height="1" fill="#000000" />
<rect x="141" y="25" width="1" height="1" fill="#000000" />
<rect x="148" y="25" width="1" height="1" fill="#000000" />
<rect x="173" y="25" width="1" height="1" fill="#000000" />
<rect x="174" y="25" width="1" height="1" fill="#000000" />
<rect x="182" y="25" width="1" height="1" fill="#000000" />
<rect x="183" y="25" width="1" height="1" fill="#000000" />
<rect x="184" y="25" width="1" height="1" fill="#000000" />
<rect x="191" y="25" width="1" height="1" fill="#000000" />
<rect x="14" y="26" width="1" height="1" fill="#000000" />
<rect x="25" y="26" width="1" height="1" fill="#000000" />
<rect x="44" y="26" width="1" height="1" fill="#000000" />
<rect x="46" y="26" width="1" height="1" fill="#000000" />
<rect x="50" y="26" width="1" height="1" fill="#000000" />
<rect x="55" y="26" width="1" height="1" fill="#000000" />
<rect x="69" y="26" width="1" height="1" fill="#000000" />
<rect x="74" y="26" width="1" height="1" fill="#000000" />
<rect x="80" y="26" width="1" height="1" fill="#000000" />
<rect x="84" y="26" width="1" height="1" fill="#000000" />
<rect x="103" y="26" width="1" height="1" fill="#000000" />
<rect x="106" y="26" width="1" height="1" fill="#000000" />
<rect x="113" y="26" width="1" height="1" fill="#000000" />
<rect x="116" y="26" width="1" height="1" fill="#000000" />
<rect x="137" y="26" width="1" height="1" fill="#000000" />
<rect x="140" y="26" width="1" height="1" fill="#000000" />
<rect x="148" y="26" width="1" height="1" fill="#000000" />
<rect x="175" y="26" width="1" height="1" fill="#000000" />
<rect x="191" y="26" width="1" height="1" fill="#000000" />
<rect x="15" y="27" width="1" height="1" fill="#000000" />
<rect x="25" y="27" width="1" height="1" fill="#000000" />
<rect x="43" y="27" width="1" height="1" fill="#000000" />
<rect x="47" y="27" width="1" height="1" fill="#000000" />
<rect x="48" y="27" width="1" height="1" fill="#000000" />
<rect x="49" y="27" width="1" height="1" fill="#000000" />
<rect x="55" y="27" width="1" height="1" fill="#000000" />
<rect x="69" y="27" width="1" height="1" fill="#000000" />
<rect x="74" y="27" width="1" height="1" fill="#000000" />
<rect x="80" y="27" width="1" height="1" fill="#000000" />
<rect x="84" y="27" width="1" height="1" fill="#000000" />
<rect x="103" y="27" width="1" height="1" fill="#000000" />
<rect x="107" y="27" width="1" height="1" fill="#000000" />
<rect x="112" y="27" width="1" height="1" fill="#000000" />
<rect x="116" y="27" width="1" height="1" fill="#000000" />
<rect x="137" y="27" width="1" height="1" fill="#000000" />
<rect x="140" y="27" width="1" height="1" fill="#000000" />
<rect x="147" y="27" width="1" height="1" fill="#000000" />
<rect x="176" y="27" width="1" height="1" fill="#000000" />
<rect x="191" y="27" width="1" height="1" fill="#000000" />
<rect x="15" y="28" width="1" height="1" fill="#000000" />
<rect x="25" y="28" width="1" height="1" fill="#000000" />
<rect x="43" y="28" width="1" height="1" fill="#000000" />
<rect x="54" y="28" width="1" height="1" fill="#000000" />
<rect x="70" y="28" width="1" height="1" fill="#000000" />
<rect x="74" y="28" width="1" height="1" fill="#000000" />
<rect x="80" y="28" width="1" height="1" fill="#000000" />
<rect x="84" y="28" width="1" height="1" fill="#000000" />
<rect x="104" y="28" width="1" height="1" fill="#000000" />
<rect x="108" y="28" width="1" height="1" fill="#000000" />
<rect x="112" y="28" width="1" height="1" fill="#000000" />
<rect x="116" y="28" width="1" height="1" fill="#000000" />
<rect x="137" y="28" width="1" height="1" fill="#000000" />
<rect x="140" y="28" width="1" height="1" fill="#000000" />
<rect x="147" y="28" width="1" height="1" fill="#000000" />
<rect x="177" y="28" width="1" height="1" fill="#000000" />
<rect x="191" y="28" width="1" height="1" fill="#000000" />
<rect x="15" y="29" width="1" height="1" fill="#000000" />
<rect x="25" y="29" width="1" height="1" fill="#000000" />
<rect x="43" y="29" width="1" height="1" fill="#000000" />
<rect x="54" y="29" width="1" height="1" fill="#000000" />
<rect x="70" y="29" width="1" height="1" fill="#000000" />
<rect x="74" y="29" width="1" height="1" fill="#000000" />
<rect x="80" y="29" width="1" height="1" fill="#000000" />
<rect x="84" y="29" width="1" height="1" fill="#000000" />
<rect x="104" y="29" width="1" height="1" fill="#000000" />
<rect x="109" y="29" width="1" height="1" fill="#000000" />
<rect x="110" y="29" width="1" height="1" fill="#000000" />
<rect x="111" y="29" width="1" height="1" fill="#000000" />
<rect x="116" y="29" width="1" height="1" fill="#000000" />
<rect x="138" y="29" width="1" height="1" fill="#000000" />
<rect x="140" y="29" width="1" height="1" fill="#000000" />
<rect x="147" y="29" width="1" height="1" fill="#000000" />
<rect x="178" y="29" width="1" height="1" fill="#000000" />
<rect x="191" y="29" width="1" height="1" fill="#000000" />
<rect x="14" y="30" width="1" height="1" fill="#000000" />
<rect x="24" y="30" width="1" height="1" fill="#000000" />
<rect x="42" y="30" width="1" height="1" fill="#000000" />
<rect x="53" y="30" width="1" height="1" fill="#000000" />
<rect x="70" y="30" width="1" height="1" fill="#000000" />
<rect x="74" y="30" width="1" height="1" fill="#000000" />
<rect x="80" y="30" width="1" height="1" fill="#000000" />
<rect x="84" y="30" width="1" height="1" fill="#000000" />
<rect x="105" y="30" width="1" height="1" fill="#000000" />
<rect x="116" y="30" width="1" height="1" fill="#000000" />
<rect x="138" y="30" width="1" height="1" fill="#000000" />
<rect x="141" y="30" width="1" height="1" fill="#000000" />
<rect x="146" y="30" width="1" height="1" fill="#000000" />
<rect x="178" y="30" width="1" height="1" fill="#000000" />
<rect x="191" y="30" width="1" height="1" fill="#000000" />
<rect x="14" y="31" width="1" height="1" fill="#000000" />
<rect x="24" y="31" width="1" height="1" fill="#000000" />
<rect x="41" y="31" width="1" height="1" fill="#000000" />
<rect x="53" y="31" width="1" height="1" fill="#000000" />
<rect x="70" y="31" width="1" height="1" fill="#000000" />
<rect x="84" y="31" width="1" height="1" fill="#000000" />
<rect x="106" y="31" width="1" height="1" fill="#000000" />
<rect x="116" y="31" width="1" height="1" fill="#000000" />
<rect x="139" y="31" width="1" height="1" fill="#000000" />
<rect x="146" y="31" width="1" height="1" fill="#000000" />
<rect x="179" y="31" width="1" height="1" fill="#000000" />
<rect x="190" y="31" width="1" height="1" fill="#000000" />
<rect x="14" y="32" width="1" height="1" fill="#000000" />
<rect x="23" y="32" width="1" height="1" fill="#000000" />
<rect x="41" y="32" width="1" height="1" fill="#000000" />
<rect x="52" y="32" width="1" height="1" fill="#000000" />
<rect x="71" y="32" width="1" height="1" fill="#000000" />
<rect x="84" y="32" width="1" height="1" fill="#000000" />
<rect x="107" y="32" width="1" height="1" fill="#000000" />
<rect x="117" y="32" width="1" height="1" fill="#000000" />
<rect x="139" y="32" width="1" height="1" fill="#000000" />
<rect x="146" y="32" width="1" height="1" fill="#000000" />
<rect x="179" y="32" width="1" height="1" fill="#000000" />
<rect x="190" y="32" width="1" height="1" fill="#000000" />
<rect x="13" y="33" width="1" height="1" fill="#000000" />
<rect x="22" y="33" width="1" height="1" fill="#000000" />
<rect x="41" y="33" width="1" height="1" fill="#000000" />
<rect x="51" y="33" width="1" height="1" fill="#000000" />
<rect x="71" y="33" width="1" height="1" fill="#000000" />
<rect x="84" y="33" width="1" height="1" fill="#000000" />
<rect x="108" y="33" width="1" height="1" fill="#000000" />
<rect x="117" y="33" width="1" height="1" fill="#000000" />
<rect x="139" y="33" width="1" height="1" fill="#000000" />
<rect x="146" y="33" width="1" height="1" fill="#000000" />
<rect x="179" y="33" width="1" height="1" fill="#000000" />
<rect x="190" y="33" width="1" height="1" fill="#000000" />
<rect x="12" y="34" width="1" height="1" fill="#000000" />
<rect x="21" y="34" width="1" height="1" fill="#000000" />
<rect x="40" y="34" width="1" height="1" fill="#000000" />
<rect x="50" y="34" width="1" height="1" fill="#000000" />
<rect x="71" y="34" width="1" height="1" fill="#000000" />
<rect x="83" y="34" width="1" height="1" fill="#000000" />
<rect x="109" y="34" width="1" height="1" fill="#000000" />
<rect x="117" y="34" width="1" height="1" fill="#000000" />
<rect x="139" y="34" width="1" height="1" fill="#000000" />
<rect x="146" y="34" width="1" height="1" fill="#000000" />
<rect x="180" y="34" width="1" height="1" fill="#000000" />
<rect x="189" y="34" width="1" height="1" fill="#000000" />
<rect x="12" y="35" width="1" height="1" fill="#000000" />
<rect x="20" y="35" width="1" height="1" fill="#000000" />
<rect x="40" y="35" width="1" height="1" fill="#000000" />
<rect x="48" y="35" width="1" height="1" fill="#000000" />
<rect x="49" y="35" width="1" height="1" fill="#000000" />
<rect x="72" y="35" width="1" height="1" fill="#000000" />
<rect x="83" y="35" width="1" height="1" fill="#000000" />
<rect x="109" y="35" width="1" height="1" fill="#000000" />
<rect x="117" y="35" width="1" height="1" fill="#000000" />
<rect x="140" y="35" width="1" height="1" fill="#000000" />
<rect x="147" y="35" width="1" height="1" fill="#000000" />
<rect x="180" y="35" width="1" height="1" fill="#000000" />
<rect x="189" y="35" width="1" height="1" fill="#000000" />
<rect x="12" y="36" width="1" height="1" fill="#000000" />
<rect x="18" y="36" width="1" height="1" fill="#000000" />
<rect x="19" y="36" width="1" height="1" fill="#000000" />
<rect x="40" y="36" width="1" height="1" fill="#000000" />
<rect x="45" y="36" width="1" height="1" fill="#000000" />
<rect x="46" y="36" width="1" height="1" fill="#000000" />
<rect x="47" y="36" width="1" height="1" fill="#000000" />
<rect x="72" y="36" width="1" height="1" fill="#000000" />
<rect x="83" y="36" width="1" height="1" fill="#000000" />
<rect x="110" y="36" width="1" height="1" fill="#000000" />
<rect x="117" y="36" width="1" height="1" fill="#000000" />
<rect x="140" y="36" width="1" height="1" fill="#000000" />
<rect x="147" y="36" width="1" height="1" fill="#000000" />
<rect x="181" y="36" width="1" height="1" fill="#000000" />
<rect x="189" y="36" width="1" height="1" fill="#000000" />
<rect x="12" y="37" width="1" height="1" fill="#000000" />
<rect x="16" y="37" width="1" height="1" fill="#000000" />
<rect x="17" y="37" width="1" height="1" fill="#000000" />
<rect x="40" y="37" width="1" height="1" fill="#000000" />
<rect x="44" y="37" width="1" height="1" fill="#000000" />
<rect x="72" y="37" width="1" height="1" fill="#000000" />
<rect x="83" y="37" width="1" height="1" fill="#000000" />
<rect x="110" y="37" width="1" height="1" fill="#000000" />
<rect x="117" y="37" width="1" height="1" fill="#000000" />
<rect x="141" y="37" width="1" height="1" fill="#000000" />
<rect x="147" y="37" width="1" height="1" fill="#000000" />
<rect x="182" y="37" width="1" height="1" fill="#000000" />
<rect x="189" y="37" width="1" height="1" fill="#000000" />
<rect x="13" y="38" width="1" height="1" fill="#000000" />
<rect x="14" y="38" width="1" height="1" fill="#000000" />
<rect x="15" y="38" width="1" height="1" fill="#000000" />
<rect x="40" y="38" width="1" height="1" fill="#000000" />
<rect x="43" y="38" width="1" height="1" fill="#000000" />
<rect x="72" y="38" width="1" height="1" fill="#000000" />
<rect x="82" y="38" width="1" height="1" fill="#000000" />
<rect x="111" y="38" width="1" height="1" fill="#000000" />
<rect x="117" y="38" width="1" height="1" fill="#000000" />
<rect x="141" y="38" width="1" height="1" fill="#000000" />
<rect x="147" y="38" width="1" height="1" fill="#000000" />
<rect x="183" y="38" width="1" height="1" fill="#000000" />
<rect x="189" y="38" width="1" height="1" fill="#000000" />
<rect x="40" y="39" width="1" height="1" fill="#000000" />
<rect x="43" y="39" width="1" height="1" fill="#000000" />
<rect x="72" y="39" width="1" height="1" fill="#000000" />
<rect x="81" y="39" width="1" height="1" fill="#000000" />
<rect x="112" y="39" width="1" height="1" fill="#000000" />
<rect x="117" y="39" width="1" height="1" fill="#000000" />
<rect x="141" y="39" width="1" height="1" fill="#000000" />
<rect x="147" y="39" width="1" height="1" fill="#000000" />
<rect x="184" y="39" width="1" height="1" fill="#000000" />
<rect x="185" y="39" width="1" height="1" fill="#000000" />
<rect x="188" y="39" width="1" height="1" fill="#000000" />
<rect x="40" y="40" width="1" height="1" fill="#000000" />
<rect x="42" y="40" width="1" height="1" fill="#000000" />
<rect x="72" y="40" width="1" height="1" fill="#000000" />
<rect x="80" y="40" width="1" height="1" fill="#000000" />
<rect x="112" y="40" width="1" height="1" fill="#000000" />
<rect x="116" y="40" width="1" height="1" fill="#000000" />
<rect x="142" y="40" width="1" height="1" fill="#000000" />
<rect x="147" y="40" width="1" height="1" fill="#000000" />
<rect x="186" y="40" width="1" height="1" fill="#000000" />
<rect x="188" y="40" width="1" height="1" fill="#000000" />
<rect x="41" y="41" width="1" height="1" fill="#000000" />
<rect x="72" y="41" width="1" height="1" fill="#000000" />
<rect x="79" y="41" width="1" height="1" fill="#000000" />
<rect x="112" y="41" width="1" height="1" fill="#000000" />
<rect x="115" y="41" width="1" height="1" fill="#000000" />
<rect x="143" y="41" width="1" height="1" fill="#000000" />
<rect x="147" y="41" width="1" height="1" fill="#000000" />
<rect x="187" y="41" width="1" height="1" fill="#000000" />
<rect x="72" y="42" width="1" height="1" fill="#000000" />
<rect x="78" y="42" width="1" height="1" fill="#000000" />
<rect x="112" y="42" width="1" height="1" fill="#000000" />
<rect x="114" y="42" width="1" height="1" fill="#000000" />
<rect x="144" y="42" width="1" height="1" fill="#000000" />
<rect x="148" y="42" width="1" height="1" fill="#000000" />
<rect x="72" y="43" width="1" height="1" fill="#000000" />
<rect x="76" y="43" width="1" height="1" fill="#000000" />
<rect x="77" y="43" width="1" height="1" fill="#000000" />
<rect x="112" y="43" width="1" height="1" fill="#000000" />
<rect x="113" y="43" width="1" height="1" fill="#000000" />
<rect x="145" y="43" width="1" height="1" fill="#000000" />
<rect x="148" y="43" width="1" height="1" fill="#000000" />
<rect x="72" y="44" width="1" height="1" fill="#000000" />
<rect x="74" y="44" width="1" height="1" fill="#000000" />
<rect x="75" y="44" width="1" height="1" fill="#000000" />
<rect x="112" y="44" width="1" height="1" fill="#000000" />
<rect x="146" y="44" width="1" height="1" fill="#000000" />
<rect x="148" y="44" width="1" height="1" fill="#000000" />
<rect x="71" y="45" width="1" height="1" fill="#000000" />
<rect x="72" y="45" width="1" height="1" fill="#000000" />
<rect x="73" y="45" width="1" height="1" fill="#000000" />
<rect x="147" y="45" width="1" height="1" fill="#000000" />
<rect x="148" y="45" width="1" height="1" fill="#000000" />
<rect x="71" y="46" width="1" height="1" fill="#000000" />
<rect x="148" y="46" width="1" height="1" fill="#000000" />
</svg>