<?xml version="1.0" encoding="UTF-8" ?>
<svg version="1.1" width="192" height="16" xmlns="http://www.w3.org/2000/svg" shape-rendering="crispEdges">
<rect x="160" y="2" width="1" height="1" fill="#000000" />
<rect x="17" y="3" width="1" height="1" fill="#000000" />
<rect x="66" y="3" width="1" height="1" fill="#000000" />
<rect x="113" y="3" width="1" height="1" fill="#000000" />
<rect x="160" y="3" width="1" height="1" fill="#000000" />
<rect x="17" y="4" width="1" height="1" fill="#000000" />
<rect x="58" y="4" width="1" height="1" fill="#000000" />
<rect x="59" y="4" width="1" height="1" fill="#000000" />
<rect x="66" y="4" width="1" height="1" fill="#000000" />
<rect x="82" y="4" width="1" height="1" fill="#000000" />
<rect x="83" y="4" width="1" height="1" fill="#000000" />
<rect x="113" y="4" width="1" height="1" fill="#000000" />
<rect x="160" y="4" width="1" height="1" fill="#000000" />
<rect x="178" y="4" width="1" height="1" fill="#000000" />
<rect x="179" y="4" width="1" height="1" fill="#000000" />
<rect x="180" y="4" width="1" height="1" fill="#000000" />
<rect x="9" y="5" width="1" height="1" fill="#000000" />
<rect x="10" y="5" width="1" height="1" fill="#000000" />
<rect x="11" y="5" width="1" height="1" fill="#000000" />
<rect x="16" y="5" width="1" height="1" fill="#000000" />
<rect x="34" y="5" width="1" height="1" fill="#000000" />
<rect x="35" y="5" width="1" height="1" fill="#000000" />
<rect x="36" y="5" width="1" height="1" fill="#000000" />
<rect x="57" y="5" width="1" height="1" fill="#000000" />
<rect x="60" y="5" width="1" height="1" fill="#000000" />
<rect x="65" y="5" width="1" height="1" fill="#000000" />
<rect x="80" y="5" width="1" height="1" fill="#000000" />
<rect x="81" y="5" width="1" height="1" fill="#000000" />
<rect x="84" y="5" width="1" height="1" fill="#000000" />
<rect x="105" y="5" width="1" height="1" fill="#000000" />
<rect x="106" y="5" width="1" height="1" fill="#000000" />
<rect x="107" y="5" width="1" height="1" fill="#000000" />
<rect x="112" y="5" width="1" height="1" fill="#000000" />
<rect x="130" y="5" width="1" height="1" fill="#000000" />
<rect x="131" y="5" width="1" height="1" fill="#000000" />
<rect x="132" y="5" width="1" height="1" fill="#000000" />
<rect x="160" y="5" width="1" height="1" fill="#000000" />
<rect x="177" y="5" width="1" height="1" fill="#000000" />
<rect x="181" y="5" width="1" height="1" fill="#000000" />
<rect x="8" y="6" width="1" height="1" fill="#000000" />
<rect x="12" y="6" width="1" height="1" fill="#000000" />
<rect x="16" y="6" width="1" height="1" fill="#000000" />
<rect x="32" y="6" width="1" height="1" fill="#000000" />
<rect x="33" y="6" width="1" height="1" fill="#000000" />
<rect x="37" y="6" width="1" height="1" fill="#000000" />
<rect x="57" y="6" width="1" height="1" fill="#000000" />
<rect x="65" y="6" width="1" height="1" fill="#000000" />
<rect x="79" y="6" width="1" height="1" fill="#000000" />
<rect x="84" y="6" width="1" height="1" fill="#000000" />
<rect x="104" y="6" width="1" height="1" fill="#000000" />
<rect x="108" y="6" width="1" height="1" fill="#000000" />
<rect x="112" y="6" width="1" height="1" fill="#000000" />
<rect x="128" y="6" width="1" height="1" fill="#000000" />
<rect x="129" y="6" width="1" height="1" fill="#000000" />
<rect x="133" y="6" width="1" height="1" fill="#000000" />
<rect x="153" y="6" width="1" height="1" fill="#000000" />
<rect x="154" y="6" width="1" height="1" fill="#000000" />
<rect x="155" y="6" width="1" height="1" fill="#000000" />
<rect x="160" y="6" width="1" height="1" fill="#000000" />
<rect x="161" y="6" width="1" height="1" fill="#000000" />
<rect x="162" y="6" width="1" height="1" fill="#000000" />
<rect x="169" y="6" width="1" height="1" fill="#000000" />
<rect x="170" y="6" width="1" height="1" fill="#000000" />
<rect x="177" y="6" width="1" height="1" fill="#000000" />
<rect x="182" y="6" width="1" height="1" fill="#000000" />
<rect x="9" y="7" width="1" height="1" fill="#000000" />
<rect x="16" y="7" width="1" height="1" fill="#000000" />
<rect x="17" y="7" width="1" height="1" fill="#000000" />
<rect x="18" y="7" width="1" height="1" fill="#000000" />
<rect x="25" y="7" width="1" height="1" fill="#000000" />
<rect x="26" y="7" width="1" height="1" fill="#000000" />
<rect x="27" y="7" width="1" height="1" fill="#000000" />
<rect x="32" y="7" width="1" height="1" fill="#000000" />
<rect x="37" y="7" width="1" height="1" fill="#000000" />
<rect x="58" y="7" width="1" height="1" fill="#000000" />
<rect x="64" y="7" width="1" height="1" fill="#000000" />
<rect x="73" y="7" width="1" height="1" fill="#000000" />
<rect x="74" y="7" width="1" height="1" fill="#000000" />
<rect x="75" y="7" width="1" height="1" fill="#000000" />
<rect x="79" y="7" width="1" height="1" fill="#000000" />
<rect x="84" y="7" width="1" height="1" fill="#000000" />
<rect x="105" y="7" width="1" height="1" fill="#000000" />
<rect x="112" y="7" width="1" height="1" fill="#000000" />
<rect x="113" y="7" width="1" height="1" fill="#000000" />
<rect x="114" y="7" width="1" height="1" fill="#000000" />
<rect x="121" y="7" width="1" height="1" fill="#000000" />
<rect x="122" y="7" width="1" height="1" fill="#000000" />
<rect x="123" y="7" width="1" height="1" fill="#000000" />
<rect x="128" y="7" width="1" height="1" fill="#000000" />
<rect x="133" y="7" width="1" height="1" fill="#000000" />
<rect x="152" y="7" width="1" height="1" fill="#000000" />
<rect x="156" y="7" width="1" height="1" fill="#000000" />
<rect x="160" y="7" width="1" height="1" fill="#000000" />
<rect x="163" y="7" width="1" height="1" fill="#000000" />
<rect x="168" y="7" width="1" height="1" fill="#000000" />
<rect x="171" y="7" width="1" height="1" fill="#000000" />
<rect x="172" y="7" width="1" height="1" fill="#000000" />
<rect x="177" y="7" width="1" height="1" fill="#000000" />
<rect x="181" y="7" width="1" height="1" fill="#000000" />
<rect x="10" y="8" width="1" height="1" fill="#000000" />
<rect x="15" y="8" width="1" height="1" fill="#000000" />
<rect x="19" y="8" width="1" height="1" fill="#000000" />
<rect x="24" y="8" width="1" height="1" fill="#000000" />
<rect x="28" y="8" width="1" height="1" fill="#000000" />
<rect x="33" y="8" width="1" height="1" fill="#000000" />
<rect x="36" y="8" width="1" height="1" fill="#000000" />
<rect x="55" y="8" width="1" height="1" fill="#000000" />
<rect x="59" y="8" width="1" height="1" fill="#000000" />
<rect x="64" y="8" width="1" height="1" fill="#000000" />
<rect x="65" y="8" width="1" height="1" fill="#000000" />
<rect x="66" y="8" width="1" height="1" fill="#000000" />
<rect x="72" y="8" width="1" height="1" fill="#000000" />
<rect x="76" y="8" width="1" height="1" fill="#000000" />
<rect x="80" y="8" width="1" height="1" fill="#000000" />
<rect x="83" y="8" width="1" height="1" fill="#000000" />
<rect x="106" y="8" width="1" height="1" fill="#000000" />
<rect x="111" y="8" width="1" height="1" fill="#000000" />
<rect x="115" y="8" width="1" height="1" fill="#000000" />
<rect x="120" y="8" width="1" height="1" fill="#000000" />
<rect x="124" y="8" width="1" height="1" fill="#000000" />
<rect x="129" y="8" width="1" height="1" fill="#000000" />
<rect x="132" y="8" width="1" height="1" fill="#000000" />
<rect x="152" y="8" width="1" height="1" fill="#000000" />
<rect x="153" y="8" width="1" height="1" fill="#000000" />
<rect x="160" y="8" width="1" height="1" fill="#000000" />
<rect x="164" y="8" width="1" height="1" fill="#000000" />
<rect x="167" y="8" width="1" height="1" fill="#000000" />
<rect x="173" y="8" width="1" height="1" fill="#000000" />
<rect x="177" y="8" width="1" height="1" fill="#000000" />
<rect x="178" y="8" width="1" height="1" fill="#000000" />
<rect x="179" y="8" width="1" height="1" fill="#000000" />
<rect x="180" y="8" width="1" height="1" fill="#000000" />
<rect x="7" y="9" width="1" height="1" fill="#000000" />
<rect x="10" y="9" width="1" height="1" fill="#000000" />
<rect x="15" y="9" width="1" height="1" fill="#000000" />
<rect x="19" y="9" width="1" height="1" fill="#000000" />
<rect x="23" y="9" width="1" height="1" fill="#000000" />
<rect x="28" y="9" width="1" height="1" fill="#000000" />
<rect x="33" y="9" width="1" height="1" fill="#000000" />
<rect x="34" y="9" width="1" height="1" fill="#000000" />
<rect x="35" y="9" width="1" height="1" fill="#000000" />
<rect x="56" y="9" width="1" height="1" fill="#000000" />
<rect x="59" y="9" width="1" height="1" fill="#000000" />
<rect x="64" y="9" width="1" height="1" fill="#000000" />
<rect x="67" y="9" width="1" height="1" fill="#000000" />
<rect x="72" y="9" width="1" height="1" fill="#000000" />
<rect x="76" y="9" width="1" height="1" fill="#000000" />
<rect x="81" y="9" width="1" height="1" fill="#000000" />
<rect x="83" y="9" width="1" height="1" fill="#000000" />
<rect x="103" y="9" width="1" height="1" fill="#000000" />
<rect x="106" y="9" width="1" height="1" fill="#000000" />
<rect x="111" y="9" width="1" height="1" fill="#000000" />
<rect x="115" y="9" width="1" height="1" fill="#000000" />
<rect x="119" y="9" width="1" height="1" fill="#000000" />
<rect x="124" y="9" width="1" height="1" fill="#000000" />
<rect x="129" y="9" width="1" height="1" fill="#000000" />
<rect x="130" y="9" width="1" height="1" fill="#000000" />
<rect x="131" y="9" width="1" height="1" fill="#000000" />
<rect x="150" y="9" width="1" height="1" fill="#000000" />
<rect x="153" y="9" width="1" height="1" fill="#000000" />
<rect x="160" y="9" width="1" height="1" fill="#000000" />
<rect x="164" y="9" width="1" height="1" fill="#000000" />
<rect x="167" y="9" width="1" height="1" fill="#000000" />
<rect x="173" y="9" width="1" height="1" fill="#000000" />
<rect x="176" y="9" width="1" height="1" fill="#000000" />
<rect x="8" y="10" width="1" height="1" fill="#000000" />
<rect x="9" y="10" width="1" height="1" fill="#000000" />
<rect x="14" y="10" width="1" height="1" fill="#000000" />
<rect x="18" y="10" width="1" height="1" fill="#000000" />
<rect x="23" y="10" width="1" height="1" fill="#000000" />
<rect x="28" y="10" width="1" height="1" fill="#000000" />
<rect x="33" y="10" width="1" height="1" fill="#000000" />
<rect x="57" y="10" width="1" height="1" fill="#000000" />
<rect x="58" y="10" width="1" height="1" fill="#000000" />
<rect x="63" y="10" width="1" height="1" fill="#000000" />
<rect x="67" y="10" width="1" height="1" fill="#000000" />
<rect x="71" y="10" width="1" height="1" fill="#000000" />
<rect x="77" y="10" width="1" height="1" fill="#000000" />
<rect x="82" y="10" width="1" height="1" fill="#000000" />
<rect x="104" y="10" width="1" height="1" fill="#000000" />
<rect x="105" y="10" width="1" height="1" fill="#000000" />
<rect x="110" y="10" width="1" height="1" fill="#000000" />
<rect x="114" y="10" width="1" height="1" fill="#000000" />
<rect x="119" y="10" width="1" height="1" fill="#000000" />
<rect x="124" y="10" width="1" height="1" fill="#000000" />
<rect x="129" y="10" width="1" height="1" fill="#000000" />
<rect x="151" y="10" width="1" height="1" fill="#000000" />
<rect x="152" y="10" width="1" height="1" fill="#000000" />
<rect x="159" y="10" width="1" height="1" fill="#000000" />
<rect x="163" y="10" width="1" height="1" fill="#000000" />
<rect x="168" y="10" width="1" height="1" fill="#000000" />
<rect x="171" y="10" width="1" height="1" fill="#000000" />
<rect x="172" y="10" width="1" height="1" fill="#000000" />
<rect x="176" y="10" width="1" height="1" fill="#000000" />
<rect x="18" y="11" width="1" height="1" fill="#000000" />
<rect x="24" y="11" width="1" height="1" fill="#000000" />
<rect x="27" y="11" width="1" height="1" fill="#000000" />
<rect x="34" y="11" width="1" height="1" fill="#000000" />
<rect x="62" y="11" width="1" height="1" fill="#000000" />
<rect x="66" y="11" width="1" height="1" fill="#000000" />
<rect x="71" y="11" width="1" height="1" fill="#000000" />
<rect x="76" y="11" width="1" height="1" fill="#000000" />
<rect x="82" y="11" width="1" height="1" fill="#000000" />
<rect x="114" y="11" width="1" height="1" fill="#000000" />
<rect x="120" y="11" width="1" height="1" fill="#000000" />
<rect x="123" y="11" width="1" height="1" fill="#000000" />
<rect x="130" y="11" width="1" height="1" fill="#000000" />
<rect x="169" y="11" width="1" height="1" fill="#000000" />
<rect x="170" y="11" width="1" height="1" fill="#000000" />
<rect x="176" y="11" width="1" height="1" fill="#000000" />
<rect x="7" y="12" width="1" height="1" fill="#000000" />
<rect x="8" y="12" width="1" height="1" fill="#000000" />
<rect x="9" y="12" width="1" height="1" fill="#000000" />
<rect x="10" y="12" width="1" height="1" fill="#000000" />
<rect x="25" y="12" width="1" height="1" fill="#000000" />
<rect x="26" y="12" width="1" height="1" fill="#000000" />
<rect x="34" y="12" width="1" height="1" fill="#000000" />
<rect x="52" y="12" width="1" height="1" fill="#000000" />
<rect x="53" y="12" width="1" height="1" fill="#000000" />
<rect x="54" y="12" width="1" height="1" fill="#000000" />
<rect x="55" y="12" width="1" height="1" fill="#000000" />
<rect x="56" y="12" width="1" height="1" fill="#000000" />
<rect x="65" y="12" width="1" height="1" fill="#000000" />
<rect x="72" y="12" width="1" height="1" fill="#000000" />
<rect x="73" y="12" width="1" height="1" fill="#000000" />
<rect x="74" y="12" width="1" height="1" fill="#000000" />
<rect x="75" y="12" width="1" height="1" fill="#000000" />
<rect x="83" y="12" width="1" height="1" fill="#000000" />
<rect x="92" y="12" width="1" height="1" fill="#000000" />
<rect x="93" y="12" width="1" height="1" fill="#000000" />
<rect x="94" y="12" width="1" height="1" fill="#000000" />
<rect x="103" y="12" width="1" height="1" fill="#000000" />
<rect x="104" y="12" width="1" height="1" fill="#000000" />
<rect x="105" y="12" width="1" height="1" fill="#000000" />
<rect x="106" y="12" width="1" height="1" fill="#000000" />
<rect x="121" y="12" width="1" height="1" fill="#000000" />
<rect x="122" y="12" width="1" height="1" fill="#000000" />
<rect x="130" y="12" width="1" height="1" fill="#000000" />
<rect x="154" y="12" width="1" height="1" fill="#000000" />
<rect x="155" y="12" width="1" height="1" fill="#000000" />
<rect x="156" y="12" width="1" height="1" fill="#000000" />
<rect x="157" y="12" width="1" height="1" fill="#000000" />
<rect x="158" y="12" width="1" height="1" fill="#000000" />
<rect x="3" y="13" width="1" height="1" fill="#000000" />
<rect x="4" y="13" width="1" height="1" fill="#000000" />
<rect x="5" y="13" width="1" height="1" fill="#000000" />
<rect x="6" y="13" width="1" height="1" fill="#000000" />
<rect x="11" y="13" width="1" height="1" fill="#000000" />
<rect x="12" y="13" width="1" height="1" fill="#000000" />
<rect x="13" y="13" width="1" height="1" fill="#000000" />
<rect x="14" y="13" width="1" height="1" fill="#000000" />
<rect x="15" y="13" width="1" height="1" fill="#000000" />
<rect x="42" y="13" width="1" height="1" fill="#000000" />
<rect x="43" y="13" width="1" height="1" fill="#000000" />
<rect x="44" y="13" width="1" height="1" fill="#000000" />
<rect x="45" y="13" width="1" height="1" fill="#000000" />
<rect x="46" y="13" width="1" height="1" fill="#000000" />
<rect x="57" y="13" width="1" height="1" fill="#000000" />
<rect x="58" y="13" width="1" height="1" fill="#000000" />
<rect x="59" y="13" width="1" height="1" fill="#000000" />
<rect x="60" y="13" width="1" height="1" fill="#000000" />
<rect x="87" y="13" width="1" height="1" fill="#000000" />
<rect x="88" y="13" width="1" height="1" fill="#000000" />
<rect x="89" y="13" width="1" height="1" fill="#000000" />
<rect x="90" y="13" width="1" height="1" fill="#000000" />
<rect x="91" y="13" width="1" height="1" fill="#000000" />
<rect x="99" y="13" width="1" height="1" fill="#000000" />
<rect x="100" y="13" width="1" height="1" fill="#000000" />
<rect x="101" y="13" width="1" height="1" fill="#000000" />
<rect x="102" y="13" width="1" height="1" fill="#000000" />
<rect x="107" y="13" width="1" height="1" fill="#000000" />
<rect x="108" y="13" width="1" height="1" fill="#000000" />
<rect x="109" y="13" width="1" height="1" fill="#000000" />
<rect x="110" y="13" width="1" height="1" fill="#000000" />
<rect x="111" y="13" width="1" height="1" fill="#000000" />
<rect x="138" y="13" width="1" height="1" fill="#000000" />
<rect x="139" y="13" width="1" height="1" fill="#000000" />
<rect x="140" y="13" width="1" height="1" fill="#000000" />
<rect x="141" y="13" width="1" height="1" fill="#000000" />
<rect x="142" y="13" width="1" height="1" fill="#000000" />
<rect x="151" y="13" width="1" height="1" fill="#000000" />
<rect x="152" y="13" width="1" height="1" fill="#000000" />
<rect x="153" y="13" width="1" height="1" fill="#000000" />
<rect x="159" y="13" width="1" height="1" fill="#000000" />
<rect x="160" y="13" width="1" height="1" fill="#000000" />
<rect x="161" y="13" width="1" height="1" fill="#000000" />
<rect x="162" y="13" width="1" height="1" fill="#000000" />
<rect x="163" y="13" width="1" height="1" fill="#000000" />
<rect x="164" y="13" width="1" height="1" fill="#000000" />
<rect x="165" y="13" width="1" height="1" fill="#000000" />
<rect x="166" y="13" width="1" height="1" fill="#000000" />
<rect x="167" y="13" width="1" height="1" fill="#000000" />
<rect x="175" y="13" width="1" height="1" fill="#000000" />
<rect x="176" y="13" width="1" height="1" fill="#000000" />
<rect x="177" y="13" width="1" height="1" fill="#000000" />
<rect x="178" y="13" width="1" height="1" fill="#000000" />
<rect x="179" y="13" width="1" height="1" fill="#000000" />
<rect x="180" y="13" width="1" height="1" fill="#000000" />
<rect x="181" y="13" width="1" height="1" fill="#000000" />
<rect x="182" y="13" width="1" height="1" fill="#000000" />
<rect x="183" y="13" width="1" height="1" fill="#000000" />
<rect x="16" y="14" width="1" height="1" fill="#000000" />
<rect x="17" y="14" width="1" height="1" fill="#000000" />
<rect x="18" y="14" width="1" height="1" fill="#000000" />
<rect x="19" y="14" width="1" height="1" fill="#000000" />
<rect x="20" y="14" width="1" height="1" fill="#000000" />
<rect x="21" y="14" width="1" height="1" fill="#000000" />
<rect x="22" y="14" width="1" height="1" fill="#000000" />
<rect x="23" y="14" width="1" height="1" fill="#000000" />
<rect x="29" y="14" width="1" height="1" fill="#000000" />
<rect x="30" y="14" width="1" height="1" fill="#000000" />
<rect x="31" y="14" width="1" height="1" fill="#000000" />
<rect x="32" y="14" width="1" height="1" fill="#000000" />
<rect x="33" y="14" width="1" height="1" fill="#000000" />
<rect x="34" y="14" width="1" height="1" fill="#000000" />
<rect x="35" y="14" width="1" height="1" fill="#000000" />
<rect x="36" y="14" width="1" height="1" fill="#000000" />
<rect x="37" y="14" width="1" height="1" fill="#000000" />
<rect x="38" y="14" width="1" height="1" fill="#000000" />
<rect x="39" y="14" width="1" height="1" fill="#000000" />
<rect x="40" y="14" width="1" height="1" fill="#000000" />
<rect x="41" y="14" width="1" height="1" fill="#000000" />
<rect x="61" y="14" width="1" height="1" fill="#000000" />
<rect x="62" y="14" width="1" height="1" fill="#000000" />
<rect x="63" y="14" width="1" height="1" fill="#000000" />
<rect x="64" y="14" width="1" height="1" fill="#000000" />
<rect x="65" y="14" width="1" height="1" fill="#000000" />
<rect x="66" y="14" width="1" height="1" fill="#000000" />
<rect x="67" y="14" width="1" height="1" fill="#000000" />
<rect x="82" y="14" width="1" height="1" fill="#000000" />
<rect x="83" y="14" width="1" height="1" fill="#000000" />
<rect x="84" y="14" width="1" height="1" fill="#000000" />
<rect x="85" y="14" width="1" height="1" fill="#000000" />
<rect x="86" y="14" width="1" height="1" fill="#000000" />
<rect x="112" y="14" width="1" height="1" fill="#000000" />
<rect x="113" y="14" width="1" height="1" fill="#000000" />
<rect x="114" y="14" width="1" height="1" fill="#000000" />
<rect x="115" y="14" width="1" height="1" fill="#000000" />
<rect x="116" y="14" width="1" height="1" fill="#000000" />
<rect x="117" y="14" width="1" height="1" fill="#000000" />
<rect x="118" y="14" width="1" height="1" fill="#000000" />
<rect x="119" y="14" width="1" height="1" fill="#000000" />
<rect x="125" y="14" width="1" height="1" fill="#000000" />
<rect x="126" y="14" width="1" height="1" fill="#000000" />
<rect x="127" y="14" width="1" height="1" fill="#000000" />
<rect x="128" y="14" width="1" height="1" fill="#000000" />
<rect x="129" y="14" width="1" height="1" fill="#000000" />
<rect x="130" y="14" width="1" height="1" fill="#000000" />
<rect x="131" y="14" width="1" height="1" fill="#000000" />
<rect x="132" y="14" width="1" height="1" fill="#000000" />
<rect x="133" y="14" width="1" height="1" fill="#000000" />
<rect x="134" y="14" width="1" height="1" fill="#000000" />
<rect x="135" y="14" width="1" height="1" fill="#000000" />
<rect x="136" y="14" width="1" height="1" fill="#000000" />
<rect x="137" y="14" width="1" height="1" fill="#000000" />
<rect x="148" y="14" width="1" height="1" fill="#000000" />
<rect x="149" y="14" width="1" height="1" fill="#000000" />
<rect x="150" y="14" width="1" height="1" fill="#000000" />
<rect x="168" y="14" width="1" height="1" fill="#000000" />
<rect x="169" y="14" width="1" height="1" fill="#000000" />
<rect x="170" y="14" width="1" height="1" fill="#000000" />
<rect x="171" y="14" width="1" height="1" fill="#000000" />
<rect x="172" y="14" width="1" height="1" fill="#000000" />
<rect x="173" y="14" width="1" height="1" fill="#000000" />
<rect x="174" y="14" width="1" height="1" fill="#000000" />
<rect x="184" y="14" width="1" height="1" fill="#000000" />
<rect x="185" y="14" width="1" height="1" fill="#000000" />
<rect x="186" y="14" width="1" height="1" fill="#000000" />
<rect x="187" y="14" width="1" height="1" fill="#000000" />
<rect x="188" y="14" width="1" height="1" fill="#000000" />
<rect x="189" y="14" width="1" height="1" fill="#000000" />
<rect x="24" y="15" width="1" height="1" fill="#000000" />
<rect x="25" y="15" width="1" height="1" fill="#000000" />
<rect x="26" y="15" width="1" height="1" fill="#000000" />
<rect x="27" y="15" width="1" height="1" fill="#000000" />
<rect x="28" y="15" width="1" height="1" fill="#000000" />
<rect x="68" y="15" width="1" height="1" fill="#000000" />
<rect x="69" y="15" width="1" height="1" fill="#000000" />
<rect x="70" y="15" width="1" height="1" fill="#000000" />
<rect x="71" y="15" width="1" height="1" fill="#000000" />
<rect x="72" y="15" width="1" height="1" fill="#000000" />
<rect x="73" y="15" width="1" height="1" fill="#000000" />
<rect x="74" y="15" width="1" height="1" fill="#000000" />
<rect x="75" y="15" width="1" height="1" fill="#000000" />
<rect x="76" y="15" width="1" height="1" fill="#000000" />
<rect x="77" y="15" width="1" height="1" fill="#000000" />
<rect x="78" y="15" width="1" height="1" fill="#000000" />
<rect x="79" y="15" width="1" height="1" fill="#000000" />
<rect x="80" y="15" width="1" height="1" fill="#000000" />
<rect x="81" y="15" width="1" height="1" fill="#000000" />
<rect x="120" y="15" width="1" height="1" fill="#000000" />
<rect x="121" y="15" width="1" height="1" fill="#000000" />
<rect x="122" y="15" width="1" height="1" fill="#000000" />
<rect x="123" y="15" width="1" height="1" fill="#000000" />
<rect x="124" y="15" width="1" height="1" fill="#000000" />
</svg>